<svg width="97" height="33" viewBox="0 0 97 33" fill="none" xmlns="http://www.w3.org/2000/svg">
<rect x="0.290039" y="0.134766" width="96.546" height="32.1822" rx="4.82732" fill="white"/>
<rect x="0.290039" y="0.134766" width="96.546" height="32.1822" rx="4.82732" stroke="url(#paint0_linear_281_9996)"/>
<path d="M20.1667 16.8389C20.1764 16.0988 20.3778 15.3731 20.752 14.7294C21.1262 14.0857 21.6612 13.5449 22.307 13.1572C21.8967 12.5851 21.3554 12.1143 20.7262 11.7822C20.0969 11.4501 19.397 11.2658 18.682 11.2439C17.1569 11.0876 15.6783 12.1349 14.9011 12.1349C14.1088 12.1349 12.9122 11.2594 11.6237 11.2853C10.7902 11.3116 9.97791 11.5482 9.26596 11.9722C8.554 12.3961 7.96666 12.9928 7.56116 13.7042C5.80465 16.6733 7.11485 21.037 8.79747 23.437C9.63932 24.6122 10.6232 25.925 11.9106 25.8784C13.1704 25.8274 13.6409 25.0941 15.1616 25.0941C16.6681 25.0941 17.1096 25.8784 18.4231 25.8488C19.7749 25.8274 20.6266 24.6684 21.439 23.482C22.0438 22.6446 22.5093 21.7191 22.8181 20.7398C22.0327 20.4155 21.3625 19.8727 20.891 19.179C20.4195 18.4853 20.1676 17.6715 20.1667 16.8389Z" fill="black"/>
<path d="M17.6855 9.66505C18.4226 8.8012 18.7857 7.69086 18.6978 6.56982C17.5717 6.68529 16.5315 7.21073 15.7845 8.04144C15.4192 8.44727 15.1395 8.91939 14.9613 9.43083C14.783 9.94227 14.7098 10.483 14.7457 11.0221C15.3089 11.0277 15.8662 10.9085 16.3754 10.6735C16.8846 10.4384 17.3325 10.0936 17.6855 9.66505Z" fill="black"/>
<path d="M83.7669 11.863C82.7486 11.863 82.1157 11.2372 82.1157 10.1836V9.67797C82.1157 8.61727 82.8087 7.99854 83.7209 7.99854C84.6578 7.99854 85.319 8.64909 85.319 9.67797V10.1164H82.8936V10.3002C82.8936 10.8377 83.2118 11.2336 83.7633 11.2336C84.1735 11.2336 84.4563 11.0392 84.5093 10.8058H85.2766C85.2306 11.2372 84.7745 11.863 83.7669 11.863ZM82.8936 9.60372H84.5518V9.55422C84.5518 8.99205 84.223 8.61727 83.7244 8.61727C83.2259 8.61727 82.8936 8.99205 82.8936 9.55422V9.60372Z" fill="black"/>
<path d="M77.9297 11.7995V6.71875H78.7111V8.73407H78.75C78.8313 8.46889 79.1353 8.00572 79.8849 8.00572C80.6132 8.00572 81.133 8.42647 81.133 9.27856V11.7995H80.3516V9.50837C80.3516 8.93913 80.0369 8.67396 79.5914 8.67396C79.0293 8.67396 78.7111 9.11592 78.7111 9.72405V11.7995H77.9297Z" fill="black"/>
<path d="M75.3342 8.08771V7.1543H76.1015V8.08771H76.9394V8.70291H76.1015V10.6864C76.1015 11.093 76.2535 11.2061 76.6742 11.2061C76.7803 11.2061 76.9217 11.1991 76.9818 11.192V11.7931C76.9182 11.8037 76.6566 11.8249 76.4798 11.8249C75.5711 11.8249 75.3236 11.4996 75.3236 10.75V8.70291H74.7544V8.08771H75.3342Z" fill="black"/>
<path d="M69.1045 11.7996V8.06243H69.8753V8.7342H69.9141C70.0096 8.44074 70.2819 8.00586 71.0385 8.00586C71.7916 8.00586 72.2972 8.42307 72.2972 9.27516V11.7996H71.5123V9.50497C71.5123 8.93573 71.2153 8.6741 70.7733 8.6741C70.1935 8.6741 69.8894 9.11959 69.8894 9.72418V11.7996H69.1045Z" fill="black"/>
<path d="M66.4348 7.99854C67.4106 7.99854 68.093 8.63142 68.093 9.6815V10.1659C68.093 11.2513 67.4106 11.863 66.4348 11.863C65.4448 11.863 64.7695 11.2584 64.7695 10.1694V9.68504C64.7695 8.66324 65.4554 7.99854 66.4348 7.99854ZM66.4383 8.63142C65.8797 8.63142 65.5615 9.09812 65.5615 9.72393V10.1411C65.5615 10.7669 65.8585 11.2301 66.4383 11.2301C67.0111 11.2301 67.3046 10.7705 67.3046 10.1411V9.72393C67.3046 9.09812 66.997 8.63142 66.4383 8.63142Z" fill="black"/>
<path d="M60.2267 8.0128C60.7535 8.0128 61.1566 8.24615 61.3016 8.62446H61.3405V6.71875H62.1254V11.7995H61.3617V11.2019H61.3228C61.2096 11.5803 60.7606 11.849 60.2161 11.849C59.357 11.849 58.7983 11.2373 58.7983 10.2509V9.61091C58.7983 8.62446 59.3676 8.0128 60.2267 8.0128ZM60.4459 8.65628C59.9227 8.65628 59.5974 9.0452 59.5974 9.72405V10.1342C59.5974 10.8166 59.9262 11.2055 60.4636 11.2055C60.994 11.2055 61.3405 10.8201 61.3405 10.1837V9.61798C61.3405 9.04167 60.9621 8.65628 60.4459 8.65628Z" fill="black"/>
<path d="M55.9831 11.8562C55.2583 11.8562 54.7598 11.4107 54.7598 10.7142C54.7598 10.053 55.2194 9.60751 56.0821 9.60751H57.0261V9.25748C57.0261 8.82966 56.7539 8.62813 56.3225 8.62813C55.8982 8.62813 55.7073 8.80492 55.6472 9.05241H54.9012C54.9472 8.4266 55.4174 8.00586 56.3473 8.00586C57.1463 8.00586 57.8075 8.33821 57.8075 9.26809V11.7996H57.0615V11.3152H57.0261C56.8599 11.6016 56.5346 11.8562 55.9831 11.8562ZM56.227 11.248C56.6725 11.248 57.0261 10.944 57.0261 10.5374V10.1343H56.2058C55.7497 10.1343 55.5482 10.3641 55.5482 10.6753C55.5482 11.0642 55.8735 11.248 56.227 11.248Z" fill="black"/>
<path d="M52.2922 7.99854C53.2681 7.99854 53.9504 8.63142 53.9504 9.6815V10.1659C53.9504 11.2513 53.2681 11.863 52.2922 11.863C51.3023 11.863 50.627 11.2584 50.627 10.1694V9.68504C50.627 8.66324 51.3129 7.99854 52.2922 7.99854ZM52.2958 8.63142C51.7371 8.63142 51.4189 9.09812 51.4189 9.72393V10.1411C51.4189 10.7669 51.7159 11.2301 52.2958 11.2301C52.8685 11.2301 53.162 10.7705 53.162 10.1411V9.72393C53.162 9.09812 52.8544 8.63142 52.2958 8.63142Z" fill="black"/>
<path d="M48.813 11.7995V6.71875H49.5979V11.7995H48.813Z" fill="black"/>
<path d="M44.4331 11.7996V8.06243H45.2039V8.7342H45.2428C45.3382 8.44074 45.6105 8.00586 46.3671 8.00586C47.1202 8.00586 47.6258 8.42307 47.6258 9.27516V11.7996H46.8409V9.50497C46.8409 8.93573 46.5439 8.6741 46.1019 8.6741C45.5221 8.6741 45.218 9.11959 45.218 9.72418V11.7996H44.4331Z" fill="black"/>
<path d="M43.6548 8.0625L42.6719 11.7997H41.8728L41.0915 9.04187H41.0702L40.303 11.7997H39.5004L38.4751 8.0625H39.3201L39.9212 10.9122H39.9565L40.7096 8.0625H41.4486L42.2229 10.9122H42.2582L42.8699 8.0625H43.6548Z" fill="black"/>
<path d="M36.2336 7.99854C37.2095 7.99854 37.8918 8.63142 37.8918 9.6815V10.1659C37.8918 11.2513 37.2095 11.863 36.2336 11.863C35.2437 11.863 34.5684 11.2584 34.5684 10.1694V9.68504C34.5684 8.66324 35.2543 7.99854 36.2336 7.99854ZM36.2372 8.63142C35.6785 8.63142 35.3603 9.09812 35.3603 9.72393V10.1411C35.3603 10.7669 35.6573 11.2301 36.2372 11.2301C36.8099 11.2301 37.1034 10.7705 37.1034 10.1411V9.72393C37.1034 9.09812 36.7958 8.63142 36.2372 8.63142Z" fill="black"/>
<path d="M29.8906 6.97363H31.5559C32.9949 6.97363 33.695 7.82926 33.695 9.38141C33.695 10.9336 32.9878 11.7998 31.5559 11.7998H29.8906V6.97363ZM30.6932 7.64894V11.1245H31.4675C32.4221 11.1245 32.8712 10.5482 32.8712 9.39201C32.8712 8.22879 32.4186 7.64894 31.4675 7.64894H30.6932Z" fill="black"/>
<path d="M85.3658 24.8002C83.3646 24.8002 82.0918 23.4779 82.0918 21.2646V20.5079C82.0918 18.4219 83.3363 17.0713 85.3021 17.0713C87.2962 17.0713 88.4983 18.4714 88.4983 20.5786V21.2928H83.6404V21.4696C83.6404 22.7283 84.3192 23.5627 85.387 23.5627C86.186 23.5627 86.7305 23.1667 86.9215 22.5233H88.4135C88.1872 23.7324 87.2114 24.8002 85.3658 24.8002ZM83.6404 20.1968H86.9639V20.1827C86.9639 19.122 86.3063 18.2876 85.3092 18.2876C84.298 18.2876 83.6404 19.122 83.6404 20.1827V20.1968Z" fill="black"/>
<path d="M77.6123 24.6727V17.1984H79.1821V18.1813H79.2387C79.4296 17.7146 79.9882 17.0923 81.0277 17.0923C81.2328 17.0923 81.4096 17.1064 81.5581 17.1347V18.5207C81.4237 18.4853 81.1479 18.4641 80.8863 18.4641C79.6276 18.4641 79.2033 19.242 79.2033 20.2461V24.6727H77.6123Z" fill="black"/>
<path d="M72.9697 17.0713C75.1194 17.0713 76.2861 18.5845 76.2861 20.6211V21.2221C76.2861 23.3294 75.1264 24.8002 72.9697 24.8002C70.813 24.8002 69.6392 23.3294 69.6392 21.2221V20.6211C69.6392 18.5916 70.8201 17.0713 72.9697 17.0713ZM72.9697 18.33C71.803 18.33 71.2231 19.2846 71.2231 20.6423V21.2151C71.2231 22.5515 71.7959 23.5344 72.9697 23.5344C74.1435 23.5344 74.7092 22.5586 74.7092 21.2151V20.6423C74.7092 19.2775 74.1365 18.33 72.9697 18.33Z" fill="black"/>
<path d="M65.7323 17.1982V15.3809H67.2739V17.1982H68.7305V18.4569H67.2739V22.4451C67.2739 23.2583 67.5779 23.4846 68.4194 23.4846C68.5538 23.4846 68.681 23.4846 68.773 23.4704V24.6725C68.6457 24.6937 68.3487 24.722 68.0305 24.722C66.2132 24.722 65.7111 24.0715 65.7111 22.5724V18.4569H64.6787V17.1982H65.7323Z" fill="black"/>
<path d="M56.479 21.9925H58.0488C58.1195 22.8269 58.8549 23.5411 60.2197 23.5411C61.4713 23.5411 62.2138 22.9542 62.2138 22.042C62.2138 21.3066 61.7188 20.9106 60.6864 20.6631L59.1024 20.2671C57.8579 19.9772 56.7406 19.2347 56.7406 17.6649C56.7406 15.8193 58.3529 14.8081 60.2268 14.8081C62.1006 14.8081 63.6634 15.8193 63.6987 17.6225H62.1572C62.0865 16.8022 61.4572 16.1234 60.2055 16.1234C59.1024 16.1234 58.3529 16.6466 58.3529 17.5447C58.3529 18.174 58.7913 18.6266 59.6893 18.8317L61.2662 19.2206C62.7158 19.5742 63.819 20.2601 63.819 21.9006C63.819 23.7957 62.2845 24.8635 60.0995 24.8635C57.4124 24.8635 56.5144 23.2937 56.479 21.9925Z" fill="black"/>
<path d="M50.3198 24.779C49.351 24.779 48.6156 24.3194 48.2196 23.6335H48.1631V27.155H46.5933V17.1986H48.1207V18.2947H48.1772C48.5874 17.5805 49.351 17.0996 50.3552 17.0996C52.031 17.0996 53.2261 18.3654 53.2261 20.5999V21.2646C53.2261 23.485 52.0452 24.779 50.3198 24.779ZM49.9592 23.485C50.9562 23.485 51.6351 22.6859 51.6351 21.1797V20.6565C51.6351 19.2069 50.9986 18.3795 49.9309 18.3795C48.8348 18.3795 48.1489 19.2705 48.1489 20.6494V21.1797C48.1489 22.594 48.8419 23.485 49.9592 23.485Z" fill="black"/>
<path d="M42.3398 24.779C41.3711 24.779 40.6357 24.3194 40.2397 23.6335H40.1831V27.155H38.6133V17.1986H40.1407V18.2947H40.1972C40.6074 17.5805 41.3711 17.0996 42.3752 17.0996C44.0511 17.0996 45.2461 18.3654 45.2461 20.5999V21.2646C45.2461 23.485 44.0652 24.779 42.3398 24.779ZM41.9792 23.485C42.9762 23.485 43.6551 22.6859 43.6551 21.1797V20.6565C43.6551 19.2069 43.0187 18.3795 41.9509 18.3795C40.8549 18.3795 40.169 19.2705 40.169 20.6494V21.1797C40.169 22.594 40.8619 23.485 41.9792 23.485Z" fill="black"/>
<path d="M31.0295 24.6728H29.396L32.7195 15.0205H34.5156L37.832 24.6728H36.1349L35.2793 21.9999H31.8921L31.0295 24.6728ZM33.6246 16.6893H33.561L32.2528 20.7695H34.9186L33.6246 16.6893Z" fill="black"/>
<defs>
<linearGradient id="paint0_linear_281_9996" x1="96.836" y1="16.2259" x2="0.290039" y2="16.2259" gradientUnits="userSpaceOnUse">
<stop stop-color="#6150F4"/>
<stop offset="1" stop-color="#FF906C"/>
</linearGradient>
</defs>
</svg>
