<svg width="801" height="800" viewBox="0 0 801 800" fill="none" xmlns="http://www.w3.org/2000/svg">
<rect x="0.90332" width="800" height="800" fill="white"/>
<path fill-rule="evenodd" clip-rule="evenodd" d="M390.44 654.481L400.904 660.548V660.492L411.368 654.481C546.508 576.335 630.498 430.842 630.498 274.774V253.735H609.626C539.829 253.735 471.313 235.367 411.368 200.636L400.904 194.569L390.44 200.636C330.495 235.367 261.978 253.735 192.182 253.735L171.31 253.902V274.774C171.31 430.786 255.299 576.28 390.44 654.481ZM240.31 418.874C224.972 379.691 215.769 337.904 213.555 294.978C279.233 291.75 343.408 273.883 400.904 242.658C458.4 273.883 522.575 291.75 588.253 294.978C586.038 337.889 576.834 379.679 561.494 418.871L484.782 342.289L400.903 426.056L317.025 342.289L240.31 418.874ZM258.837 459.382L317.025 401.288L400.903 485.055L484.782 401.288L542.969 459.381C510.435 521.17 461.774 574.331 400.904 612.068C340.032 574.3 291.371 521.157 258.837 459.382Z" fill="#6150F4"/>
</svg>
