<svg xmlns="http://www.w3.org/2000/svg" xmlns:xlink="http://www.w3.org/1999/xlink" width="200" zoomAndPan="magnify" viewBox="0 0 150 37.5" height="50" preserveAspectRatio="xMidYMid meet" version="1.0"><defs><g/><clipPath id="a119edc576"><path d="M 15 0.269531 L 29.191406 0.269531 L 29.191406 9 L 15 9 Z M 15 0.269531 " clip-rule="nonzero"/></clipPath><clipPath id="a1a93b62b4"><path d="M 2.066406 9 L 14 9 L 14 22 L 2.066406 22 Z M 2.066406 9 " clip-rule="nonzero"/></clipPath></defs><path fill="#262626" d="M 9.128906 15.015625 C 8.519531 15.363281 7.738281 15.152344 7.382812 14.546875 C 7.03125 13.941406 7.238281 13.167969 7.847656 12.820312 L 17.691406 7.203125 C 18.300781 6.855469 19.082031 7.0625 19.4375 7.667969 C 19.789062 8.277344 19.582031 9.050781 18.972656 9.398438 Z M 9.128906 15.015625 " fill-opacity="1" fill-rule="nonzero"/><path fill="#262626" d="M 22.910156 6.878906 C 22.910156 6.164062 23.492188 5.582031 24.210938 5.582031 C 24.929688 5.582031 25.511719 6.164062 25.511719 6.878906 L 25.511719 18.433594 C 25.511719 19.148438 24.929688 19.730469 24.210938 19.730469 C 23.492188 19.730469 22.910156 19.148438 22.910156 18.433594 Z M 22.910156 6.878906 " fill-opacity="1" fill-rule="nonzero"/><path fill="#262626" d="M 23.503906 22.644531 C 24.148438 23.011719 24.367188 23.820312 23.996094 24.457031 C 23.625 25.089844 22.804688 25.308594 22.164062 24.941406 L 11.824219 19.035156 C 11.183594 18.667969 10.960938 17.855469 11.332031 17.222656 C 11.703125 16.589844 12.523438 16.371094 13.164062 16.738281 Z M 23.503906 22.644531 " fill-opacity="1" fill-rule="nonzero"/><g clip-path="url(#a119edc576)"><path fill="#262626" d="M 15.699219 7.429688 L 23.417969 3.019531 C 24.441406 2.433594 25.746094 2.78125 26.335938 3.792969 C 26.765625 4.527344 26.699219 5.410156 26.238281 6.058594 C 26.25 6.144531 26.253906 6.230469 26.253906 6.316406 L 26.253906 8.976562 L 27.160156 8.460938 C 29.023438 7.394531 29.664062 5.03125 28.585938 3.183594 L 28.011719 2.199219 C 26.9375 0.351562 24.550781 -0.28125 22.683594 0.785156 L 17.628906 3.675781 C 16.25 4.460938 15.542969 5.957031 15.699219 7.429688 Z M 15.699219 7.429688 " fill-opacity="1" fill-rule="nonzero"/></g><path fill="#262626" d="M 21.984375 11.414062 C 20.617188 12.132812 19 11.96875 17.824219 11.101562 L 20.160156 9.765625 L 20.167969 9.761719 L 21.984375 8.722656 Z M 21.984375 11.414062 " fill-opacity="1" fill-rule="nonzero"/><path fill="#262626" d="M 21.984375 16.523438 C 20.753906 17.050781 19.847656 18.1875 19.660156 19.546875 L 21.984375 20.875 Z M 21.984375 16.523438 " fill-opacity="1" fill-rule="nonzero"/><path fill="#262626" d="M 15.472656 17.152344 C 15.640625 15.726562 14.992188 14.269531 13.707031 13.453125 L 11.355469 14.796875 L 13.125 15.8125 L 13.136719 15.816406 Z M 15.472656 17.152344 " fill-opacity="1" fill-rule="nonzero"/><g clip-path="url(#a1a93b62b4)"><path fill="#262626" d="M 9.441406 11.007812 L 6.902344 12.460938 C 6.085938 12.371094 5.257812 12.757812 4.820312 13.503906 C 4.230469 14.515625 4.582031 15.808594 5.601562 16.394531 L 13.320312 20.804688 C 12.113281 21.679688 10.449219 21.816406 9.070312 21.03125 L 4.015625 18.140625 C 2.152344 17.074219 1.511719 14.710938 2.589844 12.867188 L 3.164062 11.882812 C 4.242188 10.035156 6.625 9.402344 8.492188 10.46875 Z M 9.441406 11.007812 " fill-opacity="1" fill-rule="nonzero"/></g><path fill="#262626" d="M 19.625 24.410156 L 22.023438 25.78125 C 22.21875 26.75 23.082031 27.480469 24.117188 27.480469 C 25.296875 27.480469 26.253906 26.53125 26.253906 25.363281 L 26.253906 16.542969 C 27.621094 17.140625 28.574219 18.496094 28.574219 20.074219 L 28.574219 25.851562 C 28.574219 27.984375 26.828125 29.710938 24.675781 29.710938 L 23.527344 29.710938 C 21.371094 29.710938 19.625 27.984375 19.625 25.851562 Z M 19.625 24.410156 " fill-opacity="1" fill-rule="nonzero"/><g fill="#000000" fill-opacity="1"><g transform="translate(31.655618, 24.062691)"><g><path d="M 9.75 0.140625 C 8.132812 0.140625 6.675781 -0.210938 5.375 -0.921875 C 4.070312 -1.640625 3.050781 -2.632812 2.3125 -3.90625 C 1.582031 -5.175781 1.21875 -6.597656 1.21875 -8.171875 C 1.21875 -9.734375 1.582031 -11.148438 2.3125 -12.421875 C 3.050781 -13.691406 4.070312 -14.679688 5.375 -15.390625 C 6.6875 -16.109375 8.15625 -16.46875 9.78125 -16.46875 C 10.988281 -16.46875 12.101562 -16.265625 13.125 -15.859375 C 14.15625 -15.453125 15.03125 -14.863281 15.75 -14.09375 L 14.65625 -13 C 13.375 -14.289062 11.765625 -14.9375 9.828125 -14.9375 C 8.535156 -14.9375 7.359375 -14.640625 6.296875 -14.046875 C 5.242188 -13.453125 4.414062 -12.640625 3.8125 -11.609375 C 3.21875 -10.585938 2.921875 -9.441406 2.921875 -8.171875 C 2.921875 -6.890625 3.21875 -5.734375 3.8125 -4.703125 C 4.414062 -3.679688 5.242188 -2.875 6.296875 -2.28125 C 7.359375 -1.695312 8.535156 -1.40625 9.828125 -1.40625 C 11.785156 -1.40625 13.394531 -2.054688 14.65625 -3.359375 L 15.75 -2.265625 C 15.03125 -1.484375 14.15625 -0.882812 13.125 -0.46875 C 12.09375 -0.0625 10.96875 0.140625 9.75 0.140625 Z M 9.75 0.140625 "/></g></g></g><g fill="#000000" fill-opacity="1"><g transform="translate(46.653445, 24.062691)"><g><path d="M 8.5625 -12.359375 C 10.101562 -12.359375 11.328125 -11.910156 12.234375 -11.015625 C 13.140625 -10.128906 13.59375 -8.828125 13.59375 -7.109375 L 13.59375 0 L 11.9375 0 L 11.9375 -6.953125 C 11.9375 -8.222656 11.617188 -9.191406 10.984375 -9.859375 C 10.347656 -10.535156 9.441406 -10.875 8.265625 -10.875 C 6.941406 -10.875 5.894531 -10.476562 5.125 -9.6875 C 4.351562 -8.90625 3.96875 -7.820312 3.96875 -6.4375 L 3.96875 0 L 2.3125 0 L 2.3125 -17.3125 L 3.96875 -17.3125 L 3.96875 -10.125 C 4.414062 -10.84375 5.035156 -11.394531 5.828125 -11.78125 C 6.617188 -12.164062 7.53125 -12.359375 8.5625 -12.359375 Z M 8.5625 -12.359375 "/></g></g></g><g fill="#000000" fill-opacity="1"><g transform="translate(60.671592, 24.062691)"><g><path d="M 6.609375 -12.359375 C 8.203125 -12.359375 9.425781 -11.957031 10.28125 -11.15625 C 11.144531 -10.363281 11.578125 -9.179688 11.578125 -7.609375 L 11.578125 0 L 9.984375 0 L 9.984375 -1.90625 C 9.609375 -1.269531 9.054688 -0.773438 8.328125 -0.421875 C 7.609375 -0.0664062 6.753906 0.109375 5.765625 0.109375 C 4.390625 0.109375 3.296875 -0.210938 2.484375 -0.859375 C 1.679688 -1.515625 1.28125 -2.378906 1.28125 -3.453125 C 1.28125 -4.492188 1.65625 -5.332031 2.40625 -5.96875 C 3.164062 -6.601562 4.367188 -6.921875 6.015625 -6.921875 L 9.921875 -6.921875 L 9.921875 -7.671875 C 9.921875 -8.734375 9.625 -9.539062 9.03125 -10.09375 C 8.4375 -10.644531 7.570312 -10.921875 6.4375 -10.921875 C 5.65625 -10.921875 4.90625 -10.789062 4.1875 -10.53125 C 3.476562 -10.269531 2.867188 -9.914062 2.359375 -9.46875 L 1.609375 -10.703125 C 2.234375 -11.234375 2.976562 -11.640625 3.84375 -11.921875 C 4.71875 -12.210938 5.640625 -12.359375 6.609375 -12.359375 Z M 6.015625 -1.1875 C 6.953125 -1.1875 7.753906 -1.398438 8.421875 -1.828125 C 9.085938 -2.253906 9.585938 -2.875 9.921875 -3.6875 L 9.921875 -5.6875 L 6.0625 -5.6875 C 3.96875 -5.6875 2.921875 -4.957031 2.921875 -3.5 C 2.921875 -2.78125 3.191406 -2.210938 3.734375 -1.796875 C 4.273438 -1.390625 5.035156 -1.1875 6.015625 -1.1875 Z M 6.015625 -1.1875 "/></g></g></g><g fill="#000000" fill-opacity="1"><g transform="translate(72.660382, 24.062691)"><g><path d="M 2.3125 -12.265625 L 3.96875 -12.265625 L 3.96875 0 L 2.3125 0 Z M 3.140625 -14.953125 C 2.796875 -14.953125 2.503906 -15.066406 2.265625 -15.296875 C 2.035156 -15.535156 1.921875 -15.816406 1.921875 -16.140625 C 1.921875 -16.453125 2.035156 -16.722656 2.265625 -16.953125 C 2.503906 -17.191406 2.796875 -17.3125 3.140625 -17.3125 C 3.484375 -17.3125 3.769531 -17.195312 4 -16.96875 C 4.238281 -16.75 4.359375 -16.484375 4.359375 -16.171875 C 4.359375 -15.828125 4.238281 -15.535156 4 -15.296875 C 3.769531 -15.066406 3.484375 -14.953125 3.140625 -14.953125 Z M 3.140625 -14.953125 "/></g></g></g><g fill="#000000" fill-opacity="1"><g transform="translate(77.16157, 24.062691)"><g><path d="M 8.5625 -12.359375 C 10.101562 -12.359375 11.328125 -11.910156 12.234375 -11.015625 C 13.140625 -10.128906 13.59375 -8.828125 13.59375 -7.109375 L 13.59375 0 L 11.9375 0 L 11.9375 -6.953125 C 11.9375 -8.222656 11.617188 -9.191406 10.984375 -9.859375 C 10.347656 -10.535156 9.441406 -10.875 8.265625 -10.875 C 6.941406 -10.875 5.894531 -10.476562 5.125 -9.6875 C 4.351562 -8.90625 3.96875 -7.820312 3.96875 -6.4375 L 3.96875 0 L 2.3125 0 L 2.3125 -12.265625 L 3.890625 -12.265625 L 3.890625 -10 C 4.347656 -10.75 4.972656 -11.328125 5.765625 -11.734375 C 6.566406 -12.148438 7.5 -12.359375 8.5625 -12.359375 Z M 8.5625 -12.359375 "/></g></g></g><g fill="#000000" fill-opacity="1"><g transform="translate(91.179713, 24.062691)"><g/></g></g><g fill="#000000" fill-opacity="1"><g transform="translate(95.517623, 24.062691)"><g><path d="M 16.3125 -16.328125 L 16.3125 0 L 14.609375 0 L 14.609375 -7.53125 L 4.390625 -7.53125 L 4.390625 0 L 2.65625 0 L 2.65625 -16.328125 L 4.390625 -16.328125 L 4.390625 -9.046875 L 14.609375 -9.046875 L 14.609375 -16.328125 Z M 16.3125 -16.328125 "/></g></g></g><g fill="#000000" fill-opacity="1"><g transform="translate(112.708076, 24.062691)"><g><path d="M 13.359375 -12.265625 L 13.359375 0 L 11.78125 0 L 11.78125 -2.234375 C 11.34375 -1.492188 10.742188 -0.914062 9.984375 -0.5 C 9.222656 -0.09375 8.351562 0.109375 7.375 0.109375 C 5.769531 0.109375 4.503906 -0.332031 3.578125 -1.21875 C 2.648438 -2.113281 2.1875 -3.425781 2.1875 -5.15625 L 2.1875 -12.265625 L 3.84375 -12.265625 L 3.84375 -5.3125 C 3.84375 -4.019531 4.160156 -3.039062 4.796875 -2.375 C 5.441406 -1.707031 6.351562 -1.375 7.53125 -1.375 C 8.820312 -1.375 9.835938 -1.765625 10.578125 -2.546875 C 11.328125 -3.335938 11.703125 -4.429688 11.703125 -5.828125 L 11.703125 -12.265625 Z M 13.359375 -12.265625 "/></g></g></g><g fill="#000000" fill-opacity="1"><g transform="translate(126.632912, 24.062691)"><g><path d="M 8.625 -12.359375 C 9.78125 -12.359375 10.820312 -12.097656 11.75 -11.578125 C 12.6875 -11.054688 13.421875 -10.320312 13.953125 -9.375 C 14.484375 -8.425781 14.75 -7.347656 14.75 -6.140625 C 14.75 -4.921875 14.484375 -3.835938 13.953125 -2.890625 C 13.421875 -1.941406 12.6875 -1.203125 11.75 -0.671875 C 10.820312 -0.148438 9.78125 0.109375 8.625 0.109375 C 7.601562 0.109375 6.679688 -0.101562 5.859375 -0.53125 C 5.046875 -0.96875 4.390625 -1.597656 3.890625 -2.421875 L 3.890625 0 L 2.3125 0 L 2.3125 -17.3125 L 3.96875 -17.3125 L 3.96875 -9.9375 C 4.476562 -10.726562 5.132812 -11.328125 5.9375 -11.734375 C 6.738281 -12.148438 7.632812 -12.359375 8.625 -12.359375 Z M 8.515625 -1.359375 C 9.367188 -1.359375 10.144531 -1.554688 10.84375 -1.953125 C 11.539062 -2.347656 12.085938 -2.910156 12.484375 -3.640625 C 12.890625 -4.367188 13.09375 -5.203125 13.09375 -6.140625 C 13.09375 -7.066406 12.890625 -7.894531 12.484375 -8.625 C 12.085938 -9.363281 11.539062 -9.929688 10.84375 -10.328125 C 10.144531 -10.722656 9.367188 -10.921875 8.515625 -10.921875 C 7.640625 -10.921875 6.851562 -10.722656 6.15625 -10.328125 C 5.46875 -9.929688 4.925781 -9.363281 4.53125 -8.625 C 4.132812 -7.894531 3.9375 -7.066406 3.9375 -6.140625 C 3.9375 -5.203125 4.132812 -4.367188 4.53125 -3.640625 C 4.925781 -2.910156 5.46875 -2.347656 6.15625 -1.953125 C 6.851562 -1.554688 7.640625 -1.359375 8.515625 -1.359375 Z M 8.515625 -1.359375 "/></g></g></g><g fill="#000000" fill-opacity="1"><g transform="translate(140.683235, 24.062691)"><g/></g></g><g fill="#ff914d" fill-opacity="1"><g transform="translate(36.279458, 34.899661)"><g><path d="M 1.453125 -3.703125 L 0.015625 -3.703125 L 0.015625 -4.078125 L 3.328125 -4.078125 L 3.328125 -3.703125 L 1.890625 -3.703125 L 1.890625 0 L 1.453125 0 Z M 1.453125 -3.703125 "/></g></g></g><g fill="#ff914d" fill-opacity="1"><g transform="translate(39.628515, 34.899661)"><g><path d="M 4.078125 -4.078125 L 4.078125 0 L 3.640625 0 L 3.640625 -1.875 L 1.09375 -1.875 L 1.09375 0 L 0.671875 0 L 0.671875 -4.078125 L 1.09375 -4.078125 L 1.09375 -2.265625 L 3.640625 -2.265625 L 3.640625 -4.078125 Z M 4.078125 -4.078125 "/></g></g></g><g fill="#ff914d" fill-opacity="1"><g transform="translate(44.372044, 34.899661)"><g><path d="M 3.546875 -0.375 L 3.546875 0 L 0.671875 0 L 0.671875 -4.078125 L 3.46875 -4.078125 L 3.46875 -3.703125 L 1.09375 -3.703125 L 1.09375 -2.25 L 3.203125 -2.25 L 3.203125 -1.890625 L 1.09375 -1.890625 L 1.09375 -0.375 Z M 3.546875 -0.375 "/></g></g></g><g fill="#ff914d" fill-opacity="1"><g transform="translate(48.27539, 34.899661)"><g/></g></g><g fill="#ff914d" fill-opacity="1"><g transform="translate(49.804057, 34.899661)"><g><path d="M 6.265625 -4.078125 L 4.890625 0 L 4.4375 0 L 3.234375 -3.484375 L 2.046875 0 L 1.59375 0 L 0.21875 -4.078125 L 0.65625 -4.078125 L 1.828125 -0.578125 L 3.046875 -4.078125 L 3.453125 -4.078125 L 4.65625 -0.546875 L 5.84375 -4.078125 Z M 6.265625 -4.078125 "/></g></g></g><g fill="#ff914d" fill-opacity="1"><g transform="translate(56.286292, 34.899661)"><g><path d="M 3.546875 -0.375 L 3.546875 0 L 0.671875 0 L 0.671875 -4.078125 L 3.46875 -4.078125 L 3.46875 -3.703125 L 1.09375 -3.703125 L 1.09375 -2.25 L 3.203125 -2.25 L 3.203125 -1.890625 L 1.09375 -1.890625 L 1.09375 -0.375 Z M 3.546875 -0.375 "/></g></g></g><g fill="#ff914d" fill-opacity="1"><g transform="translate(60.189638, 34.899661)"><g><path d="M 3.234375 -2.109375 C 3.503906 -2.046875 3.710938 -1.925781 3.859375 -1.75 C 4.003906 -1.582031 4.078125 -1.363281 4.078125 -1.09375 C 4.078125 -0.738281 3.945312 -0.46875 3.6875 -0.28125 C 3.425781 -0.09375 3.046875 0 2.546875 0 L 0.671875 0 L 0.671875 -4.078125 L 2.421875 -4.078125 C 2.878906 -4.078125 3.234375 -3.984375 3.484375 -3.796875 C 3.734375 -3.617188 3.859375 -3.363281 3.859375 -3.03125 C 3.859375 -2.800781 3.800781 -2.609375 3.6875 -2.453125 C 3.582031 -2.296875 3.429688 -2.179688 3.234375 -2.109375 Z M 1.09375 -3.71875 L 1.09375 -2.25 L 2.390625 -2.25 C 2.722656 -2.25 2.976562 -2.3125 3.15625 -2.4375 C 3.332031 -2.5625 3.421875 -2.742188 3.421875 -2.984375 C 3.421875 -3.222656 3.332031 -3.40625 3.15625 -3.53125 C 2.976562 -3.65625 2.722656 -3.71875 2.390625 -3.71875 Z M 2.53125 -0.359375 C 2.894531 -0.359375 3.171875 -0.421875 3.359375 -0.546875 C 3.546875 -0.671875 3.640625 -0.863281 3.640625 -1.125 C 3.640625 -1.632812 3.269531 -1.890625 2.53125 -1.890625 L 1.09375 -1.890625 L 1.09375 -0.359375 Z M 2.53125 -0.359375 "/></g></g></g><g fill="#ff914d" fill-opacity="1"><g transform="translate(64.588924, 34.899661)"><g><path d="M 1.6875 -2.328125 C 2.113281 -2.304688 2.4375 -2.191406 2.65625 -1.984375 C 2.882812 -1.773438 3 -1.503906 3 -1.171875 C 3 -0.941406 2.941406 -0.734375 2.828125 -0.546875 C 2.710938 -0.367188 2.546875 -0.226562 2.328125 -0.125 C 2.109375 -0.0195312 1.835938 0.03125 1.515625 0.03125 C 1.222656 0.03125 0.945312 -0.015625 0.6875 -0.109375 C 0.425781 -0.203125 0.210938 -0.328125 0.046875 -0.484375 L 0.25 -0.828125 C 0.382812 -0.679688 0.566406 -0.5625 0.796875 -0.46875 C 1.023438 -0.382812 1.265625 -0.34375 1.515625 -0.34375 C 1.847656 -0.34375 2.101562 -0.414062 2.28125 -0.5625 C 2.46875 -0.707031 2.5625 -0.910156 2.5625 -1.171875 C 2.5625 -1.421875 2.46875 -1.617188 2.28125 -1.765625 C 2.101562 -1.910156 1.832031 -1.984375 1.46875 -1.984375 L 1.171875 -1.984375 L 1.171875 -2.296875 L 2.3125 -3.703125 L 0.21875 -3.703125 L 0.21875 -4.078125 L 2.84375 -4.078125 L 2.84375 -3.78125 Z M 1.6875 -2.328125 "/></g></g></g><g fill="#ff914d" fill-opacity="1"><g transform="translate(67.879638, 34.899661)"><g/></g></g><g fill="#ff914d" fill-opacity="1"><g transform="translate(69.408305, 34.899661)"><g><path d="M 0.671875 -4.078125 L 1.09375 -4.078125 L 1.09375 0 L 0.671875 0 Z M 0.671875 -4.078125 "/></g></g></g><g fill="#ff914d" fill-opacity="1"><g transform="translate(71.170351, 34.899661)"><g><path d="M 4.078125 -4.078125 L 4.078125 0 L 3.71875 0 L 1.09375 -3.3125 L 1.09375 0 L 0.671875 0 L 0.671875 -4.078125 L 1.015625 -4.078125 L 3.640625 -0.765625 L 3.640625 -4.078125 Z M 4.078125 -4.078125 "/></g></g></g><g fill="#ff914d" fill-opacity="1"><g transform="translate(75.91388, 34.899661)"><g><path d="M 2.4375 0.03125 C 2.03125 0.03125 1.664062 -0.0546875 1.34375 -0.234375 C 1.019531 -0.410156 0.765625 -0.65625 0.578125 -0.96875 C 0.390625 -1.289062 0.296875 -1.648438 0.296875 -2.046875 C 0.296875 -2.429688 0.390625 -2.78125 0.578125 -3.09375 C 0.765625 -3.414062 1.019531 -3.664062 1.34375 -3.84375 C 1.664062 -4.019531 2.03125 -4.109375 2.4375 -4.109375 C 2.738281 -4.109375 3.019531 -4.054688 3.28125 -3.953125 C 3.539062 -3.859375 3.757812 -3.710938 3.9375 -3.515625 L 3.65625 -3.25 C 3.34375 -3.570312 2.941406 -3.734375 2.453125 -3.734375 C 2.128906 -3.734375 1.832031 -3.65625 1.5625 -3.5 C 1.300781 -3.351562 1.097656 -3.148438 0.953125 -2.890625 C 0.804688 -2.640625 0.734375 -2.359375 0.734375 -2.046875 C 0.734375 -1.722656 0.804688 -1.429688 0.953125 -1.171875 C 1.097656 -0.921875 1.300781 -0.71875 1.5625 -0.5625 C 1.832031 -0.414062 2.128906 -0.34375 2.453125 -0.34375 C 2.941406 -0.34375 3.34375 -0.507812 3.65625 -0.84375 L 3.9375 -0.5625 C 3.757812 -0.375 3.539062 -0.226562 3.28125 -0.125 C 3.019531 -0.0195312 2.738281 0.03125 2.4375 0.03125 Z M 2.4375 0.03125 "/></g></g></g><g fill="#ff914d" fill-opacity="1"><g transform="translate(80.108957, 34.899661)"><g><path d="M 2.3125 0.03125 C 1.78125 0.03125 1.363281 -0.117188 1.0625 -0.421875 C 0.769531 -0.722656 0.625 -1.164062 0.625 -1.75 L 0.625 -4.078125 L 1.0625 -4.078125 L 1.0625 -1.765625 C 1.0625 -1.285156 1.164062 -0.925781 1.375 -0.6875 C 1.59375 -0.457031 1.90625 -0.34375 2.3125 -0.34375 C 2.71875 -0.34375 3.023438 -0.457031 3.234375 -0.6875 C 3.453125 -0.925781 3.5625 -1.285156 3.5625 -1.765625 L 3.5625 -4.078125 L 3.984375 -4.078125 L 3.984375 -1.75 C 3.984375 -1.164062 3.832031 -0.722656 3.53125 -0.421875 C 3.238281 -0.117188 2.832031 0.03125 2.3125 0.03125 Z M 2.3125 0.03125 "/></g></g></g><g fill="#ff914d" fill-opacity="1"><g transform="translate(84.72996, 34.899661)"><g><path d="M 3.234375 -2.109375 C 3.503906 -2.046875 3.710938 -1.925781 3.859375 -1.75 C 4.003906 -1.582031 4.078125 -1.363281 4.078125 -1.09375 C 4.078125 -0.738281 3.945312 -0.46875 3.6875 -0.28125 C 3.425781 -0.09375 3.046875 0 2.546875 0 L 0.671875 0 L 0.671875 -4.078125 L 2.421875 -4.078125 C 2.878906 -4.078125 3.234375 -3.984375 3.484375 -3.796875 C 3.734375 -3.617188 3.859375 -3.363281 3.859375 -3.03125 C 3.859375 -2.800781 3.800781 -2.609375 3.6875 -2.453125 C 3.582031 -2.296875 3.429688 -2.179688 3.234375 -2.109375 Z M 1.09375 -3.71875 L 1.09375 -2.25 L 2.390625 -2.25 C 2.722656 -2.25 2.976562 -2.3125 3.15625 -2.4375 C 3.332031 -2.5625 3.421875 -2.742188 3.421875 -2.984375 C 3.421875 -3.222656 3.332031 -3.40625 3.15625 -3.53125 C 2.976562 -3.65625 2.722656 -3.71875 2.390625 -3.71875 Z M 2.53125 -0.359375 C 2.894531 -0.359375 3.171875 -0.421875 3.359375 -0.546875 C 3.546875 -0.671875 3.640625 -0.863281 3.640625 -1.125 C 3.640625 -1.632812 3.269531 -1.890625 2.53125 -1.890625 L 1.09375 -1.890625 L 1.09375 -0.359375 Z M 2.53125 -0.359375 "/></g></g></g><g fill="#ff914d" fill-opacity="1"><g transform="translate(89.129246, 34.899661)"><g><path d="M 3.21875 -1.09375 L 0.953125 -1.09375 L 0.453125 0 L 0.015625 0 L 1.875 -4.078125 L 2.296875 -4.078125 L 4.171875 0 L 3.71875 0 Z M 3.0625 -1.4375 L 2.09375 -3.625 L 1.109375 -1.4375 Z M 3.0625 -1.4375 "/></g></g></g><g fill="#ff914d" fill-opacity="1"><g transform="translate(93.312653, 34.899661)"><g><path d="M 1.453125 -3.703125 L 0.015625 -3.703125 L 0.015625 -4.078125 L 3.328125 -4.078125 L 3.328125 -3.703125 L 1.890625 -3.703125 L 1.890625 0 L 1.453125 0 Z M 1.453125 -3.703125 "/></g></g></g><g fill="#ff914d" fill-opacity="1"><g transform="translate(96.66171, 34.899661)"><g><path d="M 2.453125 0.03125 C 2.046875 0.03125 1.675781 -0.0546875 1.34375 -0.234375 C 1.019531 -0.410156 0.765625 -0.65625 0.578125 -0.96875 C 0.390625 -1.289062 0.296875 -1.648438 0.296875 -2.046875 C 0.296875 -2.429688 0.390625 -2.78125 0.578125 -3.09375 C 0.765625 -3.414062 1.019531 -3.664062 1.34375 -3.84375 C 1.675781 -4.019531 2.046875 -4.109375 2.453125 -4.109375 C 2.847656 -4.109375 3.207031 -4.019531 3.53125 -3.84375 C 3.863281 -3.664062 4.125 -3.414062 4.3125 -3.09375 C 4.5 -2.78125 4.59375 -2.429688 4.59375 -2.046875 C 4.59375 -1.648438 4.5 -1.289062 4.3125 -0.96875 C 4.125 -0.65625 3.863281 -0.410156 3.53125 -0.234375 C 3.207031 -0.0546875 2.847656 0.03125 2.453125 0.03125 Z M 2.453125 -0.34375 C 2.773438 -0.34375 3.066406 -0.414062 3.328125 -0.5625 C 3.585938 -0.707031 3.789062 -0.910156 3.9375 -1.171875 C 4.082031 -1.429688 4.15625 -1.722656 4.15625 -2.046875 C 4.15625 -2.359375 4.082031 -2.644531 3.9375 -2.90625 C 3.789062 -3.164062 3.585938 -3.367188 3.328125 -3.515625 C 3.066406 -3.660156 2.773438 -3.734375 2.453125 -3.734375 C 2.128906 -3.734375 1.832031 -3.660156 1.5625 -3.515625 C 1.300781 -3.367188 1.097656 -3.164062 0.953125 -2.90625 C 0.804688 -2.644531 0.734375 -2.359375 0.734375 -2.046875 C 0.734375 -1.722656 0.804688 -1.429688 0.953125 -1.171875 C 1.097656 -0.910156 1.300781 -0.707031 1.5625 -0.5625 C 1.832031 -0.414062 2.128906 -0.34375 2.453125 -0.34375 Z M 2.453125 -0.34375 "/></g></g></g><g fill="#ff914d" fill-opacity="1"><g transform="translate(101.556935, 34.899661)"><g><path d="M 3.453125 0 L 2.515625 -1.3125 C 2.410156 -1.300781 2.300781 -1.296875 2.1875 -1.296875 L 1.09375 -1.296875 L 1.09375 0 L 0.671875 0 L 0.671875 -4.078125 L 2.1875 -4.078125 C 2.707031 -4.078125 3.113281 -3.953125 3.40625 -3.703125 C 3.707031 -3.453125 3.859375 -3.113281 3.859375 -2.6875 C 3.859375 -2.363281 3.773438 -2.09375 3.609375 -1.875 C 3.453125 -1.65625 3.222656 -1.5 2.921875 -1.40625 L 3.921875 0 Z M 2.1875 -1.65625 C 2.582031 -1.65625 2.882812 -1.742188 3.09375 -1.921875 C 3.3125 -2.109375 3.421875 -2.363281 3.421875 -2.6875 C 3.421875 -3.007812 3.3125 -3.257812 3.09375 -3.4375 C 2.882812 -3.613281 2.582031 -3.703125 2.1875 -3.703125 L 1.09375 -3.703125 L 1.09375 -1.65625 Z M 2.1875 -1.65625 "/></g></g></g><g fill="#ff914d" fill-opacity="1"><g transform="translate(105.775345, 34.899661)"><g/></g></g><g fill="#ff914d" fill-opacity="1"><g transform="translate(107.304012, 34.899661)"><g><path d="M 1.09375 -3.703125 L 1.09375 -2.109375 L 3.203125 -2.109375 L 3.203125 -1.734375 L 1.09375 -1.734375 L 1.09375 0 L 0.671875 0 L 0.671875 -4.078125 L 3.46875 -4.078125 L 3.46875 -3.703125 Z M 1.09375 -3.703125 "/></g></g></g><g fill="#ff914d" fill-opacity="1"><g transform="translate(110.997311, 34.899661)"><g><path d="M 2.453125 0.03125 C 2.046875 0.03125 1.675781 -0.0546875 1.34375 -0.234375 C 1.019531 -0.410156 0.765625 -0.65625 0.578125 -0.96875 C 0.390625 -1.289062 0.296875 -1.648438 0.296875 -2.046875 C 0.296875 -2.429688 0.390625 -2.78125 0.578125 -3.09375 C 0.765625 -3.414062 1.019531 -3.664062 1.34375 -3.84375 C 1.675781 -4.019531 2.046875 -4.109375 2.453125 -4.109375 C 2.847656 -4.109375 3.207031 -4.019531 3.53125 -3.84375 C 3.863281 -3.664062 4.125 -3.414062 4.3125 -3.09375 C 4.5 -2.78125 4.59375 -2.429688 4.59375 -2.046875 C 4.59375 -1.648438 4.5 -1.289062 4.3125 -0.96875 C 4.125 -0.65625 3.863281 -0.410156 3.53125 -0.234375 C 3.207031 -0.0546875 2.847656 0.03125 2.453125 0.03125 Z M 2.453125 -0.34375 C 2.773438 -0.34375 3.066406 -0.414062 3.328125 -0.5625 C 3.585938 -0.707031 3.789062 -0.910156 3.9375 -1.171875 C 4.082031 -1.429688 4.15625 -1.722656 4.15625 -2.046875 C 4.15625 -2.359375 4.082031 -2.644531 3.9375 -2.90625 C 3.789062 -3.164062 3.585938 -3.367188 3.328125 -3.515625 C 3.066406 -3.660156 2.773438 -3.734375 2.453125 -3.734375 C 2.128906 -3.734375 1.832031 -3.660156 1.5625 -3.515625 C 1.300781 -3.367188 1.097656 -3.164062 0.953125 -2.90625 C 0.804688 -2.644531 0.734375 -2.359375 0.734375 -2.046875 C 0.734375 -1.722656 0.804688 -1.429688 0.953125 -1.171875 C 1.097656 -0.910156 1.300781 -0.707031 1.5625 -0.5625 C 1.832031 -0.414062 2.128906 -0.34375 2.453125 -0.34375 Z M 2.453125 -0.34375 "/></g></g></g><g fill="#ff914d" fill-opacity="1"><g transform="translate(115.892536, 34.899661)"><g><path d="M 2.3125 0.03125 C 1.78125 0.03125 1.363281 -0.117188 1.0625 -0.421875 C 0.769531 -0.722656 0.625 -1.164062 0.625 -1.75 L 0.625 -4.078125 L 1.0625 -4.078125 L 1.0625 -1.765625 C 1.0625 -1.285156 1.164062 -0.925781 1.375 -0.6875 C 1.59375 -0.457031 1.90625 -0.34375 2.3125 -0.34375 C 2.71875 -0.34375 3.023438 -0.457031 3.234375 -0.6875 C 3.453125 -0.925781 3.5625 -1.285156 3.5625 -1.765625 L 3.5625 -4.078125 L 3.984375 -4.078125 L 3.984375 -1.75 C 3.984375 -1.164062 3.832031 -0.722656 3.53125 -0.421875 C 3.238281 -0.117188 2.832031 0.03125 2.3125 0.03125 Z M 2.3125 0.03125 "/></g></g></g><g fill="#ff914d" fill-opacity="1"><g transform="translate(120.513539, 34.899661)"><g><path d="M 4.078125 -4.078125 L 4.078125 0 L 3.71875 0 L 1.09375 -3.3125 L 1.09375 0 L 0.671875 0 L 0.671875 -4.078125 L 1.015625 -4.078125 L 3.640625 -0.765625 L 3.640625 -4.078125 Z M 4.078125 -4.078125 "/></g></g></g><g fill="#ff914d" fill-opacity="1"><g transform="translate(125.257068, 34.899661)"><g><path d="M 0.671875 -4.078125 L 2.328125 -4.078125 C 2.753906 -4.078125 3.132812 -3.988281 3.46875 -3.8125 C 3.800781 -3.644531 4.054688 -3.40625 4.234375 -3.09375 C 4.421875 -2.789062 4.515625 -2.441406 4.515625 -2.046875 C 4.515625 -1.648438 4.421875 -1.296875 4.234375 -0.984375 C 4.054688 -0.671875 3.800781 -0.425781 3.46875 -0.25 C 3.132812 -0.0820312 2.753906 0 2.328125 0 L 0.671875 0 Z M 2.296875 -0.375 C 2.660156 -0.375 2.972656 -0.441406 3.234375 -0.578125 C 3.503906 -0.722656 3.710938 -0.921875 3.859375 -1.171875 C 4.003906 -1.421875 4.078125 -1.710938 4.078125 -2.046875 C 4.078125 -2.367188 4.003906 -2.65625 3.859375 -2.90625 C 3.710938 -3.15625 3.503906 -3.347656 3.234375 -3.484375 C 2.972656 -3.628906 2.660156 -3.703125 2.296875 -3.703125 L 1.09375 -3.703125 L 1.09375 -0.375 Z M 2.296875 -0.375 "/></g></g></g><g fill="#ff914d" fill-opacity="1"><g transform="translate(130.076441, 34.899661)"><g><path d="M 3.21875 -1.09375 L 0.953125 -1.09375 L 0.453125 0 L 0.015625 0 L 1.875 -4.078125 L 2.296875 -4.078125 L 4.171875 0 L 3.71875 0 Z M 3.0625 -1.4375 L 2.09375 -3.625 L 1.109375 -1.4375 Z M 3.0625 -1.4375 "/></g></g></g><g fill="#ff914d" fill-opacity="1"><g transform="translate(134.259848, 34.899661)"><g><path d="M 1.453125 -3.703125 L 0.015625 -3.703125 L 0.015625 -4.078125 L 3.328125 -4.078125 L 3.328125 -3.703125 L 1.890625 -3.703125 L 1.890625 0 L 1.453125 0 Z M 1.453125 -3.703125 "/></g></g></g><g fill="#ff914d" fill-opacity="1"><g transform="translate(137.608905, 34.899661)"><g><path d="M 0.671875 -4.078125 L 1.09375 -4.078125 L 1.09375 0 L 0.671875 0 Z M 0.671875 -4.078125 "/></g></g></g><g fill="#ff914d" fill-opacity="1"><g transform="translate(139.370952, 34.899661)"><g><path d="M 2.453125 0.03125 C 2.046875 0.03125 1.675781 -0.0546875 1.34375 -0.234375 C 1.019531 -0.410156 0.765625 -0.65625 0.578125 -0.96875 C 0.390625 -1.289062 0.296875 -1.648438 0.296875 -2.046875 C 0.296875 -2.429688 0.390625 -2.78125 0.578125 -3.09375 C 0.765625 -3.414062 1.019531 -3.664062 1.34375 -3.84375 C 1.675781 -4.019531 2.046875 -4.109375 2.453125 -4.109375 C 2.847656 -4.109375 3.207031 -4.019531 3.53125 -3.84375 C 3.863281 -3.664062 4.125 -3.414062 4.3125 -3.09375 C 4.5 -2.78125 4.59375 -2.429688 4.59375 -2.046875 C 4.59375 -1.648438 4.5 -1.289062 4.3125 -0.96875 C 4.125 -0.65625 3.863281 -0.410156 3.53125 -0.234375 C 3.207031 -0.0546875 2.847656 0.03125 2.453125 0.03125 Z M 2.453125 -0.34375 C 2.773438 -0.34375 3.066406 -0.414062 3.328125 -0.5625 C 3.585938 -0.707031 3.789062 -0.910156 3.9375 -1.171875 C 4.082031 -1.429688 4.15625 -1.722656 4.15625 -2.046875 C 4.15625 -2.359375 4.082031 -2.644531 3.9375 -2.90625 C 3.789062 -3.164062 3.585938 -3.367188 3.328125 -3.515625 C 3.066406 -3.660156 2.773438 -3.734375 2.453125 -3.734375 C 2.128906 -3.734375 1.832031 -3.660156 1.5625 -3.515625 C 1.300781 -3.367188 1.097656 -3.164062 0.953125 -2.90625 C 0.804688 -2.644531 0.734375 -2.359375 0.734375 -2.046875 C 0.734375 -1.722656 0.804688 -1.429688 0.953125 -1.171875 C 1.097656 -0.910156 1.300781 -0.707031 1.5625 -0.5625 C 1.832031 -0.414062 2.128906 -0.34375 2.453125 -0.34375 Z M 2.453125 -0.34375 "/></g></g></g><g fill="#ff914d" fill-opacity="1"><g transform="translate(144.266177, 34.899661)"><g><path d="M 4.078125 -4.078125 L 4.078125 0 L 3.71875 0 L 1.09375 -3.3125 L 1.09375 0 L 0.671875 0 L 0.671875 -4.078125 L 1.015625 -4.078125 L 3.640625 -0.765625 L 3.640625 -4.078125 Z M 4.078125 -4.078125 "/></g></g></g></svg>