<svg width="1390" height="2880" viewBox="0 0 1390 2880" fill="none" xmlns="http://www.w3.org/2000/svg">
<g clip-path="url(#clip0_2001_4359)">
<path d="M-11.03 62.4278L-11.0326 62.4263C-66.2281 30.4786 -100.536 -28.9691 -100.536 -92.7014V-97.9231L-95.3305 -97.9647C-65.6582 -97.9672 -36.5258 -105.778 -11.0309 -120.553L-11.03 -120.554L-8.42851 -122.063L-5.82698 -120.554L-5.82607 -120.553C19.6728 -105.776 48.8104 -97.9647 78.4875 -97.9647H83.6791V-92.7014C83.6791 -28.9471 49.3726 30.4985 -5.81925 62.4233C-5.82067 62.4241 -5.82208 62.4249 -5.8235 62.4258L-8.44054 63.9295L-11.03 62.4278Z" stroke="#6150F4" stroke-width="7"/>
<path d="M-11.03 296.042L-11.0326 296.041C-66.2281 264.093 -100.536 204.645 -100.536 140.913V135.691L-95.3305 135.65C-65.6582 135.647 -36.5258 127.836 -11.0309 113.061L-11.03 113.06L-8.42851 111.552L-5.82698 113.06L-5.82607 113.061C19.6728 127.838 48.8104 135.65 78.4875 135.65H83.6791V140.913C83.6791 204.667 49.3726 264.113 -5.81925 296.038C-5.82067 296.038 -5.82208 296.039 -5.8235 296.04L-8.44054 297.544L-11.03 296.042Z" stroke="#6150F4" stroke-width="7"/>
<path d="M-11.03 529.656L-11.0326 529.655C-66.2281 497.707 -100.536 438.259 -100.536 374.527V369.305L-95.3305 369.264C-65.6582 369.261 -36.5258 361.45 -11.0309 346.675L-11.03 346.675L-8.42851 345.166L-5.82698 346.675L-5.82607 346.675C19.6728 361.452 48.8104 369.264 78.4875 369.264H83.6791V374.527C83.6791 438.281 49.3726 497.727 -5.81925 529.652C-5.82067 529.653 -5.82208 529.653 -5.8235 529.654L-8.44054 531.158L-11.03 529.656Z" stroke="#6150F4" stroke-width="7"/>
<path d="M-11.03 763.271L-11.0326 763.269C-66.2281 731.321 -100.536 671.874 -100.536 608.141V602.92L-95.3305 602.878C-65.6582 602.876 -36.5258 595.064 -11.0309 580.289L-11.03 580.289L-8.42851 578.78L-5.82698 580.289L-5.82607 580.289C19.6728 595.067 48.8104 602.878 78.4875 602.878H83.6791V608.141C83.6791 671.896 49.3726 731.341 -5.81925 763.266C-5.82067 763.267 -5.82208 763.268 -5.8235 763.268L-8.44054 764.772L-11.03 763.271Z" stroke="#6150F4" stroke-width="7"/>
<path d="M-11.03 996.885L-11.0326 996.883C-66.2281 964.936 -100.536 905.488 -100.536 841.756V836.534L-95.3305 836.492C-65.6582 836.49 -36.5258 828.679 -11.0309 813.904L-11.03 813.903L-8.42851 812.394L-5.82698 813.903L-5.82607 813.904C19.6728 828.681 48.8104 836.492 78.4875 836.492H83.6791V841.756C83.6791 905.51 49.3726 964.955 -5.81925 996.88C-5.82067 996.881 -5.82208 996.882 -5.8235 996.883L-8.44054 998.387L-11.03 996.885Z" stroke="#6150F4" stroke-width="7"/>
<path d="M-11.03 1230.5L-11.0326 1230.5C-66.2281 1198.55 -100.536 1139.1 -100.536 1075.37V1070.15L-95.3305 1070.11C-65.6582 1070.1 -36.5258 1062.29 -11.0309 1047.52L-11.03 1047.52L-8.42851 1046.01L-5.82698 1047.52L-5.82607 1047.52C19.6728 1062.3 48.8104 1070.11 78.4875 1070.11H83.6791V1075.37C83.6791 1139.12 49.3726 1198.57 -5.81925 1230.49C-5.82067 1230.5 -5.82208 1230.5 -5.8235 1230.5L-8.44054 1232L-11.03 1230.5Z" stroke="#6150F4" stroke-width="7"/>
<path d="M-11.03 1464.11L-11.0326 1464.11C-66.2281 1432.16 -100.536 1372.72 -100.536 1308.98V1303.76L-95.3305 1303.72C-65.6582 1303.72 -36.5258 1295.91 -11.0309 1281.13L-11.03 1281.13L-8.42851 1279.62L-5.82698 1281.13L-5.82607 1281.13C19.6728 1295.91 48.8104 1303.72 78.4875 1303.72H83.6791V1308.98C83.6791 1372.74 49.3726 1432.18 -5.81925 1464.11C-5.82067 1464.11 -5.82208 1464.11 -5.8235 1464.11L-8.44054 1465.62L-11.03 1464.11Z" stroke="#6150F4" stroke-width="7"/>
<path d="M-11.03 1697.73L-11.0326 1697.73C-66.2281 1665.78 -100.536 1606.33 -100.536 1542.6V1537.38L-95.3305 1537.34C-65.6582 1537.33 -36.5258 1529.52 -11.0309 1514.75L-11.03 1514.75L-8.42851 1513.24L-5.82698 1514.75L-5.82607 1514.75C19.6728 1529.52 48.8104 1537.34 78.4875 1537.34H83.6791V1542.6C83.6791 1606.35 49.3726 1665.8 -5.81925 1697.72C-5.82067 1697.72 -5.82208 1697.72 -5.8235 1697.73L-8.44054 1699.23L-11.03 1697.73Z" stroke="#6150F4" stroke-width="7"/>
<path d="M-11.03 1931.34L-11.0326 1931.34C-66.2281 1899.39 -100.536 1839.95 -100.536 1776.21V1770.99L-95.3305 1770.95C-65.6582 1770.95 -36.5258 1763.14 -11.0309 1748.36L-11.03 1748.36L-8.42851 1746.85L-5.82698 1748.36L-5.82607 1748.36C19.6728 1763.14 48.8104 1770.95 78.4875 1770.95H83.6791V1776.21C83.6791 1839.97 49.3726 1899.41 -5.81925 1931.34C-5.82067 1931.34 -5.82208 1931.34 -5.8235 1931.34L-8.44054 1932.84L-11.03 1931.34Z" stroke="#6150F4" stroke-width="7"/>
<path d="M-11.03 2164.96L-11.0326 2164.96C-66.2281 2133.01 -100.536 2073.56 -100.536 2009.83V2004.61L-95.3305 2004.57C-65.6582 2004.56 -36.5258 1996.75 -11.0309 1981.98L-11.03 1981.98L-8.42851 1980.47L-5.82698 1981.98L-5.82607 1981.98C19.6728 1996.75 48.8104 2004.57 78.4875 2004.57H83.6791V2009.83C83.6791 2073.58 49.3726 2133.03 -5.81925 2164.95C-5.82067 2164.95 -5.82208 2164.95 -5.8235 2164.96L-8.44054 2166.46L-11.03 2164.96Z" stroke="#6150F4" stroke-width="7"/>
<path d="M-11.03 2398.57L-11.0326 2398.57C-66.2281 2366.62 -100.536 2307.18 -100.536 2243.44V2238.22L-95.3305 2238.18C-65.6582 2238.18 -36.5258 2230.37 -11.0309 2215.59L-11.03 2215.59L-8.42851 2214.08L-5.82698 2215.59L-5.82607 2215.59C19.6728 2230.37 48.8104 2238.18 78.4875 2238.18H83.6791V2243.44C83.6791 2307.2 49.3726 2366.64 -5.81925 2398.57C-5.82067 2398.57 -5.82208 2398.57 -5.8235 2398.57L-8.44054 2400.07L-11.03 2398.57Z" stroke="#6150F4" stroke-width="7"/>
<path d="M-11.03 2632.19L-11.0326 2632.19C-66.2281 2600.24 -100.536 2540.79 -100.536 2477.06V2471.84L-95.3305 2471.8C-65.6582 2471.79 -36.5258 2463.98 -11.0309 2449.21L-11.03 2449.21L-8.42851 2447.7L-5.82698 2449.21L-5.82607 2449.21C19.6728 2463.98 48.8104 2471.8 78.4875 2471.8H83.6791V2477.06C83.6791 2540.81 49.3726 2600.26 -5.81925 2632.18C-5.82067 2632.18 -5.82208 2632.19 -5.8235 2632.19L-8.44054 2633.69L-11.03 2632.19Z" stroke="#6150F4" stroke-width="7"/>
<path d="M-11.03 2865.8L-11.0326 2865.8C-66.2281 2833.85 -100.536 2774.41 -100.536 2710.67V2705.45L-95.3305 2705.41C-65.6582 2705.41 -36.5258 2697.6 -11.0309 2682.82L-11.03 2682.82L-8.42851 2681.31L-5.82698 2682.82L-5.82607 2682.82C19.6728 2697.6 48.8104 2705.41 78.4875 2705.41H83.6791V2710.67C83.6791 2774.43 49.3726 2833.87 -5.81925 2865.8C-5.82067 2865.8 -5.82208 2865.8 -5.8235 2865.8L-8.44054 2867.3L-11.03 2865.8Z" stroke="#6150F4" stroke-width="7"/>
<path d="M223.437 198.997L223.434 198.995C168.239 167.047 133.931 107.6 133.931 43.8674V38.6458L139.136 38.6041C168.809 38.6017 197.941 30.7905 223.436 16.0154L223.437 16.0149L226.038 14.5062L228.64 16.0149L228.641 16.0154C254.14 30.7928 283.277 38.6041 312.954 38.6041H318.146V43.8674C318.146 107.622 283.839 167.067 228.648 198.992C228.646 198.993 228.645 198.994 228.643 198.995L226.026 200.498L223.437 198.997Z" stroke="#6150F4" stroke-width="7"/>
<path d="M1161.3 198.997L1161.3 198.995C1106.11 167.047 1071.8 107.6 1071.8 43.8674V38.6458L1077 38.6041C1106.68 38.6017 1135.81 30.7905 1161.3 16.0154L1161.3 16.0149L1163.9 14.5062L1166.51 16.0149L1166.51 16.0154C1192.01 30.7928 1221.14 38.6041 1250.82 38.6041H1256.01V43.8674C1256.01 107.622 1221.71 167.067 1166.51 198.992C1166.51 198.993 1166.51 198.994 1166.51 198.995L1163.89 200.498L1161.3 198.997Z" stroke="#6150F4" stroke-width="7"/>
<path d="M692.37 198.997L692.367 198.995C637.172 167.047 602.864 107.6 602.864 43.8674V38.6458L608.069 38.6041C637.742 38.6017 666.874 30.7905 692.369 16.0154L692.37 16.0149L694.971 14.5062L697.573 16.0149L697.574 16.0154C723.073 30.7928 752.21 38.6041 781.887 38.6041H787.079V43.8674C787.079 107.622 752.772 167.067 697.581 198.992C697.579 198.993 697.578 198.994 697.576 198.995L694.959 200.498L692.37 198.997Z" stroke="#6150F4" stroke-width="7"/>
<path d="M1161.3 432.611L1161.3 432.609C1106.11 400.662 1071.8 341.214 1071.8 277.482V272.26L1077 272.218C1106.68 272.216 1135.81 264.405 1161.3 249.63L1161.3 249.629L1163.9 248.12L1166.51 249.629L1166.51 249.63C1192.01 264.407 1221.14 272.218 1250.82 272.218H1256.01V277.482C1256.01 341.236 1221.71 400.682 1166.51 432.606C1166.51 432.607 1166.51 432.608 1166.51 432.609L1163.89 434.113L1161.3 432.611Z" stroke="#6150F4" stroke-width="7"/>
<path d="M223.437 432.611L223.434 432.609C168.239 400.662 133.931 341.214 133.931 277.482V272.26L139.136 272.218C168.809 272.216 197.941 264.405 223.436 249.63L223.437 249.629L226.038 248.12L228.64 249.629L228.641 249.63C254.14 264.407 283.277 272.218 312.954 272.218H318.146V277.482C318.146 341.236 283.839 400.682 228.648 432.606C228.646 432.607 228.645 432.608 228.643 432.609L226.026 434.113L223.437 432.611Z" stroke="#6150F4" stroke-width="7"/>
<path d="M692.37 432.611L692.367 432.609C637.172 400.662 602.864 341.214 602.864 277.482V272.26L608.069 272.218C637.742 272.216 666.874 264.405 692.369 249.63L692.37 249.629L694.971 248.12L697.573 249.629L697.574 249.63C723.073 264.407 752.21 272.218 781.887 272.218H787.079V277.482C787.079 341.236 752.772 400.682 697.581 432.606C697.579 432.607 697.578 432.608 697.576 432.609L694.959 434.113L692.37 432.611Z" stroke="#6150F4" stroke-width="7"/>
<path d="M1161.3 666.225L1161.3 666.224C1106.11 634.276 1071.8 574.828 1071.8 511.096V505.874L1077 505.833C1106.68 505.83 1135.81 498.019 1161.3 483.244L1161.3 483.243L1163.9 481.735L1166.51 483.243L1166.51 483.244C1192.01 498.021 1221.14 505.833 1250.82 505.833H1256.01V511.096C1256.01 574.85 1221.71 634.296 1166.51 666.221C1166.51 666.221 1166.51 666.222 1166.51 666.223L1163.89 667.727L1161.3 666.225Z" stroke="#6150F4" stroke-width="7"/>
<path d="M223.437 666.225L223.434 666.224C168.239 634.276 133.931 574.828 133.931 511.096V505.874L139.136 505.833C168.809 505.83 197.941 498.019 223.436 483.244L223.437 483.243L226.038 481.735L228.64 483.243L228.641 483.244C254.14 498.021 283.277 505.833 312.954 505.833H318.146V511.096C318.146 574.85 283.839 634.296 228.648 666.221C228.646 666.221 228.645 666.222 228.643 666.223L226.026 667.727L223.437 666.225Z" stroke="#6150F4" stroke-width="7"/>
<path d="M1161.3 899.839L1161.3 899.838C1106.11 867.89 1071.8 808.442 1071.8 744.71V739.489L1077 739.447C1106.68 739.444 1135.81 731.633 1161.3 716.858L1161.3 716.858L1163.9 715.349L1166.51 716.858L1166.51 716.858C1192.01 731.636 1221.14 739.447 1250.82 739.447H1256.01V744.71C1256.01 808.464 1221.71 867.91 1166.51 899.835C1166.51 899.836 1166.51 899.837 1166.51 899.837L1163.89 901.341L1161.3 899.839Z" stroke="#6150F4" stroke-width="7"/>
<path d="M692.37 666.225L692.367 666.224C637.172 634.276 602.864 574.828 602.864 511.096V505.874L608.069 505.833C637.742 505.83 666.874 498.019 692.369 483.244L692.37 483.243L694.971 481.735L697.573 483.243L697.574 483.244C723.073 498.021 752.21 505.833 781.887 505.833H787.079V511.096C787.079 574.85 752.772 634.296 697.581 666.221C697.579 666.221 697.578 666.222 697.576 666.223L694.959 667.727L692.37 666.225Z" stroke="#6150F4" stroke-width="7"/>
<path d="M1161.3 1133.45L1161.3 1133.45C1106.11 1101.5 1071.8 1042.06 1071.8 978.324V973.103L1077 973.061C1106.68 973.059 1135.81 965.248 1161.3 950.472L1161.3 950.472L1163.9 948.963L1166.51 950.472L1166.51 950.472C1192.01 965.25 1221.14 973.061 1250.82 973.061H1256.01V978.324C1256.01 1042.08 1221.71 1101.52 1166.51 1133.45C1166.51 1133.45 1166.51 1133.45 1166.51 1133.45L1163.89 1134.96L1161.3 1133.45Z" stroke="#6150F4" stroke-width="7"/>
<path d="M223.437 899.839L223.434 899.838C168.239 867.89 133.931 808.442 133.931 744.71V739.489L139.136 739.447C168.809 739.444 197.941 731.633 223.436 716.858L223.437 716.858L226.038 715.349L228.64 716.858L228.641 716.858C254.14 731.636 283.277 739.447 312.954 739.447H318.146V744.71C318.146 808.464 283.839 867.91 228.648 899.835C228.646 899.836 228.645 899.837 228.643 899.837L226.026 901.341L223.437 899.839Z" stroke="#6150F4" stroke-width="7"/>
<path d="M692.37 899.839L692.367 899.838C637.172 867.89 602.864 808.442 602.864 744.71V739.489L608.069 739.447C637.742 739.444 666.874 731.633 692.369 716.858L692.37 716.858L694.971 715.349L697.573 716.858L697.574 716.858C723.073 731.636 752.21 739.447 781.887 739.447H787.079V744.71C787.079 808.464 752.772 867.91 697.581 899.835C697.579 899.836 697.578 899.837 697.576 899.837L694.959 901.341L692.37 899.839Z" stroke="#6150F4" stroke-width="7"/>
<path d="M1161.3 1367.07L1161.3 1367.07C1106.11 1335.12 1071.8 1275.67 1071.8 1211.94V1206.72L1077 1206.68C1106.68 1206.67 1135.81 1198.86 1161.3 1184.09L1161.3 1184.09L1163.9 1182.58L1166.51 1184.09L1166.51 1184.09C1192.01 1198.86 1221.14 1206.68 1250.82 1206.68H1256.01V1211.94C1256.01 1275.69 1221.71 1335.14 1166.51 1367.06C1166.51 1367.06 1166.51 1367.07 1166.51 1367.07L1163.89 1368.57L1161.3 1367.07Z" stroke="#6150F4" stroke-width="7"/>
<path d="M223.437 1133.45L223.434 1133.45C168.239 1101.5 133.931 1042.06 133.931 978.324V973.103L139.136 973.061C168.809 973.059 197.941 965.248 223.436 950.472L223.437 950.472L226.038 948.963L228.64 950.472L228.641 950.472C254.14 965.25 283.277 973.061 312.954 973.061H318.146V978.324C318.146 1042.08 283.839 1101.52 228.648 1133.45C228.646 1133.45 228.645 1133.45 228.643 1133.45L226.026 1134.96L223.437 1133.45Z" stroke="#6150F4" stroke-width="7"/>
<path d="M692.37 1133.45L692.367 1133.45C637.172 1101.5 602.864 1042.06 602.864 978.324V973.103L608.069 973.061C637.742 973.059 666.874 965.248 692.369 950.472L692.37 950.472L694.971 948.963L697.573 950.472L697.574 950.472C723.073 965.25 752.21 973.061 781.887 973.061H787.079V978.324C787.079 1042.08 752.772 1101.52 697.581 1133.45C697.579 1133.45 697.578 1133.45 697.576 1133.45L694.959 1134.96L692.37 1133.45Z" stroke="#6150F4" stroke-width="7"/>
<path d="M223.437 1367.07L223.434 1367.07C168.239 1335.12 133.931 1275.67 133.931 1211.94V1206.72L139.136 1206.68C168.809 1206.67 197.941 1198.86 223.436 1184.09L223.437 1184.09L226.038 1182.58L228.64 1184.09L228.641 1184.09C254.14 1198.86 283.277 1206.68 312.954 1206.68H318.146V1211.94C318.146 1275.69 283.839 1335.14 228.648 1367.06C228.646 1367.06 228.645 1367.07 228.643 1367.07L226.026 1368.57L223.437 1367.07Z" stroke="#6150F4" stroke-width="7"/>
<path d="M692.37 1367.07L692.367 1367.07C637.172 1335.12 602.864 1275.67 602.864 1211.94V1206.72L608.069 1206.68C637.742 1206.67 666.874 1198.86 692.369 1184.09L692.37 1184.09L694.971 1182.58L697.573 1184.09L697.574 1184.09C723.073 1198.86 752.21 1206.68 781.887 1206.68H787.079V1211.94C787.079 1275.69 752.772 1335.14 697.581 1367.06C697.579 1367.06 697.578 1367.07 697.576 1367.07L694.959 1368.57L692.37 1367.07Z" stroke="#6150F4" stroke-width="7"/>
<path d="M223.437 1600.68L223.434 1600.68C168.239 1568.73 133.931 1509.29 133.931 1445.55V1440.33L139.136 1440.29C168.809 1440.29 197.941 1432.48 223.436 1417.7L223.437 1417.7L226.038 1416.19L228.64 1417.7L228.641 1417.7C254.14 1432.48 283.277 1440.29 312.954 1440.29H318.146V1445.55C318.146 1509.31 283.839 1568.75 228.648 1600.68C228.646 1600.68 228.645 1600.68 228.643 1600.68L226.026 1602.18L223.437 1600.68Z" stroke="#6150F4" stroke-width="7"/>
<path d="M223.437 1834.3L223.434 1834.3C168.239 1802.35 133.931 1742.9 133.931 1679.17V1673.95L139.136 1673.91C168.809 1673.9 197.941 1666.09 223.436 1651.32L223.437 1651.32L226.038 1649.81L228.64 1651.32L228.641 1651.32C254.14 1666.09 283.277 1673.91 312.954 1673.91H318.146V1679.17C318.146 1742.92 283.839 1802.37 228.648 1834.29C228.646 1834.29 228.645 1834.29 228.643 1834.3L226.026 1835.8L223.437 1834.3Z" stroke="#6150F4" stroke-width="7"/>
<path d="M223.437 2067.91L223.434 2067.91C168.239 2035.96 133.931 1976.52 133.931 1912.78V1907.56L139.136 1907.52C168.809 1907.52 197.941 1899.71 223.436 1884.93L223.437 1884.93L226.038 1883.42L228.64 1884.93L228.641 1884.93C254.14 1899.71 283.277 1907.52 312.954 1907.52H318.146V1912.78C318.146 1976.54 283.839 2035.98 228.648 2067.91C228.646 2067.91 228.645 2067.91 228.643 2067.91L226.026 2069.41L223.437 2067.91Z" stroke="#6150F4" stroke-width="7"/>
<path d="M223.437 2301.53L223.434 2301.53C168.239 2269.58 133.931 2210.13 133.931 2146.4V2141.18L139.136 2141.14C168.809 2141.13 197.941 2133.32 223.436 2118.55L223.437 2118.55L226.038 2117.04L228.64 2118.55L228.641 2118.55C254.14 2133.32 283.277 2141.14 312.954 2141.14H318.146V2146.4C318.146 2210.15 283.839 2269.6 228.648 2301.52C228.646 2301.52 228.645 2301.52 228.643 2301.53L226.026 2303.03L223.437 2301.53Z" stroke="#6150F4" stroke-width="7"/>
<path d="M223.437 2535.14L223.434 2535.14C168.239 2503.19 133.931 2443.75 133.931 2380.01V2374.79L139.136 2374.75C168.809 2374.75 197.941 2366.94 223.436 2352.16L223.437 2352.16L226.038 2350.65L228.64 2352.16L228.641 2352.16C254.14 2366.94 283.277 2374.75 312.954 2374.75H318.146V2380.01C318.146 2443.77 283.839 2503.21 228.648 2535.14C228.646 2535.14 228.645 2535.14 228.643 2535.14L226.026 2536.64L223.437 2535.14Z" stroke="#6150F4" stroke-width="7"/>
<path d="M223.437 2768.76L223.434 2768.76C168.239 2736.81 133.931 2677.36 133.931 2613.63V2608.41L139.136 2608.37C168.809 2608.36 197.941 2600.55 223.436 2585.78L223.437 2585.78L226.038 2584.27L228.64 2585.78L228.641 2585.78C254.14 2600.55 283.277 2608.37 312.954 2608.37H318.146V2613.63C318.146 2677.38 283.839 2736.83 228.648 2768.75C228.646 2768.75 228.645 2768.75 228.643 2768.76L226.026 2770.26L223.437 2768.76Z" stroke="#6150F4" stroke-width="7"/>
<path d="M223.437 3002.37L223.434 3002.37C168.239 2970.42 133.931 2910.98 133.931 2847.24V2842.02L139.136 2841.98C168.809 2841.98 197.941 2834.17 223.436 2819.39L223.437 2819.39L226.038 2817.88L228.64 2819.39L228.641 2819.39C254.14 2834.17 283.277 2841.98 312.954 2841.98H318.146V2847.24C318.146 2911 283.839 2970.44 228.648 3002.37C228.646 3002.37 228.645 3002.37 228.643 3002.37L226.026 3003.87L223.437 3002.37Z" stroke="#6150F4" stroke-width="7"/>
<path d="M1161.3 1600.68L1161.3 1600.68C1106.11 1568.73 1071.8 1509.29 1071.8 1445.55V1440.33L1077 1440.29C1106.68 1440.29 1135.81 1432.48 1161.3 1417.7L1161.3 1417.7L1163.9 1416.19L1166.51 1417.7L1166.51 1417.7C1192.01 1432.48 1221.14 1440.29 1250.82 1440.29H1256.01V1445.55C1256.01 1509.31 1221.71 1568.75 1166.51 1600.68C1166.51 1600.68 1166.51 1600.68 1166.51 1600.68L1163.89 1602.18L1161.3 1600.68Z" stroke="#6150F4" stroke-width="7"/>
<path d="M1161.3 1834.3L1161.3 1834.3C1106.11 1802.35 1071.8 1742.9 1071.8 1679.17V1673.95L1077 1673.91C1106.68 1673.9 1135.81 1666.09 1161.3 1651.32L1161.3 1651.32L1163.9 1649.81L1166.51 1651.32L1166.51 1651.32C1192.01 1666.09 1221.14 1673.91 1250.82 1673.91H1256.01V1679.17C1256.01 1742.92 1221.71 1802.37 1166.51 1834.29C1166.51 1834.29 1166.51 1834.29 1166.51 1834.3L1163.89 1835.8L1161.3 1834.3Z" stroke="#6150F4" stroke-width="7"/>
<path d="M1161.3 2067.91L1161.3 2067.91C1106.11 2035.96 1071.8 1976.52 1071.8 1912.78V1907.56L1077 1907.52C1106.68 1907.52 1135.81 1899.71 1161.3 1884.93L1161.3 1884.93L1163.9 1883.42L1166.51 1884.93L1166.51 1884.93C1192.01 1899.71 1221.14 1907.52 1250.82 1907.52H1256.01V1912.78C1256.01 1976.54 1221.71 2035.98 1166.51 2067.91C1166.51 2067.91 1166.51 2067.91 1166.51 2067.91L1163.89 2069.41L1161.3 2067.91Z" stroke="#6150F4" stroke-width="7"/>
<path d="M1161.3 2301.53L1161.3 2301.53C1106.11 2269.58 1071.8 2210.13 1071.8 2146.4V2141.18L1077 2141.14C1106.68 2141.13 1135.81 2133.32 1161.3 2118.55L1161.3 2118.55L1163.9 2117.04L1166.51 2118.55L1166.51 2118.55C1192.01 2133.32 1221.14 2141.14 1250.82 2141.14H1256.01V2146.4C1256.01 2210.15 1221.71 2269.6 1166.51 2301.52C1166.51 2301.52 1166.51 2301.52 1166.51 2301.53L1163.89 2303.03L1161.3 2301.53Z" stroke="#6150F4" stroke-width="7"/>
<path d="M1161.3 2535.14L1161.3 2535.14C1106.11 2503.19 1071.8 2443.75 1071.8 2380.01V2374.79L1077 2374.75C1106.68 2374.75 1135.81 2366.94 1161.3 2352.16L1161.3 2352.16L1163.9 2350.65L1166.51 2352.16L1166.51 2352.16C1192.01 2366.94 1221.14 2374.75 1250.82 2374.75H1256.01V2380.01C1256.01 2443.77 1221.71 2503.21 1166.51 2535.14C1166.51 2535.14 1166.51 2535.14 1166.51 2535.14L1163.89 2536.64L1161.3 2535.14Z" stroke="#6150F4" stroke-width="7"/>
<path d="M1161.3 2768.76L1161.3 2768.76C1106.11 2736.81 1071.8 2677.36 1071.8 2613.63V2608.41L1077 2608.37C1106.68 2608.36 1135.81 2600.55 1161.3 2585.78L1161.3 2585.78L1163.9 2584.27L1166.51 2585.78L1166.51 2585.78C1192.01 2600.55 1221.14 2608.37 1250.82 2608.37H1256.01V2613.63C1256.01 2677.38 1221.71 2736.83 1166.51 2768.75C1166.51 2768.75 1166.51 2768.75 1166.51 2768.76L1163.89 2770.26L1161.3 2768.76Z" stroke="#6150F4" stroke-width="7"/>
<path d="M1161.3 3002.37L1161.3 3002.37C1106.11 2970.42 1071.8 2910.98 1071.8 2847.24V2842.02L1077 2841.98C1106.68 2841.98 1135.81 2834.17 1161.3 2819.39L1161.3 2819.39L1163.9 2817.88L1166.51 2819.39L1166.51 2819.39C1192.01 2834.17 1221.14 2841.98 1250.82 2841.98H1256.01V2847.24C1256.01 2911 1221.71 2970.44 1166.51 3002.37C1166.51 3002.37 1166.51 3002.37 1166.51 3002.37L1163.89 3003.87L1161.3 3002.37Z" stroke="#6150F4" stroke-width="7"/>
<path d="M692.37 1600.68L692.367 1600.68C637.172 1568.73 602.864 1509.29 602.864 1445.55V1440.33L608.069 1440.29C637.742 1440.29 666.874 1432.48 692.369 1417.7L692.37 1417.7L694.971 1416.19L697.573 1417.7L697.574 1417.7C723.073 1432.48 752.21 1440.29 781.887 1440.29H787.079V1445.55C787.079 1509.31 752.772 1568.75 697.581 1600.68C697.579 1600.68 697.578 1600.68 697.576 1600.68L694.959 1602.18L692.37 1600.68Z" stroke="#6150F4" stroke-width="7"/>
<path d="M926.836 62.4278L926.834 62.4263C871.638 30.4786 837.33 -28.9691 837.33 -92.7014V-97.9231L842.536 -97.9647C872.208 -97.9672 901.34 -105.778 926.835 -120.553L926.836 -120.554L929.438 -122.063L932.039 -120.554L932.04 -120.553C957.539 -105.776 986.677 -97.9647 1016.35 -97.9647H1021.55V-92.7014C1021.55 -28.9471 987.239 30.4985 932.047 62.4233C932.046 62.4241 932.044 62.4249 932.043 62.4258L929.426 63.9295L926.836 62.4278Z" stroke="#6150F4" stroke-width="7"/>
<path d="M692.37 1834.3L692.367 1834.3C637.172 1802.35 602.864 1742.9 602.864 1679.17V1673.95L608.069 1673.91C637.742 1673.9 666.874 1666.09 692.369 1651.32L692.37 1651.32L694.971 1649.81L697.573 1651.32L697.574 1651.32C723.073 1666.09 752.21 1673.91 781.887 1673.91H787.079V1679.17C787.079 1742.92 752.772 1802.37 697.581 1834.29C697.579 1834.29 697.578 1834.29 697.576 1834.3L694.959 1835.8L692.37 1834.3Z" stroke="#6150F4" stroke-width="7"/>
<path d="M926.836 296.042L926.834 296.041C871.638 264.093 837.33 204.645 837.33 140.913V135.691L842.536 135.65C872.208 135.647 901.34 127.836 926.835 113.061L926.836 113.06L929.438 111.552L932.039 113.06L932.04 113.061C957.539 127.838 986.677 135.65 1016.35 135.65H1021.55V140.913C1021.55 204.667 987.239 264.113 932.047 296.038C932.046 296.038 932.044 296.039 932.043 296.04L929.426 297.544L926.836 296.042Z" stroke="#6150F4" stroke-width="7"/>
<path d="M692.37 2067.91L692.367 2067.91C637.172 2035.96 602.864 1976.52 602.864 1912.78V1907.56L608.069 1907.52C637.742 1907.52 666.874 1899.71 692.369 1884.93L692.37 1884.93L694.971 1883.42L697.573 1884.93L697.574 1884.93C723.073 1899.71 752.21 1907.52 781.887 1907.52H787.079V1912.78C787.079 1976.54 752.772 2035.98 697.581 2067.91C697.579 2067.91 697.578 2067.91 697.576 2067.91L694.959 2069.41L692.37 2067.91Z" stroke="#6150F4" stroke-width="7"/>
<path d="M926.836 529.656L926.834 529.655C871.638 497.707 837.33 438.259 837.33 374.527V369.305L842.536 369.264C872.208 369.261 901.34 361.45 926.835 346.675L926.836 346.675L929.438 345.166L932.039 346.675L932.04 346.675C957.539 361.452 986.677 369.264 1016.35 369.264H1021.55V374.527C1021.55 438.281 987.239 497.727 932.047 529.652C932.046 529.653 932.044 529.653 932.043 529.654L929.426 531.158L926.836 529.656Z" stroke="#6150F4" stroke-width="7"/>
<path d="M692.37 2301.53L692.367 2301.53C637.172 2269.58 602.864 2210.13 602.864 2146.4V2141.18L608.069 2141.14C637.742 2141.13 666.874 2133.32 692.369 2118.55L692.37 2118.55L694.971 2117.04L697.573 2118.55L697.574 2118.55C723.073 2133.32 752.21 2141.14 781.887 2141.14H787.079V2146.4C787.079 2210.15 752.772 2269.6 697.581 2301.52C697.579 2301.52 697.578 2301.52 697.576 2301.53L694.959 2303.03L692.37 2301.53Z" stroke="#6150F4" stroke-width="7"/>
<path d="M926.836 763.271L926.834 763.269C871.638 731.321 837.33 671.874 837.33 608.141V602.92L842.536 602.878C872.208 602.876 901.34 595.064 926.835 580.289L926.836 580.289L929.438 578.78L932.039 580.289L932.04 580.289C957.539 595.067 986.677 602.878 1016.35 602.878H1021.55V608.141C1021.55 671.896 987.239 731.341 932.047 763.266C932.046 763.267 932.044 763.268 932.043 763.268L929.426 764.772L926.836 763.271Z" stroke="#6150F4" stroke-width="7"/>
<path d="M692.37 2535.14L692.367 2535.14C637.172 2503.19 602.864 2443.75 602.864 2380.01V2374.79L608.069 2374.75C637.742 2374.75 666.874 2366.94 692.369 2352.16L692.37 2352.16L694.971 2350.65L697.573 2352.16L697.574 2352.16C723.073 2366.94 752.21 2374.75 781.887 2374.75H787.079V2380.01C787.079 2443.77 752.772 2503.21 697.581 2535.14C697.579 2535.14 697.578 2535.14 697.576 2535.14L694.959 2536.64L692.37 2535.14Z" stroke="#6150F4" stroke-width="7"/>
<path d="M926.836 996.885L926.834 996.883C871.638 964.936 837.33 905.488 837.33 841.756V836.534L842.536 836.492C872.208 836.49 901.34 828.679 926.835 813.904L926.836 813.903L929.438 812.394L932.039 813.903L932.04 813.904C957.539 828.681 986.677 836.492 1016.35 836.492H1021.55V841.756C1021.55 905.51 987.239 964.955 932.047 996.88C932.046 996.881 932.044 996.882 932.043 996.883L929.426 998.387L926.836 996.885Z" stroke="#6150F4" stroke-width="7"/>
<path d="M692.37 2768.76L692.367 2768.76C637.172 2736.81 602.864 2677.36 602.864 2613.63V2608.41L608.069 2608.37C637.742 2608.36 666.874 2600.55 692.369 2585.78L692.37 2585.78L694.971 2584.27L697.573 2585.78L697.574 2585.78C723.073 2600.55 752.21 2608.37 781.887 2608.37H787.079V2613.63C787.079 2677.38 752.772 2736.83 697.581 2768.75C697.579 2768.75 697.578 2768.75 697.576 2768.76L694.959 2770.26L692.37 2768.76Z" stroke="#6150F4" stroke-width="7"/>
<path d="M926.836 1230.5L926.834 1230.5C871.638 1198.55 837.33 1139.1 837.33 1075.37V1070.15L842.536 1070.11C872.208 1070.1 901.34 1062.29 926.835 1047.52L926.836 1047.52L929.438 1046.01L932.039 1047.52L932.04 1047.52C957.539 1062.3 986.677 1070.11 1016.35 1070.11H1021.55V1075.37C1021.55 1139.12 987.239 1198.57 932.047 1230.49C932.046 1230.5 932.044 1230.5 932.043 1230.5L929.426 1232L926.836 1230.5Z" stroke="#6150F4" stroke-width="7"/>
<path d="M692.37 3002.37L692.367 3002.37C637.172 2970.42 602.864 2910.98 602.864 2847.24V2842.02L608.069 2841.98C637.742 2841.98 666.874 2834.17 692.369 2819.39L692.37 2819.39L694.971 2817.88L697.573 2819.39L697.574 2819.39C723.073 2834.17 752.21 2841.98 781.887 2841.98H787.079V2847.24C787.079 2911 752.772 2970.44 697.581 3002.37C697.579 3002.37 697.578 3002.37 697.576 3002.37L694.959 3003.87L692.37 3002.37Z" stroke="#6150F4" stroke-width="7"/>
<path d="M926.836 1464.11L926.834 1464.11C871.638 1432.16 837.33 1372.72 837.33 1308.98V1303.76L842.536 1303.72C872.208 1303.72 901.34 1295.91 926.835 1281.13L926.836 1281.13L929.438 1279.62L932.039 1281.13L932.04 1281.13C957.539 1295.91 986.677 1303.72 1016.35 1303.72H1021.55V1308.98C1021.55 1372.74 987.239 1432.18 932.047 1464.11C932.046 1464.11 932.044 1464.11 932.043 1464.11L929.426 1465.62L926.836 1464.11Z" stroke="#6150F4" stroke-width="7"/>
<path d="M926.836 1697.73L926.834 1697.73C871.638 1665.78 837.33 1606.33 837.33 1542.6V1537.38L842.536 1537.34C872.208 1537.33 901.34 1529.52 926.835 1514.75L926.836 1514.75L929.438 1513.24L932.039 1514.75L932.04 1514.75C957.539 1529.52 986.677 1537.34 1016.35 1537.34H1021.55V1542.6C1021.55 1606.35 987.239 1665.8 932.047 1697.72C932.046 1697.72 932.044 1697.72 932.043 1697.73L929.426 1699.23L926.836 1697.73Z" stroke="#6150F4" stroke-width="7"/>
<path d="M926.836 1931.34L926.834 1931.34C871.638 1899.39 837.33 1839.95 837.33 1776.21V1770.99L842.536 1770.95C872.208 1770.95 901.34 1763.14 926.835 1748.36L926.836 1748.36L929.438 1746.85L932.039 1748.36L932.04 1748.36C957.539 1763.14 986.677 1770.95 1016.35 1770.95H1021.55V1776.21C1021.55 1839.97 987.239 1899.41 932.047 1931.34C932.046 1931.34 932.044 1931.34 932.043 1931.34L929.426 1932.84L926.836 1931.34Z" stroke="#6150F4" stroke-width="7"/>
<path d="M926.836 2164.96L926.834 2164.96C871.638 2133.01 837.33 2073.56 837.33 2009.83V2004.61L842.536 2004.57C872.208 2004.56 901.34 1996.75 926.835 1981.98L926.836 1981.98L929.438 1980.47L932.039 1981.98L932.04 1981.98C957.539 1996.75 986.677 2004.57 1016.35 2004.57H1021.55V2009.83C1021.55 2073.58 987.239 2133.03 932.047 2164.95C932.046 2164.95 932.044 2164.95 932.043 2164.96L929.426 2166.46L926.836 2164.96Z" stroke="#6150F4" stroke-width="7"/>
<path d="M926.836 2398.57L926.834 2398.57C871.638 2366.62 837.33 2307.18 837.33 2243.44V2238.22L842.536 2238.18C872.208 2238.18 901.34 2230.37 926.835 2215.59L926.836 2215.59L929.438 2214.08L932.039 2215.59L932.04 2215.59C957.539 2230.37 986.677 2238.18 1016.35 2238.18H1021.55V2243.44C1021.55 2307.2 987.239 2366.64 932.047 2398.57C932.046 2398.57 932.044 2398.57 932.043 2398.57L929.426 2400.07L926.836 2398.57Z" stroke="#6150F4" stroke-width="7"/>
<path d="M926.836 2632.19L926.834 2632.19C871.638 2600.24 837.33 2540.79 837.33 2477.06V2471.84L842.536 2471.8C872.208 2471.79 901.34 2463.98 926.835 2449.21L926.836 2449.21L929.438 2447.7L932.039 2449.21L932.04 2449.21C957.539 2463.98 986.677 2471.8 1016.35 2471.8H1021.55V2477.06C1021.55 2540.81 987.239 2600.26 932.047 2632.18C932.046 2632.18 932.044 2632.19 932.043 2632.19L929.426 2633.69L926.836 2632.19Z" stroke="#6150F4" stroke-width="7"/>
<path d="M926.836 2865.8L926.834 2865.8C871.638 2833.85 837.33 2774.41 837.33 2710.67V2705.45L842.536 2705.41C872.208 2705.41 901.34 2697.6 926.835 2682.82L926.836 2682.82L929.438 2681.31L932.039 2682.82L932.04 2682.82C957.539 2697.6 986.677 2705.41 1016.35 2705.41H1021.55V2710.67C1021.55 2774.43 987.239 2833.87 932.047 2865.8C932.046 2865.8 932.044 2865.8 932.043 2865.8L929.426 2867.3L926.836 2865.8Z" stroke="#6150F4" stroke-width="7"/>
<path d="M457.903 62.4278L457.901 62.4263C402.705 30.4786 368.397 -28.9691 368.397 -92.7014V-97.9231L373.603 -97.9647C403.275 -97.9672 432.407 -105.778 457.902 -120.553L457.903 -120.554L460.505 -122.063L463.106 -120.554L463.107 -120.553C488.606 -105.776 517.743 -97.9647 547.421 -97.9647H552.612V-92.7014C552.612 -28.9471 518.306 30.4985 463.114 62.4233C463.112 62.4241 463.111 62.4249 463.11 62.4258L460.493 63.9295L457.903 62.4278Z" stroke="#6150F4" stroke-width="7"/>
<path d="M1395.77 62.4278L1395.77 62.4263C1340.57 30.4786 1306.26 -28.9691 1306.26 -92.7014V-97.9231L1311.47 -97.9647C1341.14 -97.9672 1370.27 -105.778 1395.77 -120.553L1395.77 -120.554L1398.37 -122.063L1400.97 -120.554L1400.97 -120.553C1426.47 -105.776 1455.61 -97.9647 1485.29 -97.9647H1490.48V-92.7014C1490.48 -28.9471 1456.17 30.4985 1400.98 62.4233C1400.98 62.4241 1400.98 62.4249 1400.98 62.4258L1398.36 63.9295L1395.77 62.4278Z" stroke="#6150F4" stroke-width="7"/>
<path d="M457.903 296.042L457.901 296.041C402.705 264.093 368.397 204.645 368.397 140.913V135.691L373.603 135.65C403.275 135.647 432.407 127.836 457.902 113.061L457.903 113.06L460.505 111.552L463.106 113.06L463.107 113.061C488.606 127.838 517.743 135.65 547.421 135.65H552.612V140.913C552.612 204.667 518.306 264.113 463.114 296.038C463.112 296.038 463.111 296.039 463.11 296.04L460.493 297.544L457.903 296.042Z" stroke="#6150F4" stroke-width="7"/>
<path d="M1395.77 296.042L1395.77 296.041C1340.57 264.093 1306.26 204.645 1306.26 140.913V135.691L1311.47 135.65C1341.14 135.647 1370.27 127.836 1395.77 113.061L1395.77 113.06L1398.37 111.552L1400.97 113.06L1400.97 113.061C1426.47 127.838 1455.61 135.65 1485.29 135.65H1490.48V140.913C1490.48 204.667 1456.17 264.113 1400.98 296.038C1400.98 296.038 1400.98 296.039 1400.98 296.04L1398.36 297.544L1395.77 296.042Z" stroke="#6150F4" stroke-width="7"/>
<path d="M457.903 529.656L457.901 529.655C402.705 497.707 368.397 438.259 368.397 374.527V369.305L373.603 369.264C403.275 369.261 432.407 361.45 457.902 346.675L457.903 346.675L460.505 345.166L463.106 346.675L463.107 346.675C488.606 361.452 517.743 369.264 547.421 369.264H552.612V374.527C552.612 438.281 518.306 497.727 463.114 529.652C463.112 529.653 463.111 529.653 463.11 529.654L460.493 531.158L457.903 529.656Z" stroke="#6150F4" stroke-width="7"/>
<path d="M1395.77 529.656L1395.77 529.655C1340.57 497.707 1306.26 438.259 1306.26 374.527V369.305L1311.47 369.264C1341.14 369.261 1370.27 361.45 1395.77 346.675L1395.77 346.675L1398.37 345.166L1400.97 346.675L1400.97 346.675C1426.47 361.452 1455.61 369.264 1485.29 369.264H1490.48V374.527C1490.48 438.281 1456.17 497.727 1400.98 529.652C1400.98 529.653 1400.98 529.653 1400.98 529.654L1398.36 531.158L1395.77 529.656Z" stroke="#6150F4" stroke-width="7"/>
<path d="M457.903 763.271L457.901 763.269C402.705 731.321 368.397 671.874 368.397 608.141V602.92L373.603 602.878C403.275 602.876 432.407 595.064 457.902 580.289L457.903 580.289L460.505 578.78L463.106 580.289L463.107 580.289C488.606 595.067 517.743 602.878 547.421 602.878H552.612V608.141C552.612 671.896 518.306 731.341 463.114 763.266C463.112 763.267 463.111 763.268 463.11 763.268L460.493 764.772L457.903 763.271Z" stroke="#6150F4" stroke-width="7"/>
<path d="M1395.77 763.271L1395.77 763.269C1340.57 731.321 1306.26 671.874 1306.26 608.141V602.92L1311.47 602.878C1341.14 602.876 1370.27 595.064 1395.77 580.289L1395.77 580.289L1398.37 578.78L1400.97 580.289L1400.97 580.289C1426.47 595.067 1455.61 602.878 1485.29 602.878H1490.48V608.141C1490.48 671.896 1456.17 731.341 1400.98 763.266C1400.98 763.267 1400.98 763.268 1400.98 763.268L1398.36 764.772L1395.77 763.271Z" stroke="#6150F4" stroke-width="7"/>
<path d="M457.903 996.885L457.901 996.883C402.705 964.936 368.397 905.488 368.397 841.756V836.534L373.603 836.492C403.275 836.49 432.407 828.679 457.902 813.904L457.903 813.903L460.505 812.394L463.106 813.903L463.107 813.904C488.606 828.681 517.743 836.492 547.421 836.492H552.612V841.756C552.612 905.51 518.306 964.955 463.114 996.88C463.112 996.881 463.111 996.882 463.11 996.883L460.493 998.387L457.903 996.885Z" stroke="#6150F4" stroke-width="7"/>
<path d="M1395.77 996.885L1395.77 996.883C1340.57 964.936 1306.26 905.488 1306.26 841.756V836.534L1311.47 836.492C1341.14 836.49 1370.27 828.679 1395.77 813.904L1395.77 813.903L1398.37 812.394L1400.97 813.903L1400.97 813.904C1426.47 828.681 1455.61 836.492 1485.29 836.492H1490.48V841.756C1490.48 905.51 1456.17 964.955 1400.98 996.88C1400.98 996.881 1400.98 996.882 1400.98 996.883L1398.36 998.387L1395.77 996.885Z" stroke="#6150F4" stroke-width="7"/>
<path d="M457.903 1230.5L457.901 1230.5C402.705 1198.55 368.397 1139.1 368.397 1075.37V1070.15L373.603 1070.11C403.275 1070.1 432.407 1062.29 457.902 1047.52L457.903 1047.52L460.505 1046.01L463.106 1047.52L463.107 1047.52C488.606 1062.3 517.743 1070.11 547.421 1070.11H552.612V1075.37C552.612 1139.12 518.306 1198.57 463.114 1230.49C463.112 1230.5 463.111 1230.5 463.11 1230.5L460.493 1232L457.903 1230.5Z" stroke="#6150F4" stroke-width="7"/>
<path d="M1395.77 1230.5L1395.77 1230.5C1340.57 1198.55 1306.26 1139.1 1306.26 1075.37V1070.15L1311.47 1070.11C1341.14 1070.1 1370.27 1062.29 1395.77 1047.52L1395.77 1047.52L1398.37 1046.01L1400.97 1047.52L1400.97 1047.52C1426.47 1062.3 1455.61 1070.11 1485.29 1070.11H1490.48V1075.37C1490.48 1139.12 1456.17 1198.57 1400.98 1230.49C1400.98 1230.5 1400.98 1230.5 1400.98 1230.5L1398.36 1232L1395.77 1230.5Z" stroke="#6150F4" stroke-width="7"/>
<path d="M457.903 1464.11L457.901 1464.11C402.705 1432.16 368.397 1372.72 368.397 1308.98V1303.76L373.603 1303.72C403.275 1303.72 432.407 1295.91 457.902 1281.13L457.903 1281.13L460.505 1279.62L463.106 1281.13L463.107 1281.13C488.606 1295.91 517.743 1303.72 547.421 1303.72H552.612V1308.98C552.612 1372.74 518.306 1432.18 463.114 1464.11C463.112 1464.11 463.111 1464.11 463.11 1464.11L460.493 1465.62L457.903 1464.11Z" stroke="#6150F4" stroke-width="7"/>
<path d="M1395.77 1464.11L1395.77 1464.11C1340.57 1432.16 1306.26 1372.72 1306.26 1308.98V1303.76L1311.47 1303.72C1341.14 1303.72 1370.27 1295.91 1395.77 1281.13L1395.77 1281.13L1398.37 1279.62L1400.97 1281.13L1400.97 1281.13C1426.47 1295.91 1455.61 1303.72 1485.29 1303.72H1490.48V1308.98C1490.48 1372.74 1456.17 1432.18 1400.98 1464.11C1400.98 1464.11 1400.98 1464.11 1400.98 1464.11L1398.36 1465.62L1395.77 1464.11Z" stroke="#6150F4" stroke-width="7"/>
<path d="M457.903 1697.73L457.901 1697.73C402.705 1665.78 368.397 1606.33 368.397 1542.6V1537.38L373.603 1537.34C403.275 1537.33 432.407 1529.52 457.902 1514.75L457.903 1514.75L460.505 1513.24L463.106 1514.75L463.107 1514.75C488.606 1529.52 517.743 1537.34 547.421 1537.34H552.612V1542.6C552.612 1606.35 518.306 1665.8 463.114 1697.72C463.112 1697.72 463.111 1697.72 463.11 1697.73L460.493 1699.23L457.903 1697.73Z" stroke="#6150F4" stroke-width="7"/>
<path d="M457.903 1931.34L457.901 1931.34C402.705 1899.39 368.397 1839.95 368.397 1776.21V1770.99L373.603 1770.95C403.275 1770.95 432.407 1763.14 457.902 1748.36L457.903 1748.36L460.505 1746.85L463.106 1748.36L463.107 1748.36C488.606 1763.14 517.743 1770.95 547.421 1770.95H552.612V1776.21C552.612 1839.97 518.306 1899.41 463.114 1931.34C463.112 1931.34 463.111 1931.34 463.11 1931.34L460.493 1932.84L457.903 1931.34Z" stroke="#6150F4" stroke-width="7"/>
<path d="M457.903 2164.96L457.901 2164.96C402.705 2133.01 368.397 2073.56 368.397 2009.83V2004.61L373.603 2004.57C403.275 2004.56 432.407 1996.75 457.902 1981.98L457.903 1981.98L460.505 1980.47L463.106 1981.98L463.107 1981.98C488.606 1996.75 517.743 2004.57 547.421 2004.57H552.612V2009.83C552.612 2073.58 518.306 2133.03 463.114 2164.95C463.112 2164.95 463.111 2164.95 463.11 2164.96L460.493 2166.46L457.903 2164.96Z" stroke="#6150F4" stroke-width="7"/>
<path d="M457.903 2398.57L457.901 2398.57C402.705 2366.62 368.397 2307.18 368.397 2243.44V2238.22L373.603 2238.18C403.275 2238.18 432.407 2230.37 457.902 2215.59L457.903 2215.59L460.505 2214.08L463.106 2215.59L463.107 2215.59C488.606 2230.37 517.743 2238.18 547.421 2238.18H552.612V2243.44C552.612 2307.2 518.306 2366.64 463.114 2398.57C463.112 2398.57 463.111 2398.57 463.11 2398.57L460.493 2400.07L457.903 2398.57Z" stroke="#6150F4" stroke-width="7"/>
<path d="M457.903 2632.19L457.901 2632.19C402.705 2600.24 368.397 2540.79 368.397 2477.06V2471.84L373.603 2471.8C403.275 2471.79 432.407 2463.98 457.902 2449.21L457.903 2449.21L460.505 2447.7L463.106 2449.21L463.107 2449.21C488.606 2463.98 517.743 2471.8 547.421 2471.8H552.612V2477.06C552.612 2540.81 518.306 2600.26 463.114 2632.18C463.112 2632.18 463.111 2632.19 463.11 2632.19L460.493 2633.69L457.903 2632.19Z" stroke="#6150F4" stroke-width="7"/>
<path d="M457.903 2865.8L457.901 2865.8C402.705 2833.85 368.397 2774.41 368.397 2710.67V2705.45L373.603 2705.41C403.275 2705.41 432.407 2697.6 457.902 2682.82L457.903 2682.82L460.505 2681.31L463.106 2682.82L463.107 2682.82C488.606 2697.6 517.743 2705.41 547.421 2705.41H552.612V2710.67C552.612 2774.43 518.306 2833.87 463.114 2865.8C463.112 2865.8 463.111 2865.8 463.11 2865.8L460.493 2867.3L457.903 2865.8Z" stroke="#6150F4" stroke-width="7"/>
<path d="M1395.77 1697.73L1395.77 1697.73C1340.57 1665.78 1306.26 1606.33 1306.26 1542.6V1537.38L1311.47 1537.34C1341.14 1537.33 1370.27 1529.52 1395.77 1514.75L1395.77 1514.75L1398.37 1513.24L1400.97 1514.75L1400.97 1514.75C1426.47 1529.52 1455.61 1537.34 1485.29 1537.34H1490.48V1542.6C1490.48 1606.35 1456.17 1665.8 1400.98 1697.72C1400.98 1697.72 1400.98 1697.72 1400.98 1697.73L1398.36 1699.23L1395.77 1697.73Z" stroke="#6150F4" stroke-width="7"/>
<path d="M1395.77 1931.34L1395.77 1931.34C1340.57 1899.39 1306.26 1839.95 1306.26 1776.21V1770.99L1311.47 1770.95C1341.14 1770.95 1370.27 1763.14 1395.77 1748.36L1395.77 1748.36L1398.37 1746.85L1400.97 1748.36L1400.97 1748.36C1426.47 1763.14 1455.61 1770.95 1485.29 1770.95H1490.48V1776.21C1490.48 1839.97 1456.17 1899.41 1400.98 1931.34C1400.98 1931.34 1400.98 1931.34 1400.98 1931.34L1398.36 1932.84L1395.77 1931.34Z" stroke="#6150F4" stroke-width="7"/>
<path d="M1395.77 2164.96L1395.77 2164.96C1340.57 2133.01 1306.26 2073.56 1306.26 2009.83V2004.61L1311.47 2004.57C1341.14 2004.56 1370.27 1996.75 1395.77 1981.98L1395.77 1981.98L1398.37 1980.47L1400.97 1981.98L1400.97 1981.98C1426.47 1996.75 1455.61 2004.57 1485.29 2004.57H1490.48V2009.83C1490.48 2073.58 1456.17 2133.03 1400.98 2164.95C1400.98 2164.95 1400.98 2164.95 1400.98 2164.96L1398.36 2166.46L1395.77 2164.96Z" stroke="#6150F4" stroke-width="7"/>
<path d="M1395.77 2398.57L1395.77 2398.57C1340.57 2366.62 1306.26 2307.18 1306.26 2243.44V2238.22L1311.47 2238.18C1341.14 2238.18 1370.27 2230.37 1395.77 2215.59L1395.77 2215.59L1398.37 2214.08L1400.97 2215.59L1400.97 2215.59C1426.47 2230.37 1455.61 2238.18 1485.29 2238.18H1490.48V2243.44C1490.48 2307.2 1456.17 2366.64 1400.98 2398.57C1400.98 2398.57 1400.98 2398.57 1400.98 2398.57L1398.36 2400.07L1395.77 2398.57Z" stroke="#6150F4" stroke-width="7"/>
<path d="M1395.77 2632.19L1395.77 2632.19C1340.57 2600.24 1306.26 2540.79 1306.26 2477.06V2471.84L1311.47 2471.8C1341.14 2471.79 1370.27 2463.98 1395.77 2449.21L1395.77 2449.21L1398.37 2447.7L1400.97 2449.21L1400.97 2449.21C1426.47 2463.98 1455.61 2471.8 1485.29 2471.8H1490.48V2477.06C1490.48 2540.81 1456.17 2600.26 1400.98 2632.18C1400.98 2632.18 1400.98 2632.19 1400.98 2632.19L1398.36 2633.69L1395.77 2632.19Z" stroke="#6150F4" stroke-width="7"/>
<path d="M1395.77 2865.8L1395.77 2865.8C1340.57 2833.85 1306.26 2774.41 1306.26 2710.67V2705.45L1311.47 2705.41C1341.14 2705.41 1370.27 2697.6 1395.77 2682.82L1395.77 2682.82L1398.37 2681.31L1400.97 2682.82L1400.97 2682.82C1426.47 2697.6 1455.61 2705.41 1485.29 2705.41H1490.48V2710.67C1490.48 2774.43 1456.17 2833.87 1400.98 2865.8C1400.98 2865.8 1400.98 2865.8 1400.98 2865.8L1398.36 2867.3L1395.77 2865.8Z" stroke="#6150F4" stroke-width="7"/>
</g>
<defs>
<clipPath id="clip0_2001_4359">
<rect width="1390" height="2880" fill="white"/>
</clipPath>
</defs>
</svg>
