<svg width="1390" height="2880" viewBox="0 0 1390 2880" fill="none" xmlns="http://www.w3.org/2000/svg">
<g clip-path="url(#clip0_2001_4222)">
<path fill-rule="evenodd" clip-rule="evenodd" d="M-5.20977 178.037L0.559097 181.383V181.352L6.32796 178.037C80.8322 134.944 127.137 54.7127 127.137 -31.3505V-42.9525H115.629C77.1499 -42.9525 39.3762 -53.0812 6.32796 -72.2337L0.559097 -75.5792L-5.20977 -72.2337C-38.258 -53.0812 -76.0317 -42.9525 -114.511 -42.9525L-126.018 -42.8604V-31.3505C-126.018 54.6821 -79.714 134.914 -5.20977 178.037ZM-87.9777 48.1129C-96.4338 26.5058 -101.507 3.46224 -102.728 -20.209C-66.5193 -21.9892 -31.139 -31.8416 0.559097 -49.0604C32.2571 -31.8416 67.6375 -21.9892 103.846 -20.209C102.625 3.45393 97.5512 26.4993 89.0939 48.1112L46.8019 5.88036L0.558968 52.0734L-45.684 5.88036L-87.9777 48.1129ZM-77.7637 70.451L-45.684 38.415L0.558968 84.608L46.8019 38.415L78.881 70.4503C60.9445 104.524 34.1177 133.839 0.559097 154.649C-33.0001 133.822 -59.8272 104.517 -77.7637 70.451Z" fill="#6150F4"/>
<path fill-rule="evenodd" clip-rule="evenodd" d="M-5.20977 409.221L0.559097 412.567V412.536L6.32796 409.221C80.8322 366.128 127.137 285.897 127.137 199.833V188.231H115.629C77.1499 188.231 39.3762 178.103 6.32796 158.95L0.559097 155.605L-5.20977 158.95C-38.258 178.103 -76.0317 188.231 -114.511 188.231L-126.018 188.323V199.833C-126.018 285.866 -79.714 366.098 -5.20977 409.221ZM-87.9777 279.297C-96.4338 257.69 -101.507 234.646 -102.728 210.975C-66.5193 209.195 -31.139 199.342 0.559097 182.123C32.2571 199.342 67.6375 209.195 103.846 210.975C102.625 234.638 97.5512 257.683 89.0939 279.295L46.8019 237.064L0.558968 283.257L-45.684 237.064L-87.9777 279.297ZM-77.7637 301.635L-45.684 269.599L0.558968 315.792L46.8019 269.599L78.881 301.634C60.9445 335.707 34.1177 365.023 0.559097 385.833C-33.0001 365.006 -59.8272 335.701 -77.7637 301.635Z" fill="#6150F4"/>
<path fill-rule="evenodd" clip-rule="evenodd" d="M-5.20977 640.405L0.559097 643.751V643.72L6.32796 640.405C80.8322 597.312 127.137 517.08 127.137 431.017V419.415H115.629C77.1499 419.415 39.3762 409.286 6.32796 390.134L0.559097 386.788L-5.20977 390.134C-38.258 409.286 -76.0317 419.415 -114.511 419.415L-126.018 419.507V431.017C-126.018 517.05 -79.714 597.281 -5.20977 640.405ZM-87.9777 510.481C-96.4338 488.874 -101.507 465.83 -102.728 442.159C-66.5193 440.379 -31.139 430.526 0.559097 413.307C32.2571 430.526 67.6375 440.379 103.846 442.159C102.625 465.822 97.5512 488.867 89.0939 510.479L46.8019 468.248L0.558968 514.441L-45.684 468.248L-87.9777 510.481ZM-77.7637 532.819L-45.684 500.783L0.558968 546.976L46.8019 500.783L78.881 532.818C60.9445 566.891 34.1177 596.207 0.559097 617.017C-33.0001 596.19 -59.8272 566.884 -77.7637 532.819Z" fill="#6150F4"/>
<path fill-rule="evenodd" clip-rule="evenodd" d="M-5.20977 871.589L0.559097 874.934V874.904L6.32796 871.589C80.8322 828.496 127.137 748.264 127.137 662.201V650.599H115.629C77.1499 650.599 39.3762 640.47 6.32796 621.318L0.559097 617.972L-5.20977 621.318C-38.258 640.47 -76.0317 650.599 -114.511 650.599L-126.018 650.691V662.201C-126.018 748.233 -79.714 828.465 -5.20977 871.589ZM-87.9777 741.664C-96.4338 720.057 -101.507 697.014 -102.728 673.342C-66.5193 671.562 -31.139 661.71 0.559097 644.491C32.2571 661.71 67.6375 671.562 103.846 673.342C102.625 697.005 97.5512 720.051 89.0939 741.663L46.8019 699.432L0.558968 745.625L-45.684 699.432L-87.9777 741.664ZM-77.7637 764.002L-45.684 731.966L0.558968 778.159L46.8019 731.966L78.881 764.002C60.9445 798.075 34.1177 827.391 0.559097 848.201C-33.0001 827.373 -59.8272 798.068 -77.7637 764.002Z" fill="#6150F4"/>
<path fill-rule="evenodd" clip-rule="evenodd" d="M-5.20977 1102.77L0.559097 1106.12V1106.09L6.32796 1102.77C80.8322 1059.68 127.137 979.448 127.137 893.385V881.783H115.629C77.1499 881.783 39.3762 871.654 6.32796 852.502L0.559097 849.156L-5.20977 852.502C-38.258 871.654 -76.0317 881.783 -114.511 881.783L-126.018 881.875V893.385C-126.018 979.417 -79.714 1059.65 -5.20977 1102.77ZM-87.9777 972.848C-96.4338 951.241 -101.507 928.197 -102.728 904.526C-66.5193 902.746 -31.139 892.894 0.559097 875.675C32.2571 892.894 67.6375 902.746 103.846 904.526C102.625 928.189 97.5512 951.234 89.0939 972.846L46.8019 930.616L0.558968 976.809L-45.684 930.616L-87.9777 972.848ZM-77.7637 995.186L-45.684 963.15L0.558968 1009.34L46.8019 963.15L78.881 995.186C60.9445 1029.26 34.1177 1058.57 0.559097 1079.38C-33.0001 1058.56 -59.8272 1029.25 -77.7637 995.186Z" fill="#6150F4"/>
<path fill-rule="evenodd" clip-rule="evenodd" d="M-5.20977 1565.14L0.559097 1568.49V1568.45L6.32796 1565.14C80.8322 1522.05 127.137 1441.82 127.137 1355.75V1344.15H115.629C77.1499 1344.15 39.3762 1334.02 6.32796 1314.87L0.559097 1311.52L-5.20977 1314.87C-38.258 1334.02 -76.0317 1344.15 -114.511 1344.15L-126.018 1344.24V1355.75C-126.018 1441.78 -79.714 1522.02 -5.20977 1565.14ZM-87.9777 1435.22C-96.4338 1413.61 -101.507 1390.56 -102.728 1366.89C-66.5193 1365.11 -31.139 1355.26 0.559097 1338.04C32.2571 1355.26 67.6375 1365.11 103.846 1366.89C102.625 1390.56 97.5512 1413.6 89.0939 1435.21L46.8019 1392.98L0.558968 1439.18L-45.684 1392.98L-87.9777 1435.22ZM-77.7637 1457.55L-45.684 1425.52L0.558968 1471.71L46.8019 1425.52L78.881 1457.55C60.9445 1491.63 34.1177 1520.94 0.559097 1541.75C-33.0001 1520.92 -59.8272 1491.62 -77.7637 1457.55Z" fill="#6150F4"/>
<path fill-rule="evenodd" clip-rule="evenodd" d="M-5.20977 1333.96L0.559097 1337.3V1337.27L6.32796 1333.96C80.8322 1290.86 127.137 1210.63 127.137 1124.57V1112.97H115.629C77.1499 1112.97 39.3762 1102.84 6.32796 1083.69L0.559097 1080.34L-5.20977 1083.69C-38.258 1102.84 -76.0317 1112.97 -114.511 1112.97L-126.018 1113.06V1124.57C-126.018 1210.6 -79.714 1290.83 -5.20977 1333.96ZM-87.9777 1204.03C-96.4338 1182.42 -101.507 1159.38 -102.728 1135.71C-66.5193 1133.93 -31.139 1124.08 0.559097 1106.86C32.2571 1124.08 67.6375 1133.93 103.846 1135.71C102.625 1159.37 97.5512 1182.42 89.0939 1204.03L46.8019 1161.8L0.558968 1207.99L-45.684 1161.8L-87.9777 1204.03ZM-77.7637 1226.37L-45.684 1194.33L0.558968 1240.53L46.8019 1194.33L78.881 1226.37C60.9445 1260.44 34.1177 1289.76 0.559097 1310.57C-33.0001 1289.74 -59.8272 1260.44 -77.7637 1226.37Z" fill="#6150F4"/>
<path fill-rule="evenodd" clip-rule="evenodd" d="M-5.20977 1796.32L0.559097 1799.67V1799.64L6.32796 1796.32C80.8322 1753.23 127.137 1673 127.137 1586.93V1575.33H115.629C77.1499 1575.33 39.3762 1565.2 6.32796 1546.05L0.559097 1542.71L-5.20977 1546.05C-38.258 1565.2 -76.0317 1575.33 -114.511 1575.33L-126.018 1575.42V1586.93C-126.018 1672.97 -79.714 1753.2 -5.20977 1796.32ZM-87.9777 1666.4C-96.4338 1644.79 -101.507 1621.75 -102.728 1598.08C-66.5193 1596.3 -31.139 1586.44 0.559097 1569.22C32.2571 1586.44 67.6375 1596.3 103.846 1598.08C102.625 1621.74 97.5512 1644.78 89.0939 1666.4L46.8019 1624.17L0.558968 1670.36L-45.684 1624.17L-87.9777 1666.4ZM-77.7637 1688.74L-45.684 1656.7L0.558968 1702.89L46.8019 1656.7L78.881 1688.74C60.9445 1722.81 34.1177 1752.12 0.559097 1772.93C-33.0001 1752.11 -59.8272 1722.8 -77.7637 1688.74Z" fill="#6150F4"/>
<path fill-rule="evenodd" clip-rule="evenodd" d="M-5.20977 2027.51L0.559097 2030.85V2030.82L6.32796 2027.51C80.8322 1984.41 127.137 1904.18 127.137 1818.12V1806.52H115.629C77.1499 1806.52 39.3762 1796.39 6.32796 1777.23L0.559097 1773.89L-5.20977 1777.23C-38.258 1796.39 -76.0317 1806.52 -114.511 1806.52L-126.018 1806.61V1818.12C-126.018 1904.15 -79.714 1984.38 -5.20977 2027.51ZM-87.9777 1897.58C-96.4338 1875.97 -101.507 1852.93 -102.728 1829.26C-66.5193 1827.48 -31.139 1817.63 0.559097 1800.41C32.2571 1817.63 67.6375 1827.48 103.846 1829.26C102.625 1852.92 97.5512 1875.97 89.0939 1897.58L46.8019 1855.35L0.558968 1901.54L-45.684 1855.35L-87.9777 1897.58ZM-77.7637 1919.92L-45.684 1887.88L0.558968 1934.08L46.8019 1887.88L78.881 1919.92C60.9445 1953.99 34.1177 1983.31 0.559097 2004.12C-33.0001 1983.29 -59.8272 1953.98 -77.7637 1919.92Z" fill="#6150F4"/>
<path fill-rule="evenodd" clip-rule="evenodd" d="M-5.20977 2258.69L0.559097 2262.03V2262L6.32796 2258.69C80.8322 2215.59 127.137 2135.36 127.137 2049.3V2037.7H115.629C77.1499 2037.7 39.3762 2027.57 6.32796 2008.42L0.559097 2005.07L-5.20977 2008.42C-38.258 2027.57 -76.0317 2037.7 -114.511 2037.7L-126.018 2037.79V2049.3C-126.018 2135.33 -79.714 2215.56 -5.20977 2258.69ZM-87.9777 2128.76C-96.4338 2107.16 -101.507 2084.11 -102.728 2060.44C-66.5193 2058.66 -31.139 2048.81 0.559097 2031.59C32.2571 2048.81 67.6375 2058.66 103.846 2060.44C102.625 2084.1 97.5512 2107.15 89.0939 2128.76L46.8019 2086.53L0.558968 2132.72L-45.684 2086.53L-87.9777 2128.76ZM-77.7637 2151.1L-45.684 2119.07L0.558968 2165.26L46.8019 2119.07L78.881 2151.1C60.9445 2185.17 34.1177 2214.49 0.559097 2235.3C-33.0001 2214.47 -59.8272 2185.17 -77.7637 2151.1Z" fill="#6150F4"/>
<path fill-rule="evenodd" clip-rule="evenodd" d="M-5.20977 2489.87L0.559097 2493.22V2493.19L6.32796 2489.87C80.8322 2446.78 127.137 2366.55 127.137 2280.48V2268.88H115.629C77.1499 2268.88 39.3762 2258.75 6.32796 2239.6L0.559097 2236.26L-5.20977 2239.6C-38.258 2258.75 -76.0317 2268.88 -114.511 2268.88L-126.018 2268.97V2280.48C-126.018 2366.52 -79.714 2446.75 -5.20977 2489.87ZM-87.9777 2359.95C-96.4338 2338.34 -101.507 2315.3 -102.728 2291.63C-66.5193 2289.85 -31.139 2279.99 0.559097 2262.77C32.2571 2279.99 67.6375 2289.85 103.846 2291.63C102.625 2315.29 97.5512 2338.33 89.0939 2359.95L46.8019 2317.71L0.558968 2363.91L-45.684 2317.71L-87.9777 2359.95ZM-77.7637 2382.29L-45.684 2350.25L0.558968 2396.44L46.8019 2350.25L78.881 2382.28C60.9445 2416.36 34.1177 2445.67 0.559097 2466.48C-33.0001 2445.66 -59.8272 2416.35 -77.7637 2382.29Z" fill="#6150F4"/>
<path fill-rule="evenodd" clip-rule="evenodd" d="M-5.20977 2721.05L0.559097 2724.4V2724.37L6.32796 2721.05C80.8322 2677.96 127.137 2597.73 127.137 2511.67V2500.06H115.629C77.1499 2500.06 39.3762 2489.93 6.32796 2470.78L0.559097 2467.44L-5.20977 2470.78C-38.258 2489.93 -76.0317 2500.06 -114.511 2500.06L-126.018 2500.16V2511.67C-126.018 2597.7 -79.714 2677.93 -5.20977 2721.05ZM-87.9777 2591.13C-96.4338 2569.52 -101.507 2546.48 -102.728 2522.81C-66.5193 2521.03 -31.139 2511.17 0.559097 2493.96C32.2571 2511.17 67.6375 2521.03 103.846 2522.81C102.625 2546.47 97.5512 2569.51 89.0939 2591.13L46.8019 2548.9L0.558968 2595.09L-45.684 2548.9L-87.9777 2591.13ZM-77.7637 2613.47L-45.684 2581.43L0.558968 2627.62L46.8019 2581.43L78.881 2613.47C60.9445 2647.54 34.1177 2676.85 0.559097 2697.67C-33.0001 2676.84 -59.8272 2647.53 -77.7637 2613.47Z" fill="#6150F4"/>
<path fill-rule="evenodd" clip-rule="evenodd" d="M-5.20977 2952.23L0.559097 2955.58V2955.55L6.32796 2952.23C80.8322 2909.14 127.137 2828.91 127.137 2742.85V2731.24H115.629C77.1499 2731.24 39.3762 2721.12 6.32796 2701.96L0.559097 2698.62L-5.20977 2701.96C-38.258 2721.12 -76.0317 2731.24 -114.511 2731.24L-126.018 2731.34V2742.85C-126.018 2828.88 -79.714 2909.11 -5.20977 2952.23ZM-87.9777 2822.31C-96.4338 2800.7 -101.507 2777.66 -102.728 2753.99C-66.5193 2752.21 -31.139 2742.36 0.559097 2725.14C32.2571 2742.36 67.6375 2752.21 103.846 2753.99C102.625 2777.65 97.5512 2800.7 89.0939 2822.31L46.8019 2780.08L0.558968 2826.27L-45.684 2780.08L-87.9777 2822.31ZM-77.7637 2844.65L-45.684 2812.61L0.558968 2858.81L46.8019 2812.61L78.881 2844.65C60.9445 2878.72 34.1177 2908.04 0.559097 2928.85C-33.0001 2908.02 -59.8272 2878.71 -77.7637 2844.65Z" fill="#6150F4"/>
<path fill-rule="evenodd" clip-rule="evenodd" d="M226.27 178.037L232.039 181.383V181.352L237.808 178.037C312.312 134.944 358.617 54.7127 358.617 -31.3505V-42.9525H347.11C308.63 -42.9525 270.856 -53.0812 237.808 -72.2337L232.039 -75.5792L226.27 -72.2337C193.222 -53.0812 155.448 -42.9525 116.969 -42.9525L105.462 -42.8604V-31.3505C105.462 54.6821 151.766 134.914 226.27 178.037ZM143.503 48.1129C135.046 26.5058 129.973 3.46224 128.752 -20.209C164.961 -21.9892 200.341 -31.8416 232.039 -49.0604C263.737 -31.8416 299.118 -21.9892 335.327 -20.209C334.105 3.45393 329.031 26.4993 320.574 48.1112L278.282 5.88036L232.039 52.0734L185.796 5.88036L143.503 48.1129ZM153.717 70.451L185.796 38.415L232.039 84.608L278.282 38.415L310.361 70.4503C292.425 104.524 265.598 133.839 232.039 154.649C198.48 133.822 171.653 104.517 153.717 70.451Z" fill="#6150F4"/>
<path fill-rule="evenodd" clip-rule="evenodd" d="M226.27 409.221L232.039 412.567V412.536L237.808 409.221C312.312 366.128 358.617 285.897 358.617 199.833V188.231H347.11C308.63 188.231 270.856 178.103 237.808 158.95L232.039 155.605L226.27 158.95C193.222 178.103 155.448 188.231 116.969 188.231L105.462 188.323V199.833C105.462 285.866 151.766 366.098 226.27 409.221ZM143.503 279.297C135.046 257.69 129.973 234.646 128.752 210.975C164.961 209.195 200.341 199.342 232.039 182.123C263.737 199.342 299.118 209.195 335.327 210.975C334.105 234.638 329.031 257.683 320.574 279.295L278.282 237.064L232.039 283.257L185.796 237.064L143.503 279.297ZM153.717 301.635L185.796 269.599L232.039 315.792L278.282 269.599L310.361 301.634C292.425 335.707 265.598 365.023 232.039 385.833C198.48 365.006 171.653 335.701 153.717 301.635Z" fill="#6150F4"/>
<path fill-rule="evenodd" clip-rule="evenodd" d="M226.27 640.405L232.039 643.751V643.72L237.808 640.405C312.312 597.312 358.617 517.08 358.617 431.017V419.415H347.11C308.63 419.415 270.856 409.286 237.808 390.134L232.039 386.788L226.27 390.134C193.222 409.286 155.448 419.415 116.969 419.415L105.462 419.507V431.017C105.462 517.05 151.766 597.281 226.27 640.405ZM143.503 510.481C135.046 488.874 129.973 465.83 128.752 442.159C164.961 440.379 200.341 430.526 232.039 413.307C263.737 430.526 299.118 440.379 335.327 442.159C334.105 465.822 329.031 488.867 320.574 510.479L278.282 468.248L232.039 514.441L185.796 468.248L143.503 510.481ZM153.717 532.819L185.796 500.783L232.039 546.976L278.282 500.783L310.361 532.818C292.425 566.891 265.598 596.207 232.039 617.017C198.48 596.19 171.653 566.884 153.717 532.819Z" fill="#6150F4"/>
<path fill-rule="evenodd" clip-rule="evenodd" d="M226.27 871.589L232.039 874.934V874.904L237.808 871.589C312.312 828.496 358.617 748.264 358.617 662.201V650.599H347.11C308.63 650.599 270.856 640.47 237.808 621.318L232.039 617.972L226.27 621.318C193.222 640.47 155.448 650.599 116.969 650.599L105.462 650.691V662.201C105.462 748.233 151.766 828.465 226.27 871.589ZM143.503 741.664C135.046 720.057 129.973 697.014 128.752 673.342C164.961 671.562 200.341 661.71 232.039 644.491C263.737 661.71 299.118 671.562 335.327 673.342C334.105 697.005 329.031 720.051 320.574 741.663L278.282 699.432L232.039 745.625L185.796 699.432L143.503 741.664ZM153.717 764.002L185.796 731.966L232.039 778.159L278.282 731.966L310.361 764.002C292.425 798.075 265.598 827.391 232.039 848.201C198.48 827.373 171.653 798.068 153.717 764.002Z" fill="#6150F4"/>
<path fill-rule="evenodd" clip-rule="evenodd" d="M226.27 1565.14L232.039 1568.49V1568.45L237.808 1565.14C312.312 1522.05 358.617 1441.82 358.617 1355.75V1344.15H347.11C308.63 1344.15 270.856 1334.02 237.808 1314.87L232.039 1311.52L226.27 1314.87C193.222 1334.02 155.448 1344.15 116.969 1344.15L105.462 1344.24V1355.75C105.462 1441.78 151.766 1522.02 226.27 1565.14ZM143.503 1435.22C135.046 1413.61 129.973 1390.56 128.752 1366.89C164.961 1365.11 200.341 1355.26 232.039 1338.04C263.737 1355.26 299.118 1365.11 335.327 1366.89C334.105 1390.56 329.031 1413.6 320.574 1435.21L278.282 1392.98L232.039 1439.18L185.796 1392.98L143.503 1435.22ZM153.717 1457.55L185.796 1425.52L232.039 1471.71L278.282 1425.52L310.361 1457.55C292.425 1491.63 265.598 1520.94 232.039 1541.75C198.48 1520.92 171.653 1491.62 153.717 1457.55Z" fill="#6150F4"/>
<path fill-rule="evenodd" clip-rule="evenodd" d="M226.27 1102.77L232.039 1106.12V1106.09L237.808 1102.77C312.312 1059.68 358.617 979.448 358.617 893.385V881.783H347.11C308.63 881.783 270.856 871.654 237.808 852.502L232.039 849.156L226.27 852.502C193.222 871.654 155.448 881.783 116.969 881.783L105.462 881.875V893.385C105.462 979.417 151.766 1059.65 226.27 1102.77ZM143.503 972.848C135.046 951.241 129.973 928.197 128.752 904.526C164.961 902.746 200.341 892.894 232.039 875.675C263.737 892.894 299.118 902.746 335.327 904.526C334.105 928.189 329.031 951.234 320.574 972.846L278.282 930.616L232.039 976.809L185.796 930.616L143.503 972.848ZM153.717 995.186L185.796 963.15L232.039 1009.34L278.282 963.15L310.361 995.186C292.425 1029.26 265.598 1058.57 232.039 1079.38C198.48 1058.56 171.653 1029.25 153.717 995.186Z" fill="#6150F4"/>
<path fill-rule="evenodd" clip-rule="evenodd" d="M226.27 1333.96L232.039 1337.3V1337.27L237.808 1333.96C312.312 1290.86 358.617 1210.63 358.617 1124.57V1112.97H347.11C308.63 1112.97 270.856 1102.84 237.808 1083.69L232.039 1080.34L226.27 1083.69C193.222 1102.84 155.448 1112.97 116.969 1112.97L105.462 1113.06V1124.57C105.462 1210.6 151.766 1290.83 226.27 1333.96ZM143.503 1204.03C135.046 1182.42 129.973 1159.38 128.752 1135.71C164.961 1133.93 200.341 1124.08 232.039 1106.86C263.737 1124.08 299.118 1133.93 335.327 1135.71C334.105 1159.37 329.031 1182.42 320.574 1204.03L278.282 1161.8L232.039 1207.99L185.796 1161.8L143.503 1204.03ZM153.717 1226.37L185.796 1194.33L232.039 1240.53L278.282 1194.33L310.361 1226.37C292.425 1260.44 265.598 1289.76 232.039 1310.57C198.48 1289.74 171.653 1260.44 153.717 1226.37Z" fill="#6150F4"/>
<path fill-rule="evenodd" clip-rule="evenodd" d="M226.27 1796.32L232.039 1799.67V1799.64L237.808 1796.32C312.312 1753.23 358.617 1673 358.617 1586.93V1575.33H347.11C308.63 1575.33 270.856 1565.2 237.808 1546.05L232.039 1542.71L226.27 1546.05C193.222 1565.2 155.448 1575.33 116.969 1575.33L105.462 1575.42V1586.93C105.462 1672.97 151.766 1753.2 226.27 1796.32ZM143.503 1666.4C135.046 1644.79 129.973 1621.75 128.752 1598.08C164.961 1596.3 200.341 1586.44 232.039 1569.22C263.737 1586.44 299.118 1596.3 335.327 1598.08C334.105 1621.74 329.031 1644.78 320.574 1666.4L278.282 1624.17L232.039 1670.36L185.796 1624.17L143.503 1666.4ZM153.717 1688.74L185.796 1656.7L232.039 1702.89L278.282 1656.7L310.361 1688.74C292.425 1722.81 265.598 1752.12 232.039 1772.93C198.48 1752.11 171.653 1722.8 153.717 1688.74Z" fill="#6150F4"/>
<path fill-rule="evenodd" clip-rule="evenodd" d="M226.27 2027.51L232.039 2030.85V2030.82L237.808 2027.51C312.312 1984.41 358.617 1904.18 358.617 1818.12V1806.52H347.11C308.63 1806.52 270.856 1796.39 237.808 1777.23L232.039 1773.89L226.27 1777.23C193.222 1796.39 155.448 1806.52 116.969 1806.52L105.462 1806.61V1818.12C105.462 1904.15 151.766 1984.38 226.27 2027.51ZM143.503 1897.58C135.046 1875.97 129.973 1852.93 128.752 1829.26C164.961 1827.48 200.341 1817.63 232.039 1800.41C263.737 1817.63 299.118 1827.48 335.327 1829.26C334.105 1852.92 329.031 1875.97 320.574 1897.58L278.282 1855.35L232.039 1901.54L185.796 1855.35L143.503 1897.58ZM153.717 1919.92L185.796 1887.88L232.039 1934.08L278.282 1887.88L310.361 1919.92C292.425 1953.99 265.598 1983.31 232.039 2004.12C198.48 1983.29 171.653 1953.98 153.717 1919.92Z" fill="#6150F4"/>
<path fill-rule="evenodd" clip-rule="evenodd" d="M226.27 2258.69L232.039 2262.03V2262L237.808 2258.69C312.312 2215.59 358.617 2135.36 358.617 2049.3V2037.7H347.11C308.63 2037.7 270.856 2027.57 237.808 2008.42L232.039 2005.07L226.27 2008.42C193.222 2027.57 155.448 2037.7 116.969 2037.7L105.462 2037.79V2049.3C105.462 2135.33 151.766 2215.56 226.27 2258.69ZM143.503 2128.76C135.046 2107.16 129.973 2084.11 128.752 2060.44C164.961 2058.66 200.341 2048.81 232.039 2031.59C263.737 2048.81 299.118 2058.66 335.327 2060.44C334.105 2084.1 329.031 2107.15 320.574 2128.76L278.282 2086.53L232.039 2132.72L185.796 2086.53L143.503 2128.76ZM153.717 2151.1L185.796 2119.07L232.039 2165.26L278.282 2119.07L310.361 2151.1C292.425 2185.17 265.598 2214.49 232.039 2235.3C198.48 2214.47 171.653 2185.17 153.717 2151.1Z" fill="#6150F4"/>
<path fill-rule="evenodd" clip-rule="evenodd" d="M226.27 2489.87L232.039 2493.22V2493.19L237.808 2489.87C312.312 2446.78 358.617 2366.55 358.617 2280.48V2268.88H347.11C308.63 2268.88 270.856 2258.75 237.808 2239.6L232.039 2236.26L226.27 2239.6C193.222 2258.75 155.448 2268.88 116.969 2268.88L105.462 2268.97V2280.48C105.462 2366.52 151.766 2446.75 226.27 2489.87ZM143.503 2359.95C135.046 2338.34 129.973 2315.3 128.752 2291.63C164.961 2289.85 200.341 2279.99 232.039 2262.77C263.737 2279.99 299.118 2289.85 335.327 2291.63C334.105 2315.29 329.031 2338.33 320.574 2359.95L278.282 2317.71L232.039 2363.91L185.796 2317.71L143.503 2359.95ZM153.717 2382.29L185.796 2350.25L232.039 2396.44L278.282 2350.25L310.361 2382.28C292.425 2416.36 265.598 2445.67 232.039 2466.48C198.48 2445.66 171.653 2416.35 153.717 2382.29Z" fill="#6150F4"/>
<path fill-rule="evenodd" clip-rule="evenodd" d="M226.27 2721.05L232.039 2724.4V2724.37L237.808 2721.05C312.312 2677.96 358.617 2597.73 358.617 2511.67V2500.06H347.11C308.63 2500.06 270.856 2489.93 237.808 2470.78L232.039 2467.44L226.27 2470.78C193.222 2489.93 155.448 2500.06 116.969 2500.06L105.462 2500.16V2511.67C105.462 2597.7 151.766 2677.93 226.27 2721.05ZM143.503 2591.13C135.046 2569.52 129.973 2546.48 128.752 2522.81C164.961 2521.03 200.341 2511.17 232.039 2493.96C263.737 2511.17 299.118 2521.03 335.327 2522.81C334.105 2546.47 329.031 2569.51 320.574 2591.13L278.282 2548.9L232.039 2595.09L185.796 2548.9L143.503 2591.13ZM153.717 2613.47L185.796 2581.43L232.039 2627.62L278.282 2581.43L310.361 2613.47C292.425 2647.54 265.598 2676.85 232.039 2697.67C198.48 2676.84 171.653 2647.53 153.717 2613.47Z" fill="#6150F4"/>
<path fill-rule="evenodd" clip-rule="evenodd" d="M226.27 2952.23L232.039 2955.58V2955.55L237.808 2952.23C312.312 2909.14 358.617 2828.91 358.617 2742.85V2731.24H347.11C308.63 2731.24 270.856 2721.12 237.808 2701.96L232.039 2698.62L226.27 2701.96C193.222 2721.12 155.448 2731.24 116.969 2731.24L105.462 2731.34V2742.85C105.462 2828.88 151.766 2909.11 226.27 2952.23ZM143.503 2822.31C135.046 2800.7 129.973 2777.66 128.752 2753.99C164.961 2752.21 200.341 2742.36 232.039 2725.14C263.737 2742.36 299.118 2752.21 335.327 2753.99C334.105 2777.65 329.031 2800.7 320.574 2822.31L278.282 2780.08L232.039 2826.27L185.796 2780.08L143.503 2822.31ZM153.717 2844.65L185.796 2812.61L232.039 2858.81L278.282 2812.61L310.361 2844.65C292.425 2878.72 265.598 2908.04 232.039 2928.85C198.48 2908.02 171.653 2878.71 153.717 2844.65Z" fill="#6150F4"/>
<path fill-rule="evenodd" clip-rule="evenodd" d="M457.751 178.037L463.52 181.383V181.352L469.289 178.037C543.793 134.944 590.097 54.7127 590.097 -31.3505V-42.9525H578.59C540.111 -42.9525 502.337 -53.0812 469.289 -72.2337L463.52 -75.5792L457.751 -72.2337C424.703 -53.0812 386.929 -42.9525 348.449 -42.9525L336.942 -42.8604V-31.3505C336.942 54.6821 383.247 134.914 457.751 178.037ZM374.983 48.1129C366.527 26.5058 361.454 3.46224 360.233 -20.209C396.441 -21.9892 431.822 -31.8416 463.52 -49.0604C495.218 -31.8416 530.598 -21.9892 566.807 -20.209C565.586 3.45393 560.512 26.4993 552.055 48.1112L509.763 5.88036L463.52 52.0734L417.277 5.88036L374.983 48.1129ZM385.197 70.451L417.277 38.415L463.52 84.608L509.763 38.415L541.842 70.4503C523.905 104.524 497.078 133.839 463.52 154.649C429.961 133.822 403.133 104.517 385.197 70.451Z" fill="#6150F4"/>
<path fill-rule="evenodd" clip-rule="evenodd" d="M457.751 409.221L463.52 412.567V412.536L469.289 409.221C543.793 366.128 590.097 285.897 590.097 199.833V188.231H578.59C540.111 188.231 502.337 178.103 469.289 158.95L463.52 155.605L457.751 158.95C424.703 178.103 386.929 188.231 348.449 188.231L336.942 188.323V199.833C336.942 285.866 383.247 366.098 457.751 409.221ZM374.983 279.297C366.527 257.69 361.454 234.646 360.233 210.975C396.441 209.195 431.822 199.342 463.52 182.123C495.218 199.342 530.598 209.195 566.807 210.975C565.586 234.638 560.512 257.683 552.055 279.295L509.763 237.064L463.52 283.257L417.277 237.064L374.983 279.297ZM385.197 301.635L417.277 269.599L463.52 315.792L509.763 269.599L541.842 301.634C523.905 335.707 497.078 365.023 463.52 385.833C429.961 365.006 403.133 335.701 385.197 301.635Z" fill="#6150F4"/>
<path fill-rule="evenodd" clip-rule="evenodd" d="M457.751 640.405L463.52 643.751V643.72L469.289 640.405C543.793 597.312 590.097 517.08 590.097 431.017V419.415H578.59C540.111 419.415 502.337 409.286 469.289 390.134L463.52 386.788L457.751 390.134C424.703 409.286 386.929 419.415 348.449 419.415L336.942 419.507V431.017C336.942 517.05 383.247 597.281 457.751 640.405ZM374.983 510.481C366.527 488.874 361.454 465.83 360.233 442.159C396.441 440.379 431.822 430.526 463.52 413.307C495.218 430.526 530.598 440.379 566.807 442.159C565.586 465.822 560.512 488.867 552.055 510.479L509.763 468.248L463.52 514.441L417.277 468.248L374.983 510.481ZM385.197 532.819L417.277 500.783L463.52 546.976L509.763 500.783L541.842 532.818C523.905 566.891 497.078 596.207 463.52 617.017C429.961 596.19 403.133 566.884 385.197 532.819Z" fill="#6150F4"/>
<path fill-rule="evenodd" clip-rule="evenodd" d="M457.751 1565.14L463.52 1568.49V1568.45L469.289 1565.14C543.793 1522.05 590.097 1441.82 590.097 1355.75V1344.15H578.59C540.111 1344.15 502.337 1334.02 469.289 1314.87L463.52 1311.52L457.751 1314.87C424.703 1334.02 386.929 1344.15 348.449 1344.15L336.942 1344.24V1355.75C336.942 1441.78 383.247 1522.02 457.751 1565.14ZM374.983 1435.22C366.527 1413.61 361.454 1390.56 360.233 1366.89C396.441 1365.11 431.822 1355.26 463.52 1338.04C495.218 1355.26 530.598 1365.11 566.807 1366.89C565.586 1390.56 560.512 1413.6 552.055 1435.21L509.763 1392.98L463.52 1439.18L417.277 1392.98L374.983 1435.22ZM385.197 1457.55L417.277 1425.52L463.52 1471.71L509.763 1425.52L541.842 1457.55C523.905 1491.63 497.078 1520.94 463.52 1541.75C429.961 1520.92 403.133 1491.62 385.197 1457.55Z" fill="#6150F4"/>
<path fill-rule="evenodd" clip-rule="evenodd" d="M457.751 871.589L463.52 874.934V874.904L469.289 871.589C543.793 828.496 590.097 748.264 590.097 662.201V650.599H578.59C540.111 650.599 502.337 640.47 469.289 621.318L463.52 617.972L457.751 621.318C424.703 640.47 386.929 650.599 348.449 650.599L336.942 650.691V662.201C336.942 748.233 383.247 828.465 457.751 871.589ZM374.983 741.664C366.527 720.057 361.454 697.014 360.233 673.342C396.441 671.562 431.822 661.71 463.52 644.491C495.218 661.71 530.598 671.562 566.807 673.342C565.586 697.005 560.512 720.051 552.055 741.663L509.763 699.432L463.52 745.625L417.277 699.432L374.983 741.664ZM385.197 764.002L417.277 731.966L463.52 778.159L509.763 731.966L541.842 764.002C523.905 798.075 497.078 827.391 463.52 848.201C429.961 827.373 403.133 798.068 385.197 764.002Z" fill="#6150F4"/>
<path fill-rule="evenodd" clip-rule="evenodd" d="M457.751 1102.77L463.52 1106.12V1106.09L469.289 1102.77C543.793 1059.68 590.097 979.448 590.097 893.385V881.783H578.59C540.111 881.783 502.337 871.654 469.289 852.502L463.52 849.156L457.751 852.502C424.703 871.654 386.929 881.783 348.449 881.783L336.942 881.875V893.385C336.942 979.417 383.247 1059.65 457.751 1102.77ZM374.983 972.848C366.527 951.241 361.454 928.197 360.233 904.526C396.441 902.746 431.822 892.894 463.52 875.675C495.218 892.894 530.598 902.746 566.807 904.526C565.586 928.189 560.512 951.234 552.055 972.846L509.763 930.616L463.52 976.809L417.277 930.616L374.983 972.848ZM385.197 995.186L417.277 963.15L463.52 1009.34L509.763 963.15L541.842 995.186C523.905 1029.26 497.078 1058.57 463.52 1079.38C429.961 1058.56 403.133 1029.25 385.197 995.186Z" fill="#6150F4"/>
<path fill-rule="evenodd" clip-rule="evenodd" d="M457.751 1333.96L463.52 1337.3V1337.27L469.289 1333.96C543.793 1290.86 590.097 1210.63 590.097 1124.57V1112.97H578.59C540.111 1112.97 502.337 1102.84 469.289 1083.69L463.52 1080.34L457.751 1083.69C424.703 1102.84 386.929 1112.97 348.449 1112.97L336.942 1113.06V1124.57C336.942 1210.6 383.247 1290.83 457.751 1333.96ZM374.983 1204.03C366.527 1182.42 361.454 1159.38 360.233 1135.71C396.441 1133.93 431.822 1124.08 463.52 1106.86C495.218 1124.08 530.598 1133.93 566.807 1135.71C565.586 1159.37 560.512 1182.42 552.055 1204.03L509.763 1161.8L463.52 1207.99L417.277 1161.8L374.983 1204.03ZM385.197 1226.37L417.277 1194.33L463.52 1240.53L509.763 1194.33L541.842 1226.37C523.905 1260.44 497.078 1289.76 463.52 1310.57C429.961 1289.74 403.133 1260.44 385.197 1226.37Z" fill="#6150F4"/>
<path fill-rule="evenodd" clip-rule="evenodd" d="M457.751 1796.32L463.52 1799.67V1799.64L469.289 1796.32C543.793 1753.23 590.097 1673 590.097 1586.93V1575.33H578.59C540.111 1575.33 502.337 1565.2 469.289 1546.05L463.52 1542.71L457.751 1546.05C424.703 1565.2 386.929 1575.33 348.449 1575.33L336.942 1575.42V1586.93C336.942 1672.97 383.247 1753.2 457.751 1796.32ZM374.983 1666.4C366.527 1644.79 361.454 1621.75 360.233 1598.08C396.441 1596.3 431.822 1586.44 463.52 1569.22C495.218 1586.44 530.598 1596.3 566.807 1598.08C565.586 1621.74 560.512 1644.78 552.055 1666.4L509.763 1624.17L463.52 1670.36L417.277 1624.17L374.983 1666.4ZM385.197 1688.74L417.277 1656.7L463.52 1702.89L509.763 1656.7L541.842 1688.74C523.905 1722.81 497.078 1752.12 463.52 1772.93C429.961 1752.11 403.133 1722.8 385.197 1688.74Z" fill="#6150F4"/>
<path fill-rule="evenodd" clip-rule="evenodd" d="M457.751 2027.51L463.52 2030.85V2030.82L469.289 2027.51C543.793 1984.41 590.097 1904.18 590.097 1818.12V1806.52H578.59C540.111 1806.52 502.337 1796.39 469.289 1777.23L463.52 1773.89L457.751 1777.23C424.703 1796.39 386.929 1806.52 348.449 1806.52L336.942 1806.61V1818.12C336.942 1904.15 383.247 1984.38 457.751 2027.51ZM374.983 1897.58C366.527 1875.97 361.454 1852.93 360.233 1829.26C396.441 1827.48 431.822 1817.63 463.52 1800.41C495.218 1817.63 530.598 1827.48 566.807 1829.26C565.586 1852.92 560.512 1875.97 552.055 1897.58L509.763 1855.35L463.52 1901.54L417.277 1855.35L374.983 1897.58ZM385.197 1919.92L417.277 1887.88L463.52 1934.08L509.763 1887.88L541.842 1919.92C523.905 1953.99 497.078 1983.31 463.52 2004.12C429.961 1983.29 403.133 1953.98 385.197 1919.92Z" fill="#6150F4"/>
<path fill-rule="evenodd" clip-rule="evenodd" d="M457.751 2258.69L463.52 2262.03V2262L469.289 2258.69C543.793 2215.59 590.097 2135.36 590.097 2049.3V2037.7H578.59C540.111 2037.7 502.337 2027.57 469.289 2008.42L463.52 2005.07L457.751 2008.42C424.703 2027.57 386.929 2037.7 348.449 2037.7L336.942 2037.79V2049.3C336.942 2135.33 383.247 2215.56 457.751 2258.69ZM374.983 2128.76C366.527 2107.16 361.454 2084.11 360.233 2060.44C396.441 2058.66 431.822 2048.81 463.52 2031.59C495.218 2048.81 530.598 2058.66 566.807 2060.44C565.586 2084.1 560.512 2107.15 552.055 2128.76L509.763 2086.53L463.52 2132.72L417.277 2086.53L374.983 2128.76ZM385.197 2151.1L417.277 2119.07L463.52 2165.26L509.763 2119.07L541.842 2151.1C523.905 2185.17 497.078 2214.49 463.52 2235.3C429.961 2214.47 403.133 2185.17 385.197 2151.1Z" fill="#6150F4"/>
<path fill-rule="evenodd" clip-rule="evenodd" d="M457.751 2489.87L463.52 2493.22V2493.19L469.289 2489.87C543.793 2446.78 590.097 2366.55 590.097 2280.48V2268.88H578.59C540.111 2268.88 502.337 2258.75 469.289 2239.6L463.52 2236.26L457.751 2239.6C424.703 2258.75 386.929 2268.88 348.449 2268.88L336.942 2268.97V2280.48C336.942 2366.52 383.247 2446.75 457.751 2489.87ZM374.983 2359.95C366.527 2338.34 361.454 2315.3 360.233 2291.63C396.441 2289.85 431.822 2279.99 463.52 2262.77C495.218 2279.99 530.598 2289.85 566.807 2291.63C565.586 2315.29 560.512 2338.33 552.055 2359.95L509.763 2317.71L463.52 2363.91L417.277 2317.71L374.983 2359.95ZM385.197 2382.29L417.277 2350.25L463.52 2396.44L509.763 2350.25L541.842 2382.28C523.905 2416.36 497.078 2445.67 463.52 2466.48C429.961 2445.66 403.133 2416.35 385.197 2382.29Z" fill="#6150F4"/>
<path fill-rule="evenodd" clip-rule="evenodd" d="M457.751 2721.05L463.52 2724.4V2724.37L469.289 2721.05C543.793 2677.96 590.097 2597.73 590.097 2511.67V2500.06H578.59C540.111 2500.06 502.337 2489.93 469.289 2470.78L463.52 2467.44L457.751 2470.78C424.703 2489.93 386.929 2500.06 348.449 2500.06L336.942 2500.16V2511.67C336.942 2597.7 383.247 2677.93 457.751 2721.05ZM374.983 2591.13C366.527 2569.52 361.454 2546.48 360.233 2522.81C396.441 2521.03 431.822 2511.17 463.52 2493.96C495.218 2511.17 530.598 2521.03 566.807 2522.81C565.586 2546.47 560.512 2569.51 552.055 2591.13L509.763 2548.9L463.52 2595.09L417.277 2548.9L374.983 2591.13ZM385.197 2613.47L417.277 2581.43L463.52 2627.62L509.763 2581.43L541.842 2613.47C523.905 2647.54 497.078 2676.85 463.52 2697.67C429.961 2676.84 403.133 2647.53 385.197 2613.47Z" fill="#6150F4"/>
<path fill-rule="evenodd" clip-rule="evenodd" d="M457.751 2952.23L463.52 2955.58V2955.55L469.289 2952.23C543.793 2909.14 590.097 2828.91 590.097 2742.85V2731.24H578.59C540.111 2731.24 502.337 2721.12 469.289 2701.96L463.52 2698.62L457.751 2701.96C424.703 2721.12 386.929 2731.24 348.449 2731.24L336.942 2731.34V2742.85C336.942 2828.88 383.247 2909.11 457.751 2952.23ZM374.983 2822.31C366.527 2800.7 361.454 2777.66 360.233 2753.99C396.441 2752.21 431.822 2742.36 463.52 2725.14C495.218 2742.36 530.598 2752.21 566.807 2753.99C565.586 2777.65 560.512 2800.7 552.055 2822.31L509.763 2780.08L463.52 2826.27L417.277 2780.08L374.983 2822.31ZM385.197 2844.65L417.277 2812.61L463.52 2858.81L509.763 2812.61L541.842 2844.65C523.905 2878.72 497.078 2908.04 463.52 2928.85C429.961 2908.02 403.133 2878.71 385.197 2844.65Z" fill="#6150F4"/>
<path fill-rule="evenodd" clip-rule="evenodd" d="M689.231 178.037L695 181.383V181.352L700.769 178.037C775.273 134.944 821.577 54.7127 821.577 -31.3505V-42.9525H810.07C771.591 -42.9525 733.817 -53.0812 700.769 -72.2337L695 -75.5792L689.231 -72.2337C656.183 -53.0812 618.409 -42.9525 579.93 -42.9525L568.423 -42.8604V-31.3505C568.423 54.6821 614.727 134.914 689.231 178.037ZM606.463 48.1129C598.007 26.5058 592.934 3.46224 591.713 -20.209C627.922 -21.9892 663.302 -31.8416 695 -49.0604C726.698 -31.8416 762.078 -21.9892 798.287 -20.209C797.066 3.45393 791.992 26.4993 783.535 48.1112L741.243 5.88036L695 52.0734L648.757 5.88036L606.463 48.1129ZM616.677 70.451L648.757 38.415L695 84.608L741.243 38.415L773.322 70.4503C755.385 104.524 728.559 133.839 695 154.649C661.441 133.822 634.614 104.517 616.677 70.451Z" fill="#6150F4"/>
<path fill-rule="evenodd" clip-rule="evenodd" d="M689.231 409.221L695 412.567V412.536L700.769 409.221C775.273 366.128 821.577 285.897 821.577 199.833V188.231H810.07C771.591 188.231 733.817 178.103 700.769 158.95L695 155.605L689.231 158.95C656.183 178.103 618.409 188.231 579.93 188.231L568.423 188.323V199.833C568.423 285.866 614.727 366.098 689.231 409.221ZM606.463 279.297C598.007 257.69 592.934 234.646 591.713 210.975C627.922 209.195 663.302 199.342 695 182.123C726.698 199.342 762.078 209.195 798.287 210.975C797.066 234.638 791.992 257.683 783.535 279.295L741.243 237.064L695 283.257L648.757 237.064L606.463 279.297ZM616.677 301.635L648.757 269.599L695 315.792L741.243 269.599L773.322 301.634C755.385 335.707 728.559 365.023 695 385.833C661.441 365.006 634.614 335.701 616.677 301.635Z" fill="#6150F4"/>
<path fill-rule="evenodd" clip-rule="evenodd" d="M689.231 1565.14L695 1568.49V1568.45L700.769 1565.14C775.273 1522.05 821.577 1441.82 821.577 1355.75V1344.15H810.07C771.591 1344.15 733.817 1334.02 700.769 1314.87L695 1311.52L689.231 1314.87C656.183 1334.02 618.409 1344.15 579.93 1344.15L568.423 1344.24V1355.75C568.423 1441.78 614.727 1522.02 689.231 1565.14ZM606.463 1435.22C598.007 1413.61 592.934 1390.56 591.713 1366.89C627.922 1365.11 663.302 1355.26 695 1338.04C726.698 1355.26 762.078 1365.11 798.287 1366.89C797.066 1390.56 791.992 1413.6 783.535 1435.21L741.243 1392.98L695 1439.18L648.757 1392.98L606.463 1435.22ZM616.677 1457.55L648.757 1425.52L695 1471.71L741.243 1425.52L773.322 1457.55C755.385 1491.63 728.559 1520.94 695 1541.75C661.441 1520.92 634.614 1491.62 616.677 1457.55Z" fill="#6150F4"/>
<path fill-rule="evenodd" clip-rule="evenodd" d="M689.231 640.405L695 643.751V643.72L700.769 640.405C775.273 597.312 821.577 517.08 821.577 431.017V419.415H810.07C771.591 419.415 733.817 409.286 700.769 390.134L695 386.788L689.231 390.134C656.183 409.286 618.409 419.415 579.93 419.415L568.423 419.507V431.017C568.423 517.05 614.727 597.281 689.231 640.405ZM606.463 510.481C598.007 488.874 592.934 465.83 591.713 442.159C627.922 440.379 663.302 430.526 695 413.307C726.698 430.526 762.078 440.379 798.287 442.159C797.066 465.822 791.992 488.867 783.535 510.479L741.243 468.248L695 514.441L648.757 468.248L606.463 510.481ZM616.677 532.819L648.757 500.783L695 546.976L741.243 500.783L773.322 532.818C755.385 566.891 728.559 596.207 695 617.017C661.441 596.19 634.614 566.884 616.677 532.819Z" fill="#6150F4"/>
<path fill-rule="evenodd" clip-rule="evenodd" d="M689.231 871.589L695 874.934V874.904L700.769 871.589C775.273 828.496 821.577 748.264 821.577 662.201V650.599H810.07C771.591 650.599 733.817 640.47 700.769 621.318L695 617.972L689.231 621.318C656.183 640.47 618.409 650.599 579.93 650.599L568.423 650.691V662.201C568.423 748.233 614.727 828.465 689.231 871.589ZM606.463 741.664C598.007 720.057 592.934 697.014 591.713 673.342C627.922 671.562 663.302 661.71 695 644.491C726.698 661.71 762.078 671.562 798.287 673.342C797.066 697.005 791.992 720.051 783.535 741.663L741.243 699.432L695 745.625L648.757 699.432L606.463 741.664ZM616.677 764.002L648.757 731.966L695 778.159L741.243 731.966L773.322 764.002C755.385 798.075 728.559 827.391 695 848.201C661.441 827.373 634.614 798.068 616.677 764.002Z" fill="#6150F4"/>
<path fill-rule="evenodd" clip-rule="evenodd" d="M689.231 1102.77L695 1106.12V1106.09L700.769 1102.77C775.273 1059.68 821.577 979.448 821.577 893.385V881.783H810.07C771.591 881.783 733.817 871.654 700.769 852.502L695 849.156L689.231 852.502C656.183 871.654 618.409 881.783 579.93 881.783L568.423 881.875V893.385C568.423 979.417 614.727 1059.65 689.231 1102.77ZM606.463 972.848C598.007 951.241 592.934 928.197 591.713 904.526C627.922 902.746 663.302 892.894 695 875.675C726.698 892.894 762.078 902.746 798.287 904.526C797.066 928.189 791.992 951.234 783.535 972.846L741.243 930.616L695 976.809L648.757 930.616L606.463 972.848ZM616.677 995.186L648.757 963.15L695 1009.34L741.243 963.15L773.322 995.186C755.385 1029.26 728.559 1058.57 695 1079.38C661.441 1058.56 634.614 1029.25 616.677 995.186Z" fill="#6150F4"/>
<path fill-rule="evenodd" clip-rule="evenodd" d="M689.231 1333.96L695 1337.3V1337.27L700.769 1333.96C775.273 1290.86 821.577 1210.63 821.577 1124.57V1112.97H810.07C771.591 1112.97 733.817 1102.84 700.769 1083.69L695 1080.34L689.231 1083.69C656.183 1102.84 618.409 1112.97 579.93 1112.97L568.423 1113.06V1124.57C568.423 1210.6 614.727 1290.83 689.231 1333.96ZM606.463 1204.03C598.007 1182.42 592.934 1159.38 591.713 1135.71C627.922 1133.93 663.302 1124.08 695 1106.86C726.698 1124.08 762.078 1133.93 798.287 1135.71C797.066 1159.37 791.992 1182.42 783.535 1204.03L741.243 1161.8L695 1207.99L648.757 1161.8L606.463 1204.03ZM616.677 1226.37L648.757 1194.33L695 1240.53L741.243 1194.33L773.322 1226.37C755.385 1260.44 728.559 1289.76 695 1310.57C661.441 1289.74 634.614 1260.44 616.677 1226.37Z" fill="#6150F4"/>
<path fill-rule="evenodd" clip-rule="evenodd" d="M689.231 1796.32L695 1799.67V1799.64L700.769 1796.32C775.273 1753.23 821.577 1673 821.577 1586.93V1575.33H810.07C771.591 1575.33 733.817 1565.2 700.769 1546.05L695 1542.71L689.231 1546.05C656.183 1565.2 618.409 1575.33 579.93 1575.33L568.423 1575.42V1586.93C568.423 1672.97 614.727 1753.2 689.231 1796.32ZM606.463 1666.4C598.007 1644.79 592.934 1621.75 591.713 1598.08C627.922 1596.3 663.302 1586.44 695 1569.22C726.698 1586.44 762.078 1596.3 798.287 1598.08C797.066 1621.74 791.992 1644.78 783.535 1666.4L741.243 1624.17L695 1670.36L648.757 1624.17L606.463 1666.4ZM616.677 1688.74L648.757 1656.7L695 1702.89L741.243 1656.7L773.322 1688.74C755.385 1722.81 728.559 1752.12 695 1772.93C661.441 1752.11 634.614 1722.8 616.677 1688.74Z" fill="#6150F4"/>
<path fill-rule="evenodd" clip-rule="evenodd" d="M689.231 2027.51L695 2030.85V2030.82L700.769 2027.51C775.273 1984.41 821.577 1904.18 821.577 1818.12V1806.52H810.07C771.591 1806.52 733.817 1796.39 700.769 1777.23L695 1773.89L689.231 1777.23C656.183 1796.39 618.409 1806.52 579.93 1806.52L568.423 1806.61V1818.12C568.423 1904.15 614.727 1984.38 689.231 2027.51ZM606.463 1897.58C598.007 1875.97 592.934 1852.93 591.713 1829.26C627.922 1827.48 663.302 1817.63 695 1800.41C726.698 1817.63 762.078 1827.48 798.287 1829.26C797.066 1852.92 791.992 1875.97 783.535 1897.58L741.243 1855.35L695 1901.54L648.757 1855.35L606.463 1897.58ZM616.677 1919.92L648.757 1887.88L695 1934.08L741.243 1887.88L773.322 1919.92C755.385 1953.99 728.559 1983.31 695 2004.12C661.441 1983.29 634.614 1953.98 616.677 1919.92Z" fill="#6150F4"/>
<path fill-rule="evenodd" clip-rule="evenodd" d="M689.231 2258.69L695 2262.03V2262L700.769 2258.69C775.273 2215.59 821.577 2135.36 821.577 2049.3V2037.7H810.07C771.591 2037.7 733.817 2027.57 700.769 2008.42L695 2005.07L689.231 2008.42C656.183 2027.57 618.409 2037.7 579.93 2037.7L568.423 2037.79V2049.3C568.423 2135.33 614.727 2215.56 689.231 2258.69ZM606.463 2128.76C598.007 2107.16 592.934 2084.11 591.713 2060.44C627.922 2058.66 663.302 2048.81 695 2031.59C726.698 2048.81 762.078 2058.66 798.287 2060.44C797.066 2084.1 791.992 2107.15 783.535 2128.76L741.243 2086.53L695 2132.72L648.757 2086.53L606.463 2128.76ZM616.677 2151.1L648.757 2119.07L695 2165.26L741.243 2119.07L773.322 2151.1C755.385 2185.17 728.559 2214.49 695 2235.3C661.441 2214.47 634.614 2185.17 616.677 2151.1Z" fill="#6150F4"/>
<path fill-rule="evenodd" clip-rule="evenodd" d="M689.231 2489.87L695 2493.22V2493.19L700.769 2489.87C775.273 2446.78 821.577 2366.55 821.577 2280.48V2268.88H810.07C771.591 2268.88 733.817 2258.75 700.769 2239.6L695 2236.26L689.231 2239.6C656.183 2258.75 618.409 2268.88 579.93 2268.88L568.423 2268.97V2280.48C568.423 2366.52 614.727 2446.75 689.231 2489.87ZM606.463 2359.95C598.007 2338.34 592.934 2315.3 591.713 2291.63C627.922 2289.85 663.302 2279.99 695 2262.77C726.698 2279.99 762.078 2289.85 798.287 2291.63C797.066 2315.29 791.992 2338.33 783.535 2359.95L741.243 2317.71L695 2363.91L648.757 2317.71L606.463 2359.95ZM616.677 2382.29L648.757 2350.25L695 2396.44L741.243 2350.25L773.322 2382.28C755.385 2416.36 728.559 2445.67 695 2466.48C661.441 2445.66 634.614 2416.35 616.677 2382.29Z" fill="#6150F4"/>
<path fill-rule="evenodd" clip-rule="evenodd" d="M689.231 2721.05L695 2724.4V2724.37L700.769 2721.05C775.273 2677.96 821.577 2597.73 821.577 2511.67V2500.06H810.07C771.591 2500.06 733.817 2489.93 700.769 2470.78L695 2467.44L689.231 2470.78C656.183 2489.93 618.409 2500.06 579.93 2500.06L568.423 2500.16V2511.67C568.423 2597.7 614.727 2677.93 689.231 2721.05ZM606.463 2591.13C598.007 2569.52 592.934 2546.48 591.713 2522.81C627.922 2521.03 663.302 2511.17 695 2493.96C726.698 2511.17 762.078 2521.03 798.287 2522.81C797.066 2546.47 791.992 2569.51 783.535 2591.13L741.243 2548.9L695 2595.09L648.757 2548.9L606.463 2591.13ZM616.677 2613.47L648.757 2581.43L695 2627.62L741.243 2581.43L773.322 2613.47C755.385 2647.54 728.559 2676.85 695 2697.67C661.441 2676.84 634.614 2647.53 616.677 2613.47Z" fill="#6150F4"/>
<path fill-rule="evenodd" clip-rule="evenodd" d="M689.231 2952.23L695 2955.58V2955.55L700.769 2952.23C775.273 2909.14 821.577 2828.91 821.577 2742.85V2731.24H810.07C771.591 2731.24 733.817 2721.12 700.769 2701.96L695 2698.62L689.231 2701.96C656.183 2721.12 618.409 2731.24 579.93 2731.24L568.423 2731.34V2742.85C568.423 2828.88 614.727 2909.11 689.231 2952.23ZM606.463 2822.31C598.007 2800.7 592.934 2777.66 591.713 2753.99C627.922 2752.21 663.302 2742.36 695 2725.14C726.698 2742.36 762.078 2752.21 798.287 2753.99C797.066 2777.65 791.992 2800.7 783.535 2822.31L741.243 2780.08L695 2826.27L648.757 2780.08L606.463 2822.31ZM616.677 2844.65L648.757 2812.61L695 2858.81L741.243 2812.61L773.322 2844.65C755.385 2878.72 728.559 2908.04 695 2928.85C661.441 2908.02 634.614 2878.71 616.677 2844.65Z" fill="#6150F4"/>
<path fill-rule="evenodd" clip-rule="evenodd" d="M920.711 178.037L926.48 181.383V181.352L932.249 178.037C1006.75 134.944 1053.06 54.7127 1053.06 -31.3505V-42.9525H1041.55C1003.07 -42.9525 965.297 -53.0812 932.249 -72.2337L926.48 -75.5792L920.711 -72.2337C887.663 -53.0812 849.889 -42.9525 811.41 -42.9525L799.903 -42.8604V-31.3505C799.903 54.6821 846.207 134.914 920.711 178.037ZM837.943 48.1129C829.487 26.5058 824.414 3.46224 823.193 -20.209C859.402 -21.9892 894.782 -31.8416 926.48 -49.0604C958.178 -31.8416 993.559 -21.9892 1029.77 -20.209C1028.55 3.45393 1023.47 26.4993 1015.02 48.1112L972.723 5.88036L926.48 52.0734L880.237 5.88036L837.943 48.1129ZM848.157 70.451L880.237 38.415L926.48 84.608L972.723 38.415L1004.8 70.4503C986.866 104.524 960.039 133.839 926.48 154.649C892.921 133.822 866.094 104.517 848.157 70.451Z" fill="#6150F4"/>
<path fill-rule="evenodd" clip-rule="evenodd" d="M920.711 1565.14L926.48 1568.49V1568.45L932.249 1565.14C1006.75 1522.05 1053.06 1441.82 1053.06 1355.75V1344.15H1041.55C1003.07 1344.15 965.297 1334.02 932.249 1314.87L926.48 1311.52L920.711 1314.87C887.663 1334.02 849.889 1344.15 811.41 1344.15L799.903 1344.24V1355.75C799.903 1441.78 846.207 1522.02 920.711 1565.14ZM837.943 1435.22C829.487 1413.61 824.414 1390.56 823.193 1366.89C859.402 1365.11 894.782 1355.26 926.48 1338.04C958.178 1355.26 993.559 1365.11 1029.77 1366.89C1028.55 1390.56 1023.47 1413.6 1015.02 1435.21L972.723 1392.98L926.48 1439.18L880.237 1392.98L837.943 1435.22ZM848.157 1457.55L880.237 1425.52L926.48 1471.71L972.723 1425.52L1004.8 1457.55C986.866 1491.63 960.039 1520.94 926.48 1541.75C892.921 1520.92 866.094 1491.62 848.157 1457.55Z" fill="#6150F4"/>
<path fill-rule="evenodd" clip-rule="evenodd" d="M920.711 409.221L926.48 412.567V412.536L932.249 409.221C1006.75 366.128 1053.06 285.897 1053.06 199.833V188.231H1041.55C1003.07 188.231 965.297 178.103 932.249 158.95L926.48 155.605L920.711 158.95C887.663 178.103 849.889 188.231 811.41 188.231L799.903 188.323V199.833C799.903 285.866 846.207 366.098 920.711 409.221ZM837.943 279.297C829.487 257.69 824.414 234.646 823.193 210.975C859.402 209.195 894.782 199.342 926.48 182.123C958.178 199.342 993.559 209.195 1029.77 210.975C1028.55 234.638 1023.47 257.683 1015.02 279.295L972.723 237.064L926.48 283.257L880.237 237.064L837.943 279.297ZM848.157 301.635L880.237 269.599L926.48 315.792L972.723 269.599L1004.8 301.634C986.866 335.707 960.039 365.023 926.48 385.833C892.921 365.006 866.094 335.701 848.157 301.635Z" fill="#6150F4"/>
<path fill-rule="evenodd" clip-rule="evenodd" d="M920.711 640.405L926.48 643.751V643.72L932.249 640.405C1006.75 597.312 1053.06 517.08 1053.06 431.017V419.415H1041.55C1003.07 419.415 965.297 409.286 932.249 390.134L926.48 386.788L920.711 390.134C887.663 409.286 849.889 419.415 811.41 419.415L799.903 419.507V431.017C799.903 517.05 846.207 597.281 920.711 640.405ZM837.943 510.481C829.487 488.874 824.414 465.83 823.193 442.159C859.402 440.379 894.782 430.526 926.48 413.307C958.178 430.526 993.559 440.379 1029.77 442.159C1028.55 465.822 1023.47 488.867 1015.02 510.479L972.723 468.248L926.48 514.441L880.237 468.248L837.943 510.481ZM848.157 532.819L880.237 500.783L926.48 546.976L972.723 500.783L1004.8 532.818C986.866 566.891 960.039 596.207 926.48 617.017C892.921 596.19 866.094 566.884 848.157 532.819Z" fill="#6150F4"/>
<path fill-rule="evenodd" clip-rule="evenodd" d="M920.711 871.589L926.48 874.934V874.904L932.249 871.589C1006.75 828.496 1053.06 748.264 1053.06 662.201V650.599H1041.55C1003.07 650.599 965.297 640.47 932.249 621.318L926.48 617.972L920.711 621.318C887.663 640.47 849.889 650.599 811.41 650.599L799.903 650.691V662.201C799.903 748.233 846.207 828.465 920.711 871.589ZM837.943 741.664C829.487 720.057 824.414 697.014 823.193 673.342C859.402 671.562 894.782 661.71 926.48 644.491C958.178 661.71 993.559 671.562 1029.77 673.342C1028.55 697.005 1023.47 720.051 1015.02 741.663L972.723 699.432L926.48 745.625L880.237 699.432L837.943 741.664ZM848.157 764.002L880.237 731.966L926.48 778.159L972.723 731.966L1004.8 764.002C986.866 798.075 960.039 827.391 926.48 848.201C892.921 827.373 866.094 798.068 848.157 764.002Z" fill="#6150F4"/>
<path fill-rule="evenodd" clip-rule="evenodd" d="M920.711 1102.77L926.48 1106.12V1106.09L932.249 1102.77C1006.75 1059.68 1053.06 979.448 1053.06 893.385V881.783H1041.55C1003.07 881.783 965.297 871.654 932.249 852.502L926.48 849.156L920.711 852.502C887.663 871.654 849.889 881.783 811.41 881.783L799.903 881.875V893.385C799.903 979.417 846.207 1059.65 920.711 1102.77ZM837.943 972.848C829.487 951.241 824.414 928.197 823.193 904.526C859.402 902.746 894.782 892.894 926.48 875.675C958.178 892.894 993.559 902.746 1029.77 904.526C1028.55 928.189 1023.47 951.234 1015.02 972.846L972.723 930.616L926.48 976.809L880.237 930.616L837.943 972.848ZM848.157 995.186L880.237 963.15L926.48 1009.34L972.723 963.15L1004.8 995.186C986.866 1029.26 960.039 1058.57 926.48 1079.38C892.921 1058.56 866.094 1029.25 848.157 995.186Z" fill="#6150F4"/>
<path fill-rule="evenodd" clip-rule="evenodd" d="M920.711 1333.96L926.48 1337.3V1337.27L932.249 1333.96C1006.75 1290.86 1053.06 1210.63 1053.06 1124.57V1112.97H1041.55C1003.07 1112.97 965.297 1102.84 932.249 1083.69L926.48 1080.34L920.711 1083.69C887.663 1102.84 849.889 1112.97 811.41 1112.97L799.903 1113.06V1124.57C799.903 1210.6 846.207 1290.83 920.711 1333.96ZM837.943 1204.03C829.487 1182.42 824.414 1159.38 823.193 1135.71C859.402 1133.93 894.782 1124.08 926.48 1106.86C958.178 1124.08 993.559 1133.93 1029.77 1135.71C1028.55 1159.37 1023.47 1182.42 1015.02 1204.03L972.723 1161.8L926.48 1207.99L880.237 1161.8L837.943 1204.03ZM848.157 1226.37L880.237 1194.33L926.48 1240.53L972.723 1194.33L1004.8 1226.37C986.866 1260.44 960.039 1289.76 926.48 1310.57C892.921 1289.74 866.094 1260.44 848.157 1226.37Z" fill="#6150F4"/>
<path fill-rule="evenodd" clip-rule="evenodd" d="M920.711 1796.32L926.48 1799.67V1799.64L932.249 1796.32C1006.75 1753.23 1053.06 1673 1053.06 1586.93V1575.33H1041.55C1003.07 1575.33 965.297 1565.2 932.249 1546.05L926.48 1542.71L920.711 1546.05C887.663 1565.2 849.889 1575.33 811.41 1575.33L799.903 1575.42V1586.93C799.903 1672.97 846.207 1753.2 920.711 1796.32ZM837.943 1666.4C829.487 1644.79 824.414 1621.75 823.193 1598.08C859.402 1596.3 894.782 1586.44 926.48 1569.22C958.178 1586.44 993.559 1596.3 1029.77 1598.08C1028.55 1621.74 1023.47 1644.78 1015.02 1666.4L972.723 1624.17L926.48 1670.36L880.237 1624.17L837.943 1666.4ZM848.157 1688.74L880.237 1656.7L926.48 1702.89L972.723 1656.7L1004.8 1688.74C986.866 1722.81 960.039 1752.12 926.48 1772.93C892.921 1752.11 866.094 1722.8 848.157 1688.74Z" fill="#6150F4"/>
<path fill-rule="evenodd" clip-rule="evenodd" d="M920.711 2027.51L926.48 2030.85V2030.82L932.249 2027.51C1006.75 1984.41 1053.06 1904.18 1053.06 1818.12V1806.52H1041.55C1003.07 1806.52 965.297 1796.39 932.249 1777.23L926.48 1773.89L920.711 1777.23C887.663 1796.39 849.889 1806.52 811.41 1806.52L799.903 1806.61V1818.12C799.903 1904.15 846.207 1984.38 920.711 2027.51ZM837.943 1897.58C829.487 1875.97 824.414 1852.93 823.193 1829.26C859.402 1827.48 894.782 1817.63 926.48 1800.41C958.178 1817.63 993.559 1827.48 1029.77 1829.26C1028.55 1852.92 1023.47 1875.97 1015.02 1897.58L972.723 1855.35L926.48 1901.54L880.237 1855.35L837.943 1897.58ZM848.157 1919.92L880.237 1887.88L926.48 1934.08L972.723 1887.88L1004.8 1919.92C986.866 1953.99 960.039 1983.31 926.48 2004.12C892.921 1983.29 866.094 1953.98 848.157 1919.92Z" fill="#6150F4"/>
<path fill-rule="evenodd" clip-rule="evenodd" d="M920.711 2258.69L926.48 2262.03V2262L932.249 2258.69C1006.75 2215.59 1053.06 2135.36 1053.06 2049.3V2037.7H1041.55C1003.07 2037.7 965.297 2027.57 932.249 2008.42L926.48 2005.07L920.711 2008.42C887.663 2027.57 849.889 2037.7 811.41 2037.7L799.903 2037.79V2049.3C799.903 2135.33 846.207 2215.56 920.711 2258.69ZM837.943 2128.76C829.487 2107.16 824.414 2084.11 823.193 2060.44C859.402 2058.66 894.782 2048.81 926.48 2031.59C958.178 2048.81 993.559 2058.66 1029.77 2060.44C1028.55 2084.1 1023.47 2107.15 1015.02 2128.76L972.723 2086.53L926.48 2132.72L880.237 2086.53L837.943 2128.76ZM848.157 2151.1L880.237 2119.07L926.48 2165.26L972.723 2119.07L1004.8 2151.1C986.866 2185.17 960.039 2214.49 926.48 2235.3C892.921 2214.47 866.094 2185.17 848.157 2151.1Z" fill="#6150F4"/>
<path fill-rule="evenodd" clip-rule="evenodd" d="M920.711 2489.87L926.48 2493.22V2493.19L932.249 2489.87C1006.75 2446.78 1053.06 2366.55 1053.06 2280.48V2268.88H1041.55C1003.07 2268.88 965.297 2258.75 932.249 2239.6L926.48 2236.26L920.711 2239.6C887.663 2258.75 849.889 2268.88 811.41 2268.88L799.903 2268.97V2280.48C799.903 2366.52 846.207 2446.75 920.711 2489.87ZM837.943 2359.95C829.487 2338.34 824.414 2315.3 823.193 2291.63C859.402 2289.85 894.782 2279.99 926.48 2262.77C958.178 2279.99 993.559 2289.85 1029.77 2291.63C1028.55 2315.29 1023.47 2338.33 1015.02 2359.95L972.723 2317.71L926.48 2363.91L880.237 2317.71L837.943 2359.95ZM848.157 2382.29L880.237 2350.25L926.48 2396.44L972.723 2350.25L1004.8 2382.28C986.866 2416.36 960.039 2445.67 926.48 2466.48C892.921 2445.66 866.094 2416.35 848.157 2382.29Z" fill="#6150F4"/>
<path fill-rule="evenodd" clip-rule="evenodd" d="M920.711 2721.05L926.48 2724.4V2724.37L932.249 2721.05C1006.75 2677.96 1053.06 2597.73 1053.06 2511.67V2500.06H1041.55C1003.07 2500.06 965.297 2489.93 932.249 2470.78L926.48 2467.44L920.711 2470.78C887.663 2489.93 849.889 2500.06 811.41 2500.06L799.903 2500.16V2511.67C799.903 2597.7 846.207 2677.93 920.711 2721.05ZM837.943 2591.13C829.487 2569.52 824.414 2546.48 823.193 2522.81C859.402 2521.03 894.782 2511.17 926.48 2493.96C958.178 2511.17 993.559 2521.03 1029.77 2522.81C1028.55 2546.47 1023.47 2569.51 1015.02 2591.13L972.723 2548.9L926.48 2595.09L880.237 2548.9L837.943 2591.13ZM848.157 2613.47L880.237 2581.43L926.48 2627.62L972.723 2581.43L1004.8 2613.47C986.866 2647.54 960.039 2676.85 926.48 2697.67C892.921 2676.84 866.094 2647.53 848.157 2613.47Z" fill="#6150F4"/>
<path fill-rule="evenodd" clip-rule="evenodd" d="M920.711 2952.23L926.48 2955.58V2955.55L932.249 2952.23C1006.75 2909.14 1053.06 2828.91 1053.06 2742.85V2731.24H1041.55C1003.07 2731.24 965.297 2721.12 932.249 2701.96L926.48 2698.62L920.711 2701.96C887.663 2721.12 849.889 2731.24 811.41 2731.24L799.903 2731.34V2742.85C799.903 2828.88 846.207 2909.11 920.711 2952.23ZM837.943 2822.31C829.487 2800.7 824.414 2777.66 823.193 2753.99C859.402 2752.21 894.782 2742.36 926.48 2725.14C958.178 2742.36 993.559 2752.21 1029.77 2753.99C1028.55 2777.65 1023.47 2800.7 1015.02 2822.31L972.723 2780.08L926.48 2826.27L880.237 2780.08L837.943 2822.31ZM848.157 2844.65L880.237 2812.61L926.48 2858.81L972.723 2812.61L1004.8 2844.65C986.866 2878.72 960.039 2908.04 926.48 2928.85C892.921 2908.02 866.094 2878.71 848.157 2844.65Z" fill="#6150F4"/>
<path fill-rule="evenodd" clip-rule="evenodd" d="M1152.19 1565.14L1157.96 1568.49V1568.45L1163.73 1565.14C1238.23 1522.05 1284.54 1441.82 1284.54 1355.75V1344.15H1273.03C1234.55 1344.15 1196.78 1334.02 1163.73 1314.87L1157.96 1311.52L1152.19 1314.87C1119.14 1334.02 1081.37 1344.15 1042.89 1344.15L1031.38 1344.24V1355.75C1031.38 1441.78 1077.69 1522.02 1152.19 1565.14ZM1069.42 1435.22C1060.97 1413.61 1055.89 1390.56 1054.67 1366.89C1090.88 1365.11 1126.26 1355.26 1157.96 1338.04C1189.66 1355.26 1225.04 1365.11 1261.25 1366.89C1260.03 1390.56 1254.95 1413.6 1246.49 1435.21L1204.2 1392.98L1157.96 1439.18L1111.72 1392.98L1069.42 1435.22ZM1079.64 1457.55L1111.72 1425.52L1157.96 1471.71L1204.2 1425.52L1236.28 1457.55C1218.35 1491.63 1191.52 1520.94 1157.96 1541.75C1124.4 1520.92 1097.57 1491.62 1079.64 1457.55Z" fill="#6150F4"/>
<path fill-rule="evenodd" clip-rule="evenodd" d="M1152.19 178.037L1157.96 181.383V181.352L1163.73 178.037C1238.23 134.944 1284.54 54.7127 1284.54 -31.3505V-42.9525H1273.03C1234.55 -42.9525 1196.78 -53.0812 1163.73 -72.2337L1157.96 -75.5792L1152.19 -72.2337C1119.14 -53.0812 1081.37 -42.9525 1042.89 -42.9525L1031.38 -42.8604V-31.3505C1031.38 54.6821 1077.69 134.914 1152.19 178.037ZM1069.42 48.1129C1060.97 26.5058 1055.89 3.46224 1054.67 -20.209C1090.88 -21.9892 1126.26 -31.8416 1157.96 -49.0604C1189.66 -31.8416 1225.04 -21.9892 1261.25 -20.209C1260.03 3.45393 1254.95 26.4993 1246.49 48.1112L1204.2 5.88036L1157.96 52.0734L1111.72 5.88036L1069.42 48.1129ZM1079.64 70.451L1111.72 38.415L1157.96 84.608L1204.2 38.415L1236.28 70.4503C1218.35 104.524 1191.52 133.839 1157.96 154.649C1124.4 133.822 1097.57 104.517 1079.64 70.451Z" fill="#6150F4"/>
<path fill-rule="evenodd" clip-rule="evenodd" d="M1152.19 409.221L1157.96 412.567V412.536L1163.73 409.221C1238.23 366.128 1284.54 285.897 1284.54 199.833V188.231H1273.03C1234.55 188.231 1196.78 178.103 1163.73 158.95L1157.96 155.605L1152.19 158.95C1119.14 178.103 1081.37 188.231 1042.89 188.231L1031.38 188.323V199.833C1031.38 285.866 1077.69 366.098 1152.19 409.221ZM1069.42 279.297C1060.97 257.69 1055.89 234.646 1054.67 210.975C1090.88 209.195 1126.26 199.342 1157.96 182.123C1189.66 199.342 1225.04 209.195 1261.25 210.975C1260.03 234.638 1254.95 257.683 1246.49 279.295L1204.2 237.064L1157.96 283.257L1111.72 237.064L1069.42 279.297ZM1079.64 301.635L1111.72 269.599L1157.96 315.792L1204.2 269.599L1236.28 301.634C1218.35 335.707 1191.52 365.023 1157.96 385.833C1124.4 365.006 1097.57 335.701 1079.64 301.635Z" fill="#6150F4"/>
<path fill-rule="evenodd" clip-rule="evenodd" d="M1152.19 640.405L1157.96 643.751V643.72L1163.73 640.405C1238.23 597.312 1284.54 517.08 1284.54 431.017V419.415H1273.03C1234.55 419.415 1196.78 409.286 1163.73 390.134L1157.96 386.788L1152.19 390.134C1119.14 409.286 1081.37 419.415 1042.89 419.415L1031.38 419.507V431.017C1031.38 517.05 1077.69 597.281 1152.19 640.405ZM1069.42 510.481C1060.97 488.874 1055.89 465.83 1054.67 442.159C1090.88 440.379 1126.26 430.526 1157.96 413.307C1189.66 430.526 1225.04 440.379 1261.25 442.159C1260.03 465.822 1254.95 488.867 1246.49 510.479L1204.2 468.248L1157.96 514.441L1111.72 468.248L1069.42 510.481ZM1079.64 532.819L1111.72 500.783L1157.96 546.976L1204.2 500.783L1236.28 532.818C1218.35 566.891 1191.52 596.207 1157.96 617.017C1124.4 596.19 1097.57 566.884 1079.64 532.819Z" fill="#6150F4"/>
<path fill-rule="evenodd" clip-rule="evenodd" d="M1152.19 871.589L1157.96 874.934V874.904L1163.73 871.589C1238.23 828.496 1284.54 748.264 1284.54 662.201V650.599H1273.03C1234.55 650.599 1196.78 640.47 1163.73 621.318L1157.96 617.972L1152.19 621.318C1119.14 640.47 1081.37 650.599 1042.89 650.599L1031.38 650.691V662.201C1031.38 748.233 1077.69 828.465 1152.19 871.589ZM1069.42 741.664C1060.97 720.057 1055.89 697.014 1054.67 673.342C1090.88 671.562 1126.26 661.71 1157.96 644.491C1189.66 661.71 1225.04 671.562 1261.25 673.342C1260.03 697.005 1254.95 720.051 1246.49 741.663L1204.2 699.432L1157.96 745.625L1111.72 699.432L1069.42 741.664ZM1079.64 764.002L1111.72 731.966L1157.96 778.159L1204.2 731.966L1236.28 764.002C1218.35 798.075 1191.52 827.391 1157.96 848.201C1124.4 827.373 1097.57 798.068 1079.64 764.002Z" fill="#6150F4"/>
<path fill-rule="evenodd" clip-rule="evenodd" d="M1152.19 1102.77L1157.96 1106.12V1106.09L1163.73 1102.77C1238.23 1059.68 1284.54 979.448 1284.54 893.385V881.783H1273.03C1234.55 881.783 1196.78 871.654 1163.73 852.502L1157.96 849.156L1152.19 852.502C1119.14 871.654 1081.37 881.783 1042.89 881.783L1031.38 881.875V893.385C1031.38 979.417 1077.69 1059.65 1152.19 1102.77ZM1069.42 972.848C1060.97 951.241 1055.89 928.197 1054.67 904.526C1090.88 902.746 1126.26 892.894 1157.96 875.675C1189.66 892.894 1225.04 902.746 1261.25 904.526C1260.03 928.189 1254.95 951.234 1246.49 972.846L1204.2 930.616L1157.96 976.809L1111.72 930.616L1069.42 972.848ZM1079.64 995.186L1111.72 963.15L1157.96 1009.34L1204.2 963.15L1236.28 995.186C1218.35 1029.26 1191.52 1058.57 1157.96 1079.38C1124.4 1058.56 1097.57 1029.25 1079.64 995.186Z" fill="#6150F4"/>
<path fill-rule="evenodd" clip-rule="evenodd" d="M1152.19 1333.96L1157.96 1337.3V1337.27L1163.73 1333.96C1238.23 1290.86 1284.54 1210.63 1284.54 1124.57V1112.97H1273.03C1234.55 1112.97 1196.78 1102.84 1163.73 1083.69L1157.96 1080.34L1152.19 1083.69C1119.14 1102.84 1081.37 1112.97 1042.89 1112.97L1031.38 1113.06V1124.57C1031.38 1210.6 1077.69 1290.83 1152.19 1333.96ZM1069.42 1204.03C1060.97 1182.42 1055.89 1159.38 1054.67 1135.71C1090.88 1133.93 1126.26 1124.08 1157.96 1106.86C1189.66 1124.08 1225.04 1133.93 1261.25 1135.71C1260.03 1159.37 1254.95 1182.42 1246.49 1204.03L1204.2 1161.8L1157.96 1207.99L1111.72 1161.8L1069.42 1204.03ZM1079.64 1226.37L1111.72 1194.33L1157.96 1240.53L1204.2 1194.33L1236.28 1226.37C1218.35 1260.44 1191.52 1289.76 1157.96 1310.57C1124.4 1289.74 1097.57 1260.44 1079.64 1226.37Z" fill="#6150F4"/>
<path fill-rule="evenodd" clip-rule="evenodd" d="M1383.67 1565.14L1389.44 1568.49V1568.45L1395.21 1565.14C1469.71 1522.05 1516.02 1441.82 1516.02 1355.75V1344.15H1504.51C1466.03 1344.15 1428.26 1334.02 1395.21 1314.87L1389.44 1311.52L1383.67 1314.87C1350.62 1334.02 1312.85 1344.15 1274.37 1344.15L1262.86 1344.24V1355.75C1262.86 1441.78 1309.17 1522.02 1383.67 1565.14ZM1300.9 1435.22C1292.45 1413.61 1287.37 1390.56 1286.15 1366.89C1322.36 1365.11 1357.74 1355.26 1389.44 1338.04C1421.14 1355.26 1456.52 1365.11 1492.73 1366.89C1491.51 1390.56 1486.43 1413.6 1477.98 1435.21L1435.68 1392.98L1389.44 1439.18L1343.2 1392.98L1300.9 1435.22ZM1311.12 1457.55L1343.2 1425.52L1389.44 1471.71L1435.68 1425.52L1467.76 1457.55C1449.83 1491.63 1423 1520.94 1389.44 1541.75C1355.88 1520.92 1329.05 1491.62 1311.12 1457.55Z" fill="#6150F4"/>
<path fill-rule="evenodd" clip-rule="evenodd" d="M1152.19 1796.32L1157.96 1799.67V1799.64L1163.73 1796.32C1238.23 1753.23 1284.54 1673 1284.54 1586.93V1575.33H1273.03C1234.55 1575.33 1196.78 1565.2 1163.73 1546.05L1157.96 1542.71L1152.19 1546.05C1119.14 1565.2 1081.37 1575.33 1042.89 1575.33L1031.38 1575.42V1586.93C1031.38 1672.97 1077.69 1753.2 1152.19 1796.32ZM1069.42 1666.4C1060.97 1644.79 1055.89 1621.75 1054.67 1598.08C1090.88 1596.3 1126.26 1586.44 1157.96 1569.22C1189.66 1586.44 1225.04 1596.3 1261.25 1598.08C1260.03 1621.74 1254.95 1644.78 1246.49 1666.4L1204.2 1624.17L1157.96 1670.36L1111.72 1624.17L1069.42 1666.4ZM1079.64 1688.74L1111.72 1656.7L1157.96 1702.89L1204.2 1656.7L1236.28 1688.74C1218.35 1722.81 1191.52 1752.12 1157.96 1772.93C1124.4 1752.11 1097.57 1722.8 1079.64 1688.74Z" fill="#6150F4"/>
<path fill-rule="evenodd" clip-rule="evenodd" d="M1152.19 2027.51L1157.96 2030.85V2030.82L1163.73 2027.51C1238.23 1984.41 1284.54 1904.18 1284.54 1818.12V1806.52H1273.03C1234.55 1806.52 1196.78 1796.39 1163.73 1777.23L1157.96 1773.89L1152.19 1777.23C1119.14 1796.39 1081.37 1806.52 1042.89 1806.52L1031.38 1806.61V1818.12C1031.38 1904.15 1077.69 1984.38 1152.19 2027.51ZM1069.42 1897.58C1060.97 1875.97 1055.89 1852.93 1054.67 1829.26C1090.88 1827.48 1126.26 1817.63 1157.96 1800.41C1189.66 1817.63 1225.04 1827.48 1261.25 1829.26C1260.03 1852.92 1254.95 1875.97 1246.49 1897.58L1204.2 1855.35L1157.96 1901.54L1111.72 1855.35L1069.42 1897.58ZM1079.64 1919.92L1111.72 1887.88L1157.96 1934.08L1204.2 1887.88L1236.28 1919.92C1218.35 1953.99 1191.52 1983.31 1157.96 2004.12C1124.4 1983.29 1097.57 1953.98 1079.64 1919.92Z" fill="#6150F4"/>
<path fill-rule="evenodd" clip-rule="evenodd" d="M1152.19 2258.69L1157.96 2262.03V2262L1163.73 2258.69C1238.23 2215.59 1284.54 2135.36 1284.54 2049.3V2037.7H1273.03C1234.55 2037.7 1196.78 2027.57 1163.73 2008.42L1157.96 2005.07L1152.19 2008.42C1119.14 2027.57 1081.37 2037.7 1042.89 2037.7L1031.38 2037.79V2049.3C1031.38 2135.33 1077.69 2215.56 1152.19 2258.69ZM1069.42 2128.76C1060.97 2107.16 1055.89 2084.11 1054.67 2060.44C1090.88 2058.66 1126.26 2048.81 1157.96 2031.59C1189.66 2048.81 1225.04 2058.66 1261.25 2060.44C1260.03 2084.1 1254.95 2107.15 1246.49 2128.76L1204.2 2086.53L1157.96 2132.72L1111.72 2086.53L1069.42 2128.76ZM1079.64 2151.1L1111.72 2119.07L1157.96 2165.26L1204.2 2119.07L1236.28 2151.1C1218.35 2185.17 1191.52 2214.49 1157.96 2235.3C1124.4 2214.47 1097.57 2185.17 1079.64 2151.1Z" fill="#6150F4"/>
<path fill-rule="evenodd" clip-rule="evenodd" d="M1152.19 2489.87L1157.96 2493.22V2493.19L1163.73 2489.87C1238.23 2446.78 1284.54 2366.55 1284.54 2280.48V2268.88H1273.03C1234.55 2268.88 1196.78 2258.75 1163.73 2239.6L1157.96 2236.26L1152.19 2239.6C1119.14 2258.75 1081.37 2268.88 1042.89 2268.88L1031.38 2268.97V2280.48C1031.38 2366.52 1077.69 2446.75 1152.19 2489.87ZM1069.42 2359.95C1060.97 2338.34 1055.89 2315.3 1054.67 2291.63C1090.88 2289.85 1126.26 2279.99 1157.96 2262.77C1189.66 2279.99 1225.04 2289.85 1261.25 2291.63C1260.03 2315.29 1254.95 2338.33 1246.49 2359.95L1204.2 2317.71L1157.96 2363.91L1111.72 2317.71L1069.42 2359.95ZM1079.64 2382.29L1111.72 2350.25L1157.96 2396.44L1204.2 2350.25L1236.28 2382.28C1218.35 2416.36 1191.52 2445.67 1157.96 2466.48C1124.4 2445.66 1097.57 2416.35 1079.64 2382.29Z" fill="#6150F4"/>
<path fill-rule="evenodd" clip-rule="evenodd" d="M1152.19 2721.05L1157.96 2724.4V2724.37L1163.73 2721.05C1238.23 2677.96 1284.54 2597.73 1284.54 2511.67V2500.06H1273.03C1234.55 2500.06 1196.78 2489.93 1163.73 2470.78L1157.96 2467.44L1152.19 2470.78C1119.14 2489.93 1081.37 2500.06 1042.89 2500.06L1031.38 2500.16V2511.67C1031.38 2597.7 1077.69 2677.93 1152.19 2721.05ZM1069.42 2591.13C1060.97 2569.52 1055.89 2546.48 1054.67 2522.81C1090.88 2521.03 1126.26 2511.17 1157.96 2493.96C1189.66 2511.17 1225.04 2521.03 1261.25 2522.81C1260.03 2546.47 1254.95 2569.51 1246.49 2591.13L1204.2 2548.9L1157.96 2595.09L1111.72 2548.9L1069.42 2591.13ZM1079.64 2613.47L1111.72 2581.43L1157.96 2627.62L1204.2 2581.43L1236.28 2613.47C1218.35 2647.54 1191.52 2676.85 1157.96 2697.67C1124.4 2676.84 1097.57 2647.53 1079.64 2613.47Z" fill="#6150F4"/>
<path fill-rule="evenodd" clip-rule="evenodd" d="M1152.19 2952.23L1157.96 2955.58V2955.55L1163.73 2952.23C1238.23 2909.14 1284.54 2828.91 1284.54 2742.85V2731.24H1273.03C1234.55 2731.24 1196.78 2721.12 1163.73 2701.96L1157.96 2698.62L1152.19 2701.96C1119.14 2721.12 1081.37 2731.24 1042.89 2731.24L1031.38 2731.34V2742.85C1031.38 2828.88 1077.69 2909.11 1152.19 2952.23ZM1069.42 2822.31C1060.97 2800.7 1055.89 2777.66 1054.67 2753.99C1090.88 2752.21 1126.26 2742.36 1157.96 2725.14C1189.66 2742.36 1225.04 2752.21 1261.25 2753.99C1260.03 2777.65 1254.95 2800.7 1246.49 2822.31L1204.2 2780.08L1157.96 2826.27L1111.72 2780.08L1069.42 2822.31ZM1079.64 2844.65L1111.72 2812.61L1157.96 2858.81L1204.2 2812.61L1236.28 2844.65C1218.35 2878.72 1191.52 2908.04 1157.96 2928.85C1124.4 2908.02 1097.57 2878.71 1079.64 2844.65Z" fill="#6150F4"/>
<path fill-rule="evenodd" clip-rule="evenodd" d="M1383.67 178.037L1389.44 181.383V181.352L1395.21 178.037C1469.71 134.944 1516.02 54.7127 1516.02 -31.3505V-42.9525H1504.51C1466.03 -42.9525 1428.26 -53.0812 1395.21 -72.2337L1389.44 -75.5792L1383.67 -72.2337C1350.62 -53.0812 1312.85 -42.9525 1274.37 -42.9525L1262.86 -42.8604V-31.3505C1262.86 54.6821 1309.17 134.914 1383.67 178.037ZM1300.9 48.1129C1292.45 26.5058 1287.37 3.46224 1286.15 -20.209C1322.36 -21.9892 1357.74 -31.8416 1389.44 -49.0604C1421.14 -31.8416 1456.52 -21.9892 1492.73 -20.209C1491.51 3.45393 1486.43 26.4993 1477.98 48.1112L1435.68 5.88036L1389.44 52.0734L1343.2 5.88036L1300.9 48.1129ZM1311.12 70.451L1343.2 38.415L1389.44 84.608L1435.68 38.415L1467.76 70.4503C1449.83 104.524 1423 133.839 1389.44 154.649C1355.88 133.822 1329.05 104.517 1311.12 70.451Z" fill="#6150F4"/>
<path fill-rule="evenodd" clip-rule="evenodd" d="M1383.67 409.221L1389.44 412.567V412.536L1395.21 409.221C1469.71 366.128 1516.02 285.897 1516.02 199.833V188.231H1504.51C1466.03 188.231 1428.26 178.103 1395.21 158.95L1389.44 155.605L1383.67 158.95C1350.62 178.103 1312.85 188.231 1274.37 188.231L1262.86 188.323V199.833C1262.86 285.866 1309.17 366.098 1383.67 409.221ZM1300.9 279.297C1292.45 257.69 1287.37 234.646 1286.15 210.975C1322.36 209.195 1357.74 199.342 1389.44 182.123C1421.14 199.342 1456.52 209.195 1492.73 210.975C1491.51 234.638 1486.43 257.683 1477.98 279.295L1435.68 237.064L1389.44 283.257L1343.2 237.064L1300.9 279.297ZM1311.12 301.635L1343.2 269.599L1389.44 315.792L1435.68 269.599L1467.76 301.634C1449.83 335.707 1423 365.023 1389.44 385.833C1355.88 365.006 1329.05 335.701 1311.12 301.635Z" fill="#6150F4"/>
<path fill-rule="evenodd" clip-rule="evenodd" d="M1383.67 640.405L1389.44 643.751V643.72L1395.21 640.405C1469.71 597.312 1516.02 517.08 1516.02 431.017V419.415H1504.51C1466.03 419.415 1428.26 409.286 1395.21 390.134L1389.44 386.788L1383.67 390.134C1350.62 409.286 1312.85 419.415 1274.37 419.415L1262.86 419.507V431.017C1262.86 517.05 1309.17 597.281 1383.67 640.405ZM1300.9 510.481C1292.45 488.874 1287.37 465.83 1286.15 442.159C1322.36 440.379 1357.74 430.526 1389.44 413.307C1421.14 430.526 1456.52 440.379 1492.73 442.159C1491.51 465.822 1486.43 488.867 1477.98 510.479L1435.68 468.248L1389.44 514.441L1343.2 468.248L1300.9 510.481ZM1311.12 532.819L1343.2 500.783L1389.44 546.976L1435.68 500.783L1467.76 532.818C1449.83 566.891 1423 596.207 1389.44 617.017C1355.88 596.19 1329.05 566.884 1311.12 532.819Z" fill="#6150F4"/>
<path fill-rule="evenodd" clip-rule="evenodd" d="M1383.67 871.589L1389.44 874.934V874.904L1395.21 871.589C1469.71 828.496 1516.02 748.264 1516.02 662.201V650.599H1504.51C1466.03 650.599 1428.26 640.47 1395.21 621.318L1389.44 617.972L1383.67 621.318C1350.62 640.47 1312.85 650.599 1274.37 650.599L1262.86 650.691V662.201C1262.86 748.233 1309.17 828.465 1383.67 871.589ZM1300.9 741.664C1292.45 720.057 1287.37 697.014 1286.15 673.342C1322.36 671.562 1357.74 661.71 1389.44 644.491C1421.14 661.71 1456.52 671.562 1492.73 673.342C1491.51 697.005 1486.43 720.051 1477.98 741.663L1435.68 699.432L1389.44 745.625L1343.2 699.432L1300.9 741.664ZM1311.12 764.002L1343.2 731.966L1389.44 778.159L1435.68 731.966L1467.76 764.002C1449.83 798.075 1423 827.391 1389.44 848.201C1355.88 827.373 1329.05 798.068 1311.12 764.002Z" fill="#6150F4"/>
<path fill-rule="evenodd" clip-rule="evenodd" d="M1383.67 1102.77L1389.44 1106.12V1106.09L1395.21 1102.77C1469.71 1059.68 1516.02 979.448 1516.02 893.385V881.783H1504.51C1466.03 881.783 1428.26 871.654 1395.21 852.502L1389.44 849.156L1383.67 852.502C1350.62 871.654 1312.85 881.783 1274.37 881.783L1262.86 881.875V893.385C1262.86 979.417 1309.17 1059.65 1383.67 1102.77ZM1300.9 972.848C1292.45 951.241 1287.37 928.197 1286.15 904.526C1322.36 902.746 1357.74 892.894 1389.44 875.675C1421.14 892.894 1456.52 902.746 1492.73 904.526C1491.51 928.189 1486.43 951.234 1477.98 972.846L1435.68 930.616L1389.44 976.809L1343.2 930.616L1300.9 972.848ZM1311.12 995.186L1343.2 963.15L1389.44 1009.34L1435.68 963.15L1467.76 995.186C1449.83 1029.26 1423 1058.57 1389.44 1079.38C1355.88 1058.56 1329.05 1029.25 1311.12 995.186Z" fill="#6150F4"/>
<path fill-rule="evenodd" clip-rule="evenodd" d="M1383.67 1333.96L1389.44 1337.3V1337.27L1395.21 1333.96C1469.71 1290.86 1516.02 1210.63 1516.02 1124.57V1112.97H1504.51C1466.03 1112.97 1428.26 1102.84 1395.21 1083.69L1389.44 1080.34L1383.67 1083.69C1350.62 1102.84 1312.85 1112.97 1274.37 1112.97L1262.86 1113.06V1124.57C1262.86 1210.6 1309.17 1290.83 1383.67 1333.96ZM1300.9 1204.03C1292.45 1182.42 1287.37 1159.38 1286.15 1135.71C1322.36 1133.93 1357.74 1124.08 1389.44 1106.86C1421.14 1124.08 1456.52 1133.93 1492.73 1135.71C1491.51 1159.37 1486.43 1182.42 1477.98 1204.03L1435.68 1161.8L1389.44 1207.99L1343.2 1161.8L1300.9 1204.03ZM1311.12 1226.37L1343.2 1194.33L1389.44 1240.53L1435.68 1194.33L1467.76 1226.37C1449.83 1260.44 1423 1289.76 1389.44 1310.57C1355.88 1289.74 1329.05 1260.44 1311.12 1226.37Z" fill="#6150F4"/>
<path fill-rule="evenodd" clip-rule="evenodd" d="M1383.67 1796.32L1389.44 1799.67V1799.64L1395.21 1796.32C1469.71 1753.23 1516.02 1673 1516.02 1586.93V1575.33H1504.51C1466.03 1575.33 1428.26 1565.2 1395.21 1546.05L1389.44 1542.71L1383.67 1546.05C1350.62 1565.2 1312.85 1575.33 1274.37 1575.33L1262.86 1575.42V1586.93C1262.86 1672.97 1309.17 1753.2 1383.67 1796.32ZM1300.9 1666.4C1292.45 1644.79 1287.37 1621.75 1286.15 1598.08C1322.36 1596.3 1357.74 1586.44 1389.44 1569.22C1421.14 1586.44 1456.52 1596.3 1492.73 1598.08C1491.51 1621.74 1486.43 1644.78 1477.98 1666.4L1435.68 1624.17L1389.44 1670.36L1343.2 1624.17L1300.9 1666.4ZM1311.12 1688.74L1343.2 1656.7L1389.44 1702.89L1435.68 1656.7L1467.76 1688.74C1449.83 1722.81 1423 1752.12 1389.44 1772.93C1355.88 1752.11 1329.05 1722.8 1311.12 1688.74Z" fill="#6150F4"/>
<path fill-rule="evenodd" clip-rule="evenodd" d="M1383.67 2027.51L1389.44 2030.85V2030.82L1395.21 2027.51C1469.71 1984.41 1516.02 1904.18 1516.02 1818.12V1806.52H1504.51C1466.03 1806.52 1428.26 1796.39 1395.21 1777.23L1389.44 1773.89L1383.67 1777.23C1350.62 1796.39 1312.85 1806.52 1274.37 1806.52L1262.86 1806.61V1818.12C1262.86 1904.15 1309.17 1984.38 1383.67 2027.51ZM1300.9 1897.58C1292.45 1875.97 1287.37 1852.93 1286.15 1829.26C1322.36 1827.48 1357.74 1817.63 1389.44 1800.41C1421.14 1817.63 1456.52 1827.48 1492.73 1829.26C1491.51 1852.92 1486.43 1875.97 1477.98 1897.58L1435.68 1855.35L1389.44 1901.54L1343.2 1855.35L1300.9 1897.58ZM1311.12 1919.92L1343.2 1887.88L1389.44 1934.08L1435.68 1887.88L1467.76 1919.92C1449.83 1953.99 1423 1983.31 1389.44 2004.12C1355.88 1983.29 1329.05 1953.98 1311.12 1919.92Z" fill="#6150F4"/>
<path fill-rule="evenodd" clip-rule="evenodd" d="M1383.67 2258.69L1389.44 2262.03V2262L1395.21 2258.69C1469.71 2215.59 1516.02 2135.36 1516.02 2049.3V2037.7H1504.51C1466.03 2037.7 1428.26 2027.57 1395.21 2008.42L1389.44 2005.07L1383.67 2008.42C1350.62 2027.57 1312.85 2037.7 1274.37 2037.7L1262.86 2037.79V2049.3C1262.86 2135.33 1309.17 2215.56 1383.67 2258.69ZM1300.9 2128.76C1292.45 2107.16 1287.37 2084.11 1286.15 2060.44C1322.36 2058.66 1357.74 2048.81 1389.44 2031.59C1421.14 2048.81 1456.52 2058.66 1492.73 2060.44C1491.51 2084.1 1486.43 2107.15 1477.98 2128.76L1435.68 2086.53L1389.44 2132.72L1343.2 2086.53L1300.9 2128.76ZM1311.12 2151.1L1343.2 2119.07L1389.44 2165.26L1435.68 2119.07L1467.76 2151.1C1449.83 2185.17 1423 2214.49 1389.44 2235.3C1355.88 2214.47 1329.05 2185.17 1311.12 2151.1Z" fill="#6150F4"/>
<path fill-rule="evenodd" clip-rule="evenodd" d="M1383.67 2489.87L1389.44 2493.22V2493.19L1395.21 2489.87C1469.71 2446.78 1516.02 2366.55 1516.02 2280.48V2268.88H1504.51C1466.03 2268.88 1428.26 2258.75 1395.21 2239.6L1389.44 2236.26L1383.67 2239.6C1350.62 2258.75 1312.85 2268.88 1274.37 2268.88L1262.86 2268.97V2280.48C1262.86 2366.52 1309.17 2446.75 1383.67 2489.87ZM1300.9 2359.95C1292.45 2338.34 1287.37 2315.3 1286.15 2291.63C1322.36 2289.85 1357.74 2279.99 1389.44 2262.77C1421.14 2279.99 1456.52 2289.85 1492.73 2291.63C1491.51 2315.29 1486.43 2338.33 1477.98 2359.95L1435.68 2317.71L1389.44 2363.91L1343.2 2317.71L1300.9 2359.95ZM1311.12 2382.29L1343.2 2350.25L1389.44 2396.44L1435.68 2350.25L1467.76 2382.28C1449.83 2416.36 1423 2445.67 1389.44 2466.48C1355.88 2445.66 1329.05 2416.35 1311.12 2382.29Z" fill="#6150F4"/>
<path fill-rule="evenodd" clip-rule="evenodd" d="M1383.67 2721.05L1389.44 2724.4V2724.37L1395.21 2721.05C1469.71 2677.96 1516.02 2597.73 1516.02 2511.67V2500.06H1504.51C1466.03 2500.06 1428.26 2489.93 1395.21 2470.78L1389.44 2467.44L1383.67 2470.78C1350.62 2489.93 1312.85 2500.06 1274.37 2500.06L1262.86 2500.16V2511.67C1262.86 2597.7 1309.17 2677.93 1383.67 2721.05ZM1300.9 2591.13C1292.45 2569.52 1287.37 2546.48 1286.15 2522.81C1322.36 2521.03 1357.74 2511.17 1389.44 2493.96C1421.14 2511.17 1456.52 2521.03 1492.73 2522.81C1491.51 2546.47 1486.43 2569.51 1477.98 2591.13L1435.68 2548.9L1389.44 2595.09L1343.2 2548.9L1300.9 2591.13ZM1311.12 2613.47L1343.2 2581.43L1389.44 2627.62L1435.68 2581.43L1467.76 2613.47C1449.83 2647.54 1423 2676.85 1389.44 2697.67C1355.88 2676.84 1329.05 2647.53 1311.12 2613.47Z" fill="#6150F4"/>
<path fill-rule="evenodd" clip-rule="evenodd" d="M1383.67 2952.23L1389.44 2955.58V2955.55L1395.21 2952.23C1469.71 2909.14 1516.02 2828.91 1516.02 2742.85V2731.24H1504.51C1466.03 2731.24 1428.26 2721.12 1395.21 2701.96L1389.44 2698.62L1383.67 2701.96C1350.62 2721.12 1312.85 2731.24 1274.37 2731.24L1262.86 2731.34V2742.85C1262.86 2828.88 1309.17 2909.11 1383.67 2952.23ZM1300.9 2822.31C1292.45 2800.7 1287.37 2777.66 1286.15 2753.99C1322.36 2752.21 1357.74 2742.36 1389.44 2725.14C1421.14 2742.36 1456.52 2752.21 1492.73 2753.99C1491.51 2777.65 1486.43 2800.7 1477.98 2822.31L1435.68 2780.08L1389.44 2826.27L1343.2 2780.08L1300.9 2822.31ZM1311.12 2844.65L1343.2 2812.61L1389.44 2858.81L1435.68 2812.61L1467.76 2844.65C1449.83 2878.72 1423 2908.04 1389.44 2928.85C1355.88 2908.02 1329.05 2878.71 1311.12 2844.65Z" fill="#6150F4"/>
</g>
<defs>
<clipPath id="clip0_2001_4222">
<rect width="1390" height="2880" fill="white"/>
</clipPath>
</defs>
</svg>
