<svg width="801" height="801" viewBox="0 0 801 801" fill="none" xmlns="http://www.w3.org/2000/svg">
<path fill-rule="evenodd" clip-rule="evenodd" d="M400.611 800.892C179.698 800.892 0.611328 621.805 0.611328 400.892C0.611328 179.978 179.698 0.891602 400.611 0.891602C621.525 0.891602 800.611 179.978 800.611 400.892C800.611 621.805 621.525 800.892 400.611 800.892Z" fill="#6150F4"/>
<path fill-rule="evenodd" clip-rule="evenodd" d="M390.145 654.481L400.609 660.548V660.492L411.073 654.481C546.213 576.335 630.203 430.842 630.203 274.774V253.735H609.331C539.534 253.735 471.018 235.367 411.073 200.636L400.609 194.569L390.145 200.636C330.2 235.367 261.683 253.735 191.887 253.735L171.015 253.902V274.774C171.015 430.786 255.004 576.28 390.145 654.481ZM240.015 418.874C224.677 379.691 215.475 337.904 213.26 294.978C278.938 291.75 343.113 273.883 400.609 242.658C458.105 273.883 522.28 291.75 587.958 294.978C585.743 337.889 576.539 379.679 561.199 418.871L484.487 342.289L400.609 426.056L316.73 342.289L240.015 418.874ZM258.542 459.382L316.73 401.288L400.609 485.055L484.487 401.288L542.674 459.381C510.14 521.17 461.479 574.331 400.609 612.068C339.737 574.3 291.076 521.157 258.542 459.382Z" fill="white"/>
</svg>
