<svg width="3001" height="642" viewBox="0 0 3001 642" fill="none" xmlns="http://www.w3.org/2000/svg">
<path fill-rule="evenodd" clip-rule="evenodd" d="M302.169 633.467L316.567 641.814V641.738L330.965 633.467C516.914 525.941 632.481 325.747 632.481 111.002V82.0523H603.762C507.724 82.0523 413.447 56.7791 330.965 8.98989L316.567 0.64209L302.169 8.98989C219.686 56.7791 125.41 82.0523 29.3718 82.0523L0.652344 82.282V111.002C0.652344 325.67 116.22 525.864 302.169 633.467ZM95.5949 309.279C74.49 255.365 61.8278 197.866 58.7806 138.802C149.151 134.36 237.454 109.776 316.567 66.8118C395.679 109.776 483.982 134.36 574.353 138.802C571.306 197.846 558.641 255.348 537.534 309.275L431.981 203.9L316.566 319.161L201.152 203.9L95.5949 309.279ZM121.087 365.017L201.152 285.081L316.566 400.341L431.981 285.081L512.044 365.015C467.278 450.035 400.323 523.183 316.567 575.109C232.809 523.14 165.853 450.018 121.087 365.017Z" fill="#6150F4"/>
<path d="M1165.74 508.327H1100.34V259.118L1001.7 463.984H956.743L857.488 258.505V508.327H792.697V128.923H859.249L978.876 367.639L1099.11 128.923H1165.67V508.327H1165.74Z" fill="#161C35"/>
<path d="M1205.34 374.073C1205.34 292.969 1262.55 234.611 1343.65 234.611C1424.75 234.611 1481.43 292.969 1481.43 374.073C1481.43 455.177 1424.83 513.535 1343.65 513.535C1262.47 513.535 1205.34 454.028 1205.34 374.073ZM1419.01 374.073C1419.01 328.581 1389.22 294.73 1343.73 294.73C1298.23 294.73 1267.83 328.581 1267.83 374.073C1267.83 419.564 1298.16 454.028 1343.73 454.028C1389.29 454.028 1419.01 419.564 1419.01 374.073Z" fill="#161C35"/>
<path d="M1932.59 343.745V508.326H1869.56V351.939C1869.56 303.461 1836.32 290.671 1813.5 290.671C1790.68 290.671 1758.05 303.537 1758.05 351.939V508.326H1695.56V351.939C1695.56 303.461 1662.32 290.671 1639.5 290.671C1616.68 290.671 1584.05 303.537 1584.05 351.939V508.326H1521.64V239.818H1584.05V268.997C1603.89 245.639 1631.92 235.759 1658.19 235.759C1690.28 235.759 1724.13 247.4 1742.81 279.566C1764.41 246.864 1800.56 235.759 1832.11 235.759C1880.59 235.759 1932.52 261.415 1932.52 343.745H1932.59Z" fill="#161C35"/>
<path d="M2234.88 374.072V391.61H2032.92C2039.35 433.655 2069.15 459.924 2108.82 459.924C2146.19 459.924 2167.79 442.999 2178.89 427.222L2222.09 458.775C2198.73 492.626 2157.91 513.61 2108.82 513.61C2027.1 513.61 1972.27 454.103 1972.27 374.148C1972.27 294.193 2024.8 235.223 2105.91 235.223C2187.01 235.223 2234.88 294.193 2234.88 374.148V374.072ZM2033.53 351.326H2176.52C2169.47 313.416 2145.58 284.773 2105.91 284.773C2066.24 284.773 2040.5 311.042 2033.53 351.326Z" fill="#161C35"/>
<path d="M2522.07 343.744V508.326H2459.04V353.087C2459.04 304.609 2425.19 288.909 2397.77 288.909C2370.35 288.909 2337.65 304.685 2337.65 353.087V508.326H2275.16V239.818H2337.65V268.384C2358.1 244.489 2387.82 235.682 2416.46 235.682C2466.62 235.682 2522.07 263.712 2522.07 343.667V343.744Z" fill="#161C35"/>
<path d="M2649.28 287.684V425.461C2649.28 455.789 2667.96 459.312 2685.5 459.312H2705.95V508.327H2660.46C2610.83 508.327 2586.32 482.058 2586.32 435.341V287.684H2550.71V239.818H2586.32V157.489H2649.35V239.818H2708.86V287.684H2649.35H2649.28Z" fill="#161C35"/>
<path d="M3000.65 239.818V508.326H2938.16V473.863C2919.47 497.758 2890.91 512.998 2853.53 512.998C2778.78 512.998 2724.56 454.027 2724.56 374.072C2724.56 294.117 2778.86 235.759 2853.53 235.759C2890.91 235.759 2919.47 250.387 2938.16 274.894V239.895H3000.65V239.818ZM2938.16 374.072C2938.16 327.968 2908.37 294.73 2862.26 294.73C2816.16 294.73 2785.83 327.968 2785.83 374.072C2785.83 420.177 2816.16 454.027 2862.26 454.027C2908.37 454.027 2938.16 420.177 2938.16 374.072Z" fill="#161C35"/>
</svg>
