<svg width="98" height="33" viewBox="0 0 98 33" fill="none" xmlns="http://www.w3.org/2000/svg">
<rect x="0.744141" y="0.134766" width="96.546" height="32.1822" rx="4.82732" fill="white"/>
<rect x="0.744141" y="0.134766" width="96.546" height="32.1822" rx="4.82732" stroke="url(#paint0_linear_281_9988)"/>
<path d="M15.0693 15.7916L7.25293 24.275C7.25366 24.2766 7.25366 24.2788 7.2544 24.2803C7.49446 25.2015 8.3167 25.8794 9.2931 25.8794C9.68367 25.8794 10.05 25.7713 10.3642 25.5821L10.3892 25.5671L19.1871 20.3757L15.0693 15.7916Z" fill="#EA4335"/>
<path d="M22.9762 14.3473L22.9688 14.342L19.1704 12.0905L14.8911 15.9846L19.1858 20.375L22.9637 18.146C23.6259 17.7797 24.0759 17.0657 24.0759 16.2429C24.0759 15.4246 23.6325 14.7144 22.9762 14.3473Z" fill="#FBBC04"/>
<path d="M7.25261 8.17364C7.20562 8.35081 7.18066 8.537 7.18066 8.72919V23.7201C7.18066 23.9123 7.20562 24.0985 7.25334 24.2749L15.3377 16.0084L7.25261 8.17364Z" fill="#4285F4"/>
<path d="M15.1268 16.2246L19.1719 12.0887L10.3843 6.87857C10.0649 6.68262 9.69199 6.57001 9.29335 6.57001C8.31694 6.57001 7.49324 7.24944 7.25318 8.17135C7.25318 8.1721 7.25244 8.17286 7.25244 8.17361L15.1268 16.2246Z" fill="#34A853"/>
<path d="M35.8307 9.50927C35.8307 10.3138 35.592 10.9548 35.1146 11.4322C34.5782 12.0007 33.8729 12.285 32.9986 12.285C32.1619 12.285 31.4539 11.9953 30.8746 11.4161C30.2953 10.8368 30.0057 10.1234 30.0057 9.27595C30.0057 8.42849 30.2953 7.71512 30.8746 7.13584C31.4539 6.55656 32.1619 6.26692 32.9986 6.26692C33.4224 6.26692 33.822 6.34201 34.1974 6.4922C34.5729 6.64238 34.8813 6.85425 35.1226 7.12779L34.5916 7.6588C34.4146 7.44425 34.184 7.27798 33.8997 7.15998C33.6208 7.03661 33.3205 6.97493 32.9986 6.97493C32.3711 6.97493 31.8401 7.19216 31.4056 7.62662C30.9765 8.06644 30.762 8.61622 30.762 9.27595C30.762 9.93568 30.9765 10.4855 31.4056 10.9253C31.8401 11.3597 32.3711 11.577 32.9986 11.577C33.5725 11.577 34.0499 11.4161 34.4307 11.0942C34.8116 10.7724 35.0315 10.3299 35.0905 9.76673H32.9986V9.07481H35.7904C35.8172 9.225 35.8307 9.36981 35.8307 9.50927ZM40.093 6.39565V7.10366H37.4702V8.92999H39.8356V9.62191H37.4702V11.4482H40.093V12.1562H36.73V6.39565H40.093ZM43.0537 7.10366V12.1562H42.3135V7.10366H40.7044V6.39565H44.6628V7.10366H43.0537ZM47.9435 12.1562H47.2033V6.39565H47.9435V12.1562ZM51.0678 7.10366V12.1562H50.3276V7.10366H48.7185V6.39565H52.6769V7.10366H51.0678ZM60.7002 9.27595C60.7002 10.1288 60.4159 10.8421 59.8474 11.4161C59.2735 11.9953 58.5708 12.285 57.7395 12.285C56.9027 12.285 56.2001 11.9953 55.6315 11.4161C55.063 10.8421 54.7787 10.1288 54.7787 9.27595C54.7787 8.42312 55.063 7.70975 55.6315 7.13584C56.2001 6.55656 56.9027 6.26692 57.7395 6.26692C58.5762 6.26692 59.2788 6.55924 59.8474 7.14388C60.4159 7.7178 60.7002 8.42849 60.7002 9.27595ZM55.535 9.27595C55.535 9.94105 55.7442 10.4908 56.1625 10.9253C56.5863 11.3597 57.1119 11.577 57.7395 11.577C58.367 11.577 58.89 11.3597 59.3083 10.9253C59.7321 10.4962 59.9439 9.94641 59.9439 9.27595C59.9439 8.60549 59.7321 8.05571 59.3083 7.62662C58.89 7.19216 58.367 6.97493 57.7395 6.97493C57.1119 6.97493 56.5863 7.19216 56.1625 7.62662C55.7442 8.06108 55.535 8.61085 55.535 9.27595ZM62.3139 12.1562H61.5737V6.39565H62.4748L65.2747 10.877H65.3068L65.2747 9.76673V6.39565H66.0148V12.1562H65.2425L62.3139 7.45766H62.2817L62.3139 8.56794V12.1562Z" fill="black"/>
<path d="M75.9842 25.4043H77.2947V16.545H75.9842V25.4043ZM87.7875 19.7362L86.2853 23.5773H86.2403L84.6813 19.7362H83.2697L85.6076 25.1046L84.2754 28.091H85.6413L89.2447 19.7362H87.7875ZM80.3559 24.398C79.9261 24.398 79.3278 24.1818 79.3278 23.6454C79.3278 22.9622 80.0729 22.7 80.7169 22.7C81.2928 22.7 81.5645 22.8254 81.9143 22.9962C81.8125 23.8169 81.1123 24.398 80.3559 24.398ZM80.5139 19.5427C79.5652 19.5427 78.582 19.9644 78.176 20.8992L79.339 21.3889C79.5876 20.8992 80.0504 20.739 80.5364 20.739C81.2141 20.739 81.903 21.1493 81.9143 21.8793V21.97C81.6769 21.8332 81.1692 21.6284 80.5476 21.6284C79.2941 21.6284 78.0173 22.3236 78.0173 23.6227C78.0173 24.8083 79.0455 25.5723 80.1972 25.5723C81.0786 25.5723 81.5646 25.1733 81.8693 24.7056H81.9143V25.3895H83.1791V21.9927C83.1791 20.4201 82.0161 19.5427 80.5139 19.5427ZM72.4152 20.8148H70.5514V17.7781H72.4152C73.3949 17.7781 73.9511 18.5966 73.9511 19.2961C73.9511 19.9828 73.3949 20.8148 72.4152 20.8148ZM72.3815 16.545H69.2416V25.4043H70.5514V22.048H72.3815C73.8338 22.048 75.2616 20.9863 75.2616 19.2961C75.2616 17.6059 73.8338 16.545 72.3815 16.545ZM55.2592 24.3994C54.3539 24.3994 53.5961 23.6347 53.5961 22.5844C53.5961 21.5228 54.3539 20.7461 55.2592 20.7461C56.1532 20.7461 56.854 21.5228 56.854 22.5844C56.854 23.6347 56.1532 24.3994 55.2592 24.3994ZM56.7641 20.2323H56.7185C56.4242 19.8787 55.8589 19.559 55.1461 19.559C53.6523 19.559 52.2836 20.8829 52.2836 22.5844C52.2836 24.274 53.6523 25.5872 55.1461 25.5872C55.8589 25.5872 56.4242 25.2676 56.7185 24.9019H56.7641V25.3363C56.7641 26.4893 56.1532 27.1059 55.1686 27.1059C54.3651 27.1059 53.8672 26.5234 53.6636 26.0322L52.521 26.512C52.8489 27.3114 53.7205 28.293 55.1686 28.293C56.7073 28.293 58.0086 27.3795 58.0086 25.1535V19.7412H56.7641V20.2323ZM58.9138 25.4043H60.2264V16.5443H58.9138V25.4043ZM62.1605 22.4817C62.1268 21.3173 63.0545 20.7234 63.7217 20.7234C64.2428 20.7234 64.6838 20.9856 64.8306 21.3627L62.1605 22.4817ZM66.2337 21.4768C65.9851 20.8035 65.2267 19.559 63.6767 19.559C62.138 19.559 60.8599 20.7801 60.8599 22.5731C60.8599 24.2626 62.1268 25.5872 63.8235 25.5872C65.1929 25.5872 65.9851 24.7424 66.3131 24.2513L65.2948 23.566C64.9556 24.0684 64.4914 24.3994 63.8235 24.3994C63.1563 24.3994 62.6809 24.0911 62.3754 23.4866L66.3693 21.8191L66.2337 21.4768ZM34.4147 20.4839V21.7624H37.4465C37.3559 22.4817 37.1185 23.0068 36.7568 23.3718C36.3151 23.8176 35.6247 24.3087 34.4147 24.3087C32.5473 24.3087 31.088 22.79 31.088 20.9063C31.088 19.0218 32.5473 17.5038 34.4147 17.5038C35.4218 17.5038 36.1571 17.9035 36.6999 18.4173L37.5939 17.5152C36.8355 16.7845 35.8291 16.2246 34.4147 16.2246C31.8577 16.2246 29.708 18.3259 29.708 20.9063C29.708 23.4866 31.8577 25.5872 34.4147 25.5872C35.7947 25.5872 36.8355 25.1301 37.6501 24.274C38.4879 23.4292 38.7478 22.2421 38.7478 21.2826C38.7478 20.9856 38.7253 20.7121 38.6797 20.4839H34.4147ZM42.1953 24.3994C41.2901 24.3994 40.5091 23.6461 40.5091 22.5731C40.5091 21.4881 41.2901 20.7461 42.1953 20.7461C43.0998 20.7461 43.8808 21.4881 43.8808 22.5731C43.8808 23.6461 43.0998 24.3994 42.1953 24.3994ZM42.1953 19.559C40.5428 19.559 39.1965 20.8262 39.1965 22.5731C39.1965 24.3087 40.5428 25.5872 42.1953 25.5872C43.8471 25.5872 45.1933 24.3087 45.1933 22.5731C45.1933 20.8262 43.8471 19.559 42.1953 19.559ZM48.7357 24.3994C47.8304 24.3994 47.0495 23.6461 47.0495 22.5731C47.0495 21.4881 47.8304 20.7461 48.7357 20.7461C49.6409 20.7461 50.4211 21.4881 50.4211 22.5731C50.4211 23.6461 49.6409 24.3994 48.7357 24.3994ZM48.7357 19.559C47.0839 19.559 45.7376 20.8262 45.7376 22.5731C45.7376 24.3087 47.0839 25.5872 48.7357 25.5872C50.3874 25.5872 51.7337 24.3087 51.7337 22.5731C51.7337 20.8262 50.3874 19.559 48.7357 19.559Z" fill="black"/>
<defs>
<linearGradient id="paint0_linear_281_9988" x1="97.2901" y1="16.2259" x2="0.744141" y2="16.2259" gradientUnits="userSpaceOnUse">
<stop stop-color="#FF906C"/>
<stop offset="1" stop-color="#6150F4"/>
</linearGradient>
</defs>
</svg>
