<svg width="1001" height="1015" viewBox="0 0 1001 1015" fill="none" xmlns="http://www.w3.org/2000/svg">
<path fill-rule="evenodd" clip-rule="evenodd" d="M477.294 1001.58L500.082 1014.79V1014.67L522.869 1001.58C817.172 831.394 1000.08 514.545 1000.08 174.667V128.848H954.627C802.627 128.848 653.415 88.8485 522.869 13.2121L500.082 0L477.294 13.2121C346.748 88.8485 197.536 128.848 45.5361 128.848L0.081543 129.212V174.667C0.081543 514.424 182.991 831.273 477.294 1001.58ZM150.348 488.482C116.945 403.152 96.9043 312.148 92.0815 218.667C235.112 211.636 374.869 172.727 500.082 104.727C625.294 172.727 765.051 211.636 908.082 218.667C903.258 312.116 883.215 403.126 849.807 488.475L682.748 321.698L500.081 504.122L317.414 321.698L150.348 488.482ZM190.695 576.698L317.414 450.183L500.081 632.607L682.748 450.183L809.465 576.696C738.613 711.257 632.643 827.029 500.082 909.212C367.518 826.961 261.546 711.23 190.695 576.698Z" fill="#6150F4"/>
</svg>
