<svg width="2001" height="349" viewBox="0 0 2001 349" fill="none" xmlns="http://www.w3.org/2000/svg">
<path d="M337.952 343.721H278.708V117.984L189.357 303.555H148.635L58.7289 117.429V343.721H0.0400391V0.0517578H60.3245L168.684 216.285L277.598 0.0517578H337.882V343.721H337.952Z" fill="#161C35"/>
<path d="M373.815 222.112C373.815 148.647 425.636 95.7856 499.102 95.7856C572.567 95.7856 623.902 148.647 623.902 222.112C623.902 295.577 572.636 348.439 499.102 348.439C425.567 348.439 373.815 294.537 373.815 222.112ZM567.364 222.112C567.364 180.905 540.378 150.243 499.171 150.243C457.964 150.243 430.423 180.905 430.423 222.112C430.423 263.319 457.894 294.537 499.171 294.537C540.447 294.537 567.364 263.319 567.364 222.112Z" fill="#161C35"/>
<path d="M1032.58 194.64V343.721H975.482V202.063C975.482 158.151 945.374 146.566 924.702 146.566C904.029 146.566 874.476 158.22 874.476 202.063V343.721H817.868V202.063C817.868 158.151 787.761 146.566 767.088 146.566C746.415 146.566 716.862 158.22 716.862 202.063V343.721H660.324V100.502H716.862V126.933C734.83 105.775 760.22 96.8257 784.015 96.8257C813.082 96.8257 843.744 107.37 860.671 136.507C880.234 106.885 912.978 96.8257 941.559 96.8257C985.471 96.8257 1032.51 120.065 1032.51 194.64H1032.58Z" fill="#161C35"/>
<path d="M1306.39 222.112V237.998H1123.45C1129.28 276.083 1156.27 299.878 1192.2 299.878C1226.06 299.878 1245.62 284.546 1255.68 270.256L1294.8 298.837C1273.65 329.5 1236.67 348.508 1192.2 348.508C1118.18 348.508 1068.51 294.605 1068.51 222.181C1068.51 149.756 1116.1 96.3398 1189.57 96.3398C1263.03 96.3398 1306.39 149.756 1306.39 222.181V222.112ZM1124.01 201.508H1253.53C1247.14 167.169 1225.5 141.224 1189.57 141.224C1153.63 141.224 1130.32 165.018 1124.01 201.508Z" fill="#161C35"/>
<path d="M1566.53 194.64V343.721H1509.44V203.103C1509.44 159.191 1478.78 144.97 1453.94 144.97C1429.11 144.97 1399.48 159.26 1399.48 203.103V343.721H1342.88V100.502H1399.48V126.378C1418.01 104.734 1444.92 96.7559 1470.87 96.7559C1516.31 96.7559 1566.53 122.146 1566.53 194.571V194.64Z" fill="#161C35"/>
<path d="M1681.76 143.86V268.661C1681.76 296.132 1698.68 299.323 1714.57 299.323H1733.09V343.722H1691.89C1646.93 343.722 1624.73 319.927 1624.73 277.61V143.86H1592.48V100.503H1624.73V25.9277H1681.83V100.503H1735.73V143.86H1681.83H1681.76Z" fill="#161C35"/>
<path d="M2000.04 100.502V343.721H1943.43V312.504C1926.51 334.148 1900.63 347.953 1866.78 347.953C1799.07 347.953 1749.95 294.536 1749.95 222.112C1749.95 149.687 1799.14 96.8257 1866.78 96.8257C1900.63 96.8257 1926.51 110.076 1943.43 132.275V100.572H2000.04V100.502ZM1943.43 222.112C1943.43 180.35 1916.45 150.242 1874.68 150.242C1832.92 150.242 1805.45 180.35 1805.45 222.112C1805.45 263.874 1832.92 294.536 1874.68 294.536C1916.45 294.536 1943.43 263.874 1943.43 222.112Z" fill="#161C35"/>
</svg>
